<?xml version="1.0" standalone="no"?>
<!DOCTYPE svg PUBLIC "-//W3C//DTD SVG 1.1//EN" "http://www.w3.org/Graphics/SVG/1.1/DTD/svg11.dtd" >
<svg xmlns="http://www.w3.org/2000/svg" xmlns:xlink="http://www.w3.org/1999/xlink" version="1.1">
<metadata></metadata>
<defs>
<font id="noricannormal" horiz-adv-x="1706" >
<font-face units-per-em="2048" ascent="1638" descent="-410" />
<missing-glyph horiz-adv-x="389" />
<glyph unicode="&#xfb04;" horiz-adv-x="1548" d="M-74 -336h198q9 31 33.5 154t48 248t23.5 127l34 179q0 21 26.5 63.5t69 98.5t93.5 124t102 148t93.5 162.5t69 176t26.5 180.5q0 19 -0.5 31.5t-3 31t-9 30.5t-16.5 24t-26.5 18t-38.5 6q-79 0 -164 -43t-145.5 -107t-77.5 -126q-96 -347 -196 -788.5t-140 -737.5z M-64 505q0 -41 57 -41q324 -2 435 -2q101 0 322.5 -3t344.5 -3q18 0 35 14t26.5 32.5t9.5 34.5q0 64 -9 64q-172 0 -621 -23t-551 -36q-49 -6 -49 -37zM304 586q2 11 6 35q11 59 17.5 95t20.5 109.5t26 124.5t28.5 119t33 114t34.5 89t38 64.5t39 21.5q69 0 69 -103 q0 -47 -16.5 -106t-39.5 -112t-59.5 -121t-65.5 -115.5t-70.5 -114.5t-60.5 -100zM456 -336h198q9 31 33.5 154t48 248t23.5 127l34 179q0 28 49.5 97.5t120 163t141 201t120 239t49.5 249.5q0 23 -1 38t-6 36.5t-14 34.5t-28 22.5t-45 9.5q-119 0 -239.5 -89.5 t-147.5 -186.5q-96 -347 -196 -787.5t-140 -735.5zM834 602q65 354 108 507q71 246 135 246q69 0 69 -103q0 -54 -20 -119.5t-60 -142t-72.5 -132t-86.5 -140.5t-73 -116zM1069 217q0 -30 0.5 -46.5t2.5 -46.5t6 -47.5t12 -40t19 -35t29 -21.5t41 -9q97 7 209.5 89.5 t284.5 267.5v112q-106 -100 -235 -206.5t-157 -106.5q-35 0 -35 71q0 39 10 105t19 113l10 46q11 5 30 15t74 44.5t105 74t111 103.5t105 133.5t74 163t30 192.5q0 204 -141 204q-71 0 -147 -60t-141 -157t-124.5 -223t-101 -255.5t-66 -256t-24.5 -223.5zM1318 608 q94 317 173 475t166 194q5 2 10 2q18 0 25.5 -28t7.5 -60t-13 -85t-43.5 -124.5t-72.5 -140t-108.5 -133t-144.5 -100.5z" />
<glyph horiz-adv-x="0" />
<glyph unicode="&#xd;" horiz-adv-x="389" />
<glyph horiz-adv-x="0" />
<glyph horiz-adv-x="0" />
<glyph unicode=" "  horiz-adv-x="389" />
<glyph unicode="&#x09;" horiz-adv-x="389" />
<glyph unicode="&#xa0;" horiz-adv-x="389" />
<glyph unicode="!" horiz-adv-x="608" d="M144 49q0 -34 19.5 -56t60.5 -22q66 0 118 51.5t52 106.5q0 34 -27.5 56t-83.5 22q-57 0 -98 -51.5t-41 -106.5zM295 397q0 -28 22 -28q29 0 54 10q1 3 59.5 165t127 353.5t126 365.5t57.5 201q0 54 -32 54h-183q-17 0 -30 -21t-22 -59t-14 -66t-10 -68q-1 -5 -1 -8 l-152 -862q-2 -12 -2 -37z" />
<glyph unicode="&#x22;" horiz-adv-x="913" d="M366 1083h55q5 12 48.5 130t74.5 190q21 53 21 84q0 30 -25.5 40.5t-103.5 10.5q-26 0 -41.5 -34t-20.5 -86.5t-7.5 -115t-0.5 -119.5t0 -100zM634 1083h56q6 16 27.5 75t46.5 125t49 120q20 55 20 84q0 30 -25.5 40.5t-103.5 10.5q-26 0 -41.5 -34t-20.5 -86.5 t-7.5 -115t-0.5 -119.5t0 -100z" />
<glyph unicode="#" horiz-adv-x="1069" d="M37 537q0 -41 57 -41q86 4 115 4q-57 -307 -94 -451q-25 -87 -25 -131q0 -29 7 -44t30 -15q16 0 29.5 12t24 35.5t17 43t14.5 49.5t11 40l127 467l217 6q-81 -337 -125 -463q0 -2 -12 -51.5t-12 -79.5q0 -29 7 -44t30 -15q16 0 29.5 12.5t23.5 35.5t17 43.5t14.5 49 t11.5 39.5l156 475h41q21 0 66.5 -1t70.5 -1q38 0 69 33t31 63q0 41 -209 41h-24l57 172q19 0 59 -1t62 -1q37 0 68.5 33t31.5 63q0 37 -176 41l184 557q0 3 1 7t1 6q0 19 -12 36t-24 17q-43 0 -70 -2t-50 -11t-34.5 -18t-24.5 -34.5t-20.5 -47.5t-21.5 -69q-1 -5 -2 -7.5 t-2.5 -7t-2.5 -8.5q-2 -5 -100 -420q-11 0 -203 -6l156 565q0 3 1 7t1 6q0 19 -12.5 36t-24.5 17q-31 0 -52.5 -1t-40.5 -5.5t-31 -8t-24 -15.5t-18 -20t-16 -30t-15 -36t-16 -48q-9 -26 -14 -41q-1 -1 -78 -434q-23 -1 -51 -2t-43 -1t-34 -1.5t-28 -3.5t-20 -7t-15 -11 t-9 -16t-6 -23t-1 -31q0 -41 57 -41q94 4 125 4l-31 -174l-147 -10q-49 -17 -49 -86zM387 647l49 166q135 6 207 6q-4 -17 -41 -172h-215z" />
<glyph unicode="$" horiz-adv-x="1069" d="M-70 182q0 -59 30 -106.5t78 -75.5t103 -42.5t111 -14.5q31 0 45 2l-8 -54q-10 -57 -10 -75q0 -29 28 -29q22 0 35 13.5t16.5 27.5t7.5 46t7 46l6 33q83 12 161 38.5t148.5 69.5t123 98t83.5 129t31 158q0 66 -24 124t-80 114t-92 85.5t-113 85.5q-15 12 -23 17l127 549 q5 0 16.5 1t18.5 1q209 0 209 -198q0 -24 -49 -55.5t-126.5 -68t-91.5 -44.5v-99q53 19 250 134t197 135q0 79 -33 138.5t-86 91t-109 46.5t-114 15q-27 0 -62 -5l47 197q0 21 -12 29t-22 8q-25 0 -39.5 -35.5t-36.5 -161.5l-8 -47q-95 -17 -182.5 -57t-159.5 -99.5 t-115 -143.5t-43 -179q0 -42 21.5 -86t64.5 -89.5t83.5 -81.5t100.5 -86q14 -11 21 -17q-97 -396 -146 -629q-38 1 -67 7.5t-48 15t-32 26t-19.5 30t-9.5 38t-3.5 38.5t-0.5 43q0 45 4 99l-43 -2q-69 -3 -117.5 -43t-48.5 -105zM387 1126q0 103 76 177.5t184 103.5 l-121 -483q-139 109 -139 202zM399 41l131 563q86 -74 132.5 -137t46.5 -125q0 -60 -27.5 -113t-73 -90t-99 -62t-110.5 -36z" />
<glyph unicode="%" horiz-adv-x="1401" d="M53 1149q0 -47 12 -95.5t36 -93.5t67.5 -73.5t99.5 -28.5q74 0 135 32.5t98.5 84.5t58 115.5t20.5 128.5q0 53 -12 102.5t-37.5 95.5t-72.5 73.5t-110 27.5q-59 0 -108.5 -23t-83.5 -60.5t-57.5 -86t-34.5 -99t-11 -100.5zM170 -117q0 -24 27 -24q18 0 36 12.5t35 35.5 t29.5 43t28 49t22.5 40l901 1474q6 21 6 33q0 13 -6 23t-14 10q-30 0 -51 -1t-41.5 -5.5t-32.5 -7.5t-27.5 -15t-23.5 -18.5t-24.5 -27.5t-24.5 -33.5t-30 -44.5t-36 -52q-271 -505 -702 -1325q-72 -118 -72 -166zM201 1085q0 39 9.5 88t28 100t52.5 85.5t76 34.5 q38 0 56.5 -38t18.5 -81q0 -54 -22 -122t-69 -123.5t-103 -55.5q-47 0 -47 112zM827 262q0 -46 12.5 -94.5t36.5 -93.5t67.5 -74t98.5 -29q61 0 112.5 21.5t87.5 57.5t62 83t38 98.5t12 104.5t-12 102.5t-37.5 95.5t-72.5 73.5t-110 27.5q-73 0 -131.5 -35t-93 -91 t-52.5 -120t-18 -127zM977 201q0 38 9.5 87t27.5 100.5t51.5 86.5t75.5 35q28 0 46.5 -22t24 -47.5t5.5 -53.5q0 -54 -22.5 -122t-69.5 -123.5t-103 -55.5q-45 0 -45 115z" />
<glyph unicode="&#x26;" horiz-adv-x="1442" d="M70 319q0 -106 60.5 -187t152.5 -121t196 -40q117 0 232 48.5t245 134.5q28 -56 41.5 -85.5t29 -80.5t15.5 -92q0 -73 -25 -134t-60.5 -98.5t-71.5 -66.5t-61 -51.5t-25 -39.5q0 -16 12 -32q122 0 237.5 92.5t182.5 224t67 250.5q0 65 -30 145t-72 142q83 51 170.5 163.5 t143 235.5t55.5 205q0 46 -43 43l-39 -2q-22 -17 -40 -117.5t-30 -122.5q-47 -86 -121 -176.5t-149 -138.5q-18 30 -65 104.5t-73.5 118t-65.5 117t-60 128t-37.5 121.5t-16.5 126q0 52 11 97t33.5 83t63.5 60t95 22q75 0 133 -49t58 -123q0 -23 -26 -46.5t-55 -38.5 t-69.5 -33t-50.5 -24q7 -33 29 -57q13 6 62.5 26t95 40t94.5 45.5t78.5 53t29.5 52.5q0 66 -33.5 120.5t-87 87.5t-116 51t-123.5 18q-110 0 -221 -59.5t-185 -161.5t-74 -214q0 -69 29 -178q-14 -9 -44 -26q-64 -38 -97.5 -58t-93 -60.5t-93 -70t-76.5 -75t-66 -88 t-39.5 -97t-16.5 -111.5zM342 475q0 55 22.5 104t66.5 90.5t85 70.5t102 65l293 -567q-73 -48 -128 -70.5t-117 -22.5q-130 0 -227 100t-97 230z" />
<glyph unicode="'" horiz-adv-x="524" d="M289 1315q0 -128 18 -232h56q5 14 23 74.5t38.5 125.5t40.5 120t20 84q0 30 -25 40.5t-104 10.5q-67 0 -67 -223z" />
<glyph unicode="(" horiz-adv-x="934" d="M49 541q0 -113 17.5 -211t54.5 -181t91.5 -141.5t132.5 -91.5t173 -33q64 0 144 17l4 77q-17 -2 -45 -2q-69 0 -125.5 24t-94.5 67t-65 96t-42 117.5t-21.5 125.5t-6.5 125q0 94 15 197t44.5 209.5t78.5 201.5t110.5 169.5t147 118.5t182.5 44q35 0 71 -6l5 103 q-68 10 -119 10q-147 0 -272.5 -64.5t-212 -170.5t-148.5 -242t-90.5 -278.5t-28.5 -280.5z" />
<glyph unicode=")" horiz-adv-x="932" d="M14 -106q61 -15 131 -15q142 0 265.5 66.5t209 174.5t146.5 245t90 279t29 276q0 113 -17.5 210.5t-54.5 180.5t-91.5 141.5t-133 91.5t-174.5 33q-59 0 -142 -16l-4 -78q17 2 45 2q82 0 146 -35t102.5 -90.5t63.5 -131t34 -148t9 -150.5q0 -94 -15 -197t-44.5 -209.5 t-78.5 -201.5t-110.5 -169.5t-147 -118.5t-182.5 -44q-35 0 -72 6z" />
<glyph unicode="*" horiz-adv-x="870" d="M35 1153q0 -55 284 -119q29 -7 43 -10q-27 -29 -96 -91t-106 -105t-37 -74q0 -25 31.5 -54.5t56.5 -29.5q35 0 105 119t104 198q13 -31 35 -75t54 -103.5t64 -100t52 -40.5q25 0 59.5 30.5t34.5 55.5q0 29 -39 72t-105 102.5t-96 93.5q39 10 96.5 21.5t98.5 19.5t81.5 19 t61.5 25.5t21 33.5q0 27 -24 69.5t-48 42.5q-26 0 -80.5 -31.5t-123 -77.5t-103.5 -63q86 258 86 328q0 10 -2 17.5t-7 13t-9 9.5t-13 6.5t-13.5 4t-16 2t-15.5 0.5h-16.5h-14.5q-32 0 -43.5 -28t-11.5 -82q0 -29 5 -102.5t5 -112.5q0 -8 -1 -22t-1 -21q-4 3 -48 33 t-87.5 59.5t-89 54.5t-62.5 25q-25 0 -47 -42.5t-22 -70.5z" />
<glyph unicode="+" horiz-adv-x="1120" d="M160 428q0 -29 49 -29l244 13l-62 -258q-4 -8 -4 -25q0 -33 33 -33q43 0 67.5 15.5t28.5 33.5l68 273h78q21 0 66.5 -1t70.5 -1q37 0 79 35.5t42 64.5q0 37 -201 37q-68 0 -101 -2l21 80q23 97 23 155q0 54 -21 54q-29 0 -63 -12.5t-37 -26.5q-7 -35 -22 -101t-21 -98 l-15 -55q-175 -8 -254 -21q-8 -2 -18 -7.5t-22.5 -16t-20.5 -30t-8 -44.5z" />
<glyph unicode="," horiz-adv-x="483" d="M113 49q0 -34 19 -56t58 -22q-11 -48 -26.5 -102t-25.5 -83l-11 -30l57 -20q1 1 29 47.5t46.5 79.5t44 81t39 85.5t13.5 60.5q0 57 -24 87t-80 30q-57 0 -98 -51.5t-41 -106.5z" />
<glyph unicode="-" horiz-adv-x="862" d="M156 639q0 -41 57 -41q227 18 305 18q21 0 66.5 -1t70.5 -1q38 0 69.5 33.5t31.5 63.5q0 41 -209 41q-50 0 -181 -10.5t-161 -16.5q-49 -14 -49 -86z" />
<glyph unicode="." horiz-adv-x="422" d="M78 49q0 -34 19.5 -56t60.5 -22q66 0 118 51.5t52 106.5q0 34 -27.5 56t-83.5 22q-57 0 -98 -51.5t-41 -106.5z" />
<glyph unicode="/" horiz-adv-x="1014" d="M6 -193q0 -30 23 -30q40 0 70.5 12t50 35t31 42.5t24 49.5t18.5 41l778 1556q7 16 7 33q0 13 -6.5 23t-14.5 10q-91 0 -130.5 -39.5t-78.5 -165.5q-4 -15 -159.5 -314t-328.5 -641.5t-214 -451.5q-4 -11 -37 -68.5t-33 -91.5z" />
<glyph unicode="0" horiz-adv-x="1210" d="M82 496q4 -69 15.5 -135.5t38 -139t64.5 -126.5t99.5 -89t138.5 -35q120 0 224.5 50t180 135t134 193.5t92 228.5t48.5 237.5t9 222.5q-4 77 -19.5 144.5t-46 130.5t-74.5 107.5t-110.5 71t-148.5 26.5q-90 0 -173 -37.5t-148.5 -101.5t-121 -148t-94.5 -179t-65 -193 t-37 -191t-6 -172zM254 332q-12 252 95 508t292 407q33 25 54.5 39t55 27.5t64.5 13.5q44 0 75.5 -22t47.5 -59t23.5 -73.5t9.5 -76.5q4 -73 -14.5 -172t-54.5 -204.5t-91 -209t-119.5 -185t-145.5 -132t-163 -50.5q-120 0 -129 189z" />
<glyph unicode="1" horiz-adv-x="709" d="M23 1124q0 -29 26 -39q39 0 153 77.5t206 150.5q-2 -3 -142 -549q-16 -61 -47 -173.5t-55 -205t-41 -174.5q-27 -119 -27 -166q0 -45 27 -45h203q46 0 67 206q1 3 1 5t0.5 5t0.5 5l277 1231q2 10 2 29q0 37 -25 37q-13 0 -28 -9q-86 -43 -183.5 -99.5t-165 -98.5 t-188.5 -119q-61 -38 -61 -68z" />
<glyph unicode="2" horiz-adv-x="1149" d="M57 12q0 -21 22 -31t48 -10q71 0 212.5 13.5t211.5 13.5q49 0 143.5 -13.5t145.5 -13.5q36 0 65 64.5t29 109.5q0 68 -148 68q-88 0 -259.5 -36.5t-192.5 -39.5q3 2 12 9q33 25 58 43.5t83.5 66t105 89t111 105t114 121.5t102 131t87 141.5t56.5 145t22 148.5 q0 22 -3.5 48.5t-16 64.5t-31.5 73.5t-53.5 71.5t-79.5 62.5t-112 43.5t-148 17q-100 0 -188 -34.5t-154.5 -98.5t-105.5 -162t-39 -217q0 -23 127 -112t157 -89q25 0 37 15t12 32q0 21 -14 36.5t-33.5 25t-47.5 32t-50 53.5q0 101 33.5 182.5t85.5 129.5t108 73t107 25 q94 0 136 -69.5t42 -215.5q0 -75 -21.5 -152.5t-55 -144.5t-87 -140.5t-103.5 -131t-118.5 -126t-119.5 -115l-119 -108.5t-105 -97q-68 -63 -68 -97z" />
<glyph unicode="3" horiz-adv-x="1188" d="M49 238q0 -64 39.5 -117.5t100 -84.5t125.5 -48t124 -17q105 0 209.5 38t188 103t136 162t52.5 205q0 101 -65.5 188.5t-170.5 116.5q137 58 237.5 172.5t100.5 257.5q0 72 -23 126t-61 87.5t-93.5 54t-113.5 28.5t-128 8q-116 0 -224 -54.5t-173.5 -139.5t-65.5 -173 q0 -19 116.5 -96.5t143.5 -77.5q17 0 27 16.5t12 36.5q-12 12 -40 36t-49 44t-30 35q0 50 57.5 119.5t131 118.5t118.5 49q86 0 128 -52.5t42 -138.5q0 -87 -39 -180.5t-109.5 -163.5t-150.5 -80q-10 -1 -29 -1t-31.5 -1.5t-26 -6.5t-20 -18t-6.5 -34q0 -34 15.5 -46 t44.5 -12q7 0 21.5 1t21.5 1q95 0 140.5 -57t45.5 -149q0 -93 -41.5 -189t-118 -162.5t-165.5 -66.5q-48 0 -80 23t-45.5 58t-25 75.5t-19 75.5t-27.5 58t-51 23q-65 0 -110.5 -43.5t-45.5 -107.5z" />
<glyph unicode="4" horiz-adv-x="1264" d="M20 397q0 -40 26 -64.5t47.5 -30t35.5 -5.5q56 0 137 43q155 -29 283 -49q-34 -87 -100 -271l6 -20h153q14 0 28.5 24t21.5 48l8 24l71 176q23 -2 64 -2q64 0 109 9.5t83.5 32.5t66.5 46.5t81 68t104 81.5l-49 86q-47 -39 -110.5 -79t-77.5 -44q-78 -43 -209 -43 q136 337 153 410h-92q-87 0 -104 -27q-86 -208 -148 -367q-105 19 -205 50q344 734 463 1005q-11 19 -47 19q-43 0 -75 -5t-57 -13t-46 -28t-36 -38.5t-32.5 -58t-30 -72.5t-34.5 -95l-293 -680l-111 -39q-24 -8 -33.5 -12.5t-24.5 -15t-20.5 -26t-5.5 -38.5z" />
<glyph unicode="5" horiz-adv-x="1327" d="M225 219q0 -55 28 -100t69.5 -71.5t92 -44.5t92 -25t73.5 -7q122 0 241.5 48.5t211.5 130t149 196.5t57 240q0 157 -103.5 258.5t-261.5 101.5q-129 0 -274 -80q8 33 34 111t61 180t50 150q24 0 45.5 -8.5t49.5 -26t39 -23.5q94 -47 270 -47q112 0 143.5 19t77.5 105 l4.5 7.5t3.5 6.5l4 8q35 61 39 102l-57 18q-170 -20 -297 -20q-124 0 -381 25h-6q-10 0 -27 -15q-13 -14 -102.5 -350t-116.5 -449q11 -22 41 -26q114 131 232 131q122 0 210.5 -81t88.5 -179q0 -53 -11 -108t-39 -114t-70.5 -104t-111.5 -74.5t-156 -29.5q-64 0 -110 28 t-67.5 73.5t-30.5 89t-9 89.5q-77 0 -126.5 -46.5t-49.5 -88.5z" />
<glyph unicode="6" horiz-adv-x="1094" d="M68 426q-7 -90 8 -169.5t53.5 -144.5t108.5 -103t165 -38q116 0 227 53.5t192 140t133.5 197.5t60.5 224q13 170 -73 243.5t-259 73.5q-63 0 -99.5 -18t-64.5 -72q72 0 106.5 -2t76.5 -13.5t58 -36t25.5 -68.5t4.5 -111q-3 -57 -38 -141t-86 -162.5t-118 -134.5t-127 -56 q-34 0 -60.5 7.5t-44 18.5t-30 29t-18.5 34t-10 39.5t-4.5 39.5t-0.5 39q0 97 25 199t61 188t98 185t112.5 168.5t129.5 161t124 140t120 125.5h-156q-52 0 -103.5 -42.5t-134.5 -143.5q-76 -93 -124.5 -155t-115.5 -159t-107.5 -175t-73.5 -174.5t-41 -186.5z" />
<glyph unicode="7" horiz-adv-x="1022" d="M80 1176q0 -27 45 -35t172 -8q99 0 248 24.5t225 67.5q-264 -385 -357 -537q-217 -357 -286 -637q-7 -26 -12 -51h229q-1 0 10 24.5t26.5 60t22.5 54.5q70 189 176.5 400t231 439t193.5 376q4 12 4 16q0 21 -21 37t-31 16q-80 0 -206.5 -12t-202.5 -12q-144 0 -332 22 q-10 0 -20.5 -9t-19.5 -26t-15 -30.5t-13.5 -33.5t-9.5 -24q-4 -7 -13 -23.5t-12.5 -23t-10.5 -18.5t-9.5 -18t-6 -14.5t-4.5 -14t-1 -10.5z" />
<glyph unicode="8" horiz-adv-x="1286" d="M53 262q0 -81 29.5 -143.5t80.5 -100t115 -56.5t138 -19q79 0 164 18.5t167 57t147 91.5t104.5 128t39.5 161q0 52 -15.5 102t-35.5 87t-58.5 81.5t-66 71t-76.5 70.5q57 47 121.5 91t108 68.5t118.5 65.5t109 60l-33 47q-62 -3 -159.5 -46.5t-230 -119t-146.5 -82.5 q-174 95 -174 233q0 103 93.5 180.5t225.5 77.5q38 0 74.5 -12t61.5 -29t44 -34t28 -29l9 -12q38 0 75.5 53.5t37.5 106.5q0 25 -28.5 44t-71 27.5t-77.5 12.5t-61 4q-131 0 -257 -45t-221 -119t-153.5 -176t-58.5 -211q0 -130 168 -275q-4 -11 -40.5 -38t-85 -65t-96.5 -85 t-81 -111t-33 -131zM272 215q0 190 236 375q104 -52 176 -129.5t72 -163.5q0 -111 -91.5 -183.5t-203.5 -72.5q-89 0 -139 49.5t-50 124.5z" />
<glyph unicode="9" horiz-adv-x="1094" d="M43 895q0 -164 109.5 -260t271.5 -96q21 0 35.5 1.5t34 8t32 18t23.5 33.5t14 53q-24 -2 -67 -2q-111 0 -164 63t-53 165q0 82 32.5 175t84 170t123 128t143.5 51q49 0 83 -21t50.5 -57t23 -72t6.5 -79q0 -283 -194 -619t-496 -557l70 -30q86 0 184 50.5t188.5 135 t175 200t147 240.5t99.5 262t37 259q0 189 -104.5 295t-290.5 106q-122 0 -234.5 -53.5t-191 -140t-125.5 -199.5t-47 -228z" />
<glyph unicode=":" horiz-adv-x="422" d="M78 49q0 -34 19.5 -56t60.5 -22q66 0 118 51.5t52 106.5q0 34 -27.5 56t-83.5 22q-57 0 -98 -51.5t-41 -106.5zM78 807q0 -34 19.5 -56t60.5 -22q66 0 118 51.5t52 106.5q0 34 -27.5 56t-83.5 22q-57 0 -98 -52t-41 -106z" />
<glyph unicode=";" horiz-adv-x="483" d="M113 49q0 -34 19 -56t58 -22q-11 -48 -26.5 -102t-25.5 -83l-11 -30l57 -20q1 1 29 47.5t46.5 79.5t44 81t39 85.5t13.5 60.5q0 57 -24 87t-80 30q-57 0 -98 -51.5t-41 -106.5zM162 807q0 -34 19.5 -56t60.5 -22q66 0 118 51.5t52 106.5q0 34 -27.5 56t-83.5 22 q-57 0 -98 -52t-41 -106z" />
<glyph unicode="&#x3c;" horiz-adv-x="1544" d="M723 618q0 -41 47 -114q21 -34 60.5 -101.5t63.5 -105.5t62 -97.5t69.5 -100.5t72 -89t84.5 -88t92 -74q22 -16 67 -16q38 0 64.5 14t26.5 41q0 26 -30.5 70t-76 94.5t-119 146.5t-139.5 199l-174 252q202 220 317 369q51 65 115 119t108.5 81t75.5 53.5t31 47.5 q0 27 -26.5 41t-63.5 14q-38 0 -68 -16q-22 -13 -38.5 -24.5t-40.5 -34.5t-43 -43t-62.5 -68t-81.5 -92t-116 -132.5t-152 -172.5q-18 -20 -43 -47t-36.5 -40t-24 -29.5t-17 -29.5t-4.5 -27z" />
<glyph unicode="=" horiz-adv-x="1120" d="M168 414q0 -41 57 -41q328 18 449 18q21 0 66.5 -1t70.5 -1q37 0 68.5 33t31.5 63q0 41 -209 41q-143 0 -296.5 -9.5t-188.5 -16.5q-49 -15 -49 -86zM209 639q0 -41 57 -41q328 18 449 18q21 0 66.5 -1t70.5 -1q37 0 68.5 33.5t31.5 63.5q0 41 -209 41q-143 0 -296 -10 t-189 -17q-49 -15 -49 -86z" />
<glyph unicode="&#x3e;" horiz-adv-x="1544" d="M655 -125q0 -43 78 -43q45 0 72 16q65 40 131 92t113.5 95t115 116.5t99.5 110.5t106 125.5t98 116.5q76 86 76 131q0 22 -39 83.5t-101.5 156.5t-98.5 163q-135 217 -173 264q-49 60 -98 69q-15 3 -35 3q-41 0 -72.5 -16t-31.5 -47q0 -20 27 -46t64 -52.5t85 -79.5 t82 -115q79 -148 227 -369l-235 -252q-117 -134 -248 -256.5t-186.5 -177.5t-55.5 -88z" />
<glyph unicode="?" horiz-adv-x="999" d="M37 1227q0 -92 119 -97l43 -2q4 12 12.5 42.5t14 46t15.5 43.5t21 44t27 38t36 34.5t45.5 25t59 18t72.5 5.5q68 0 130.5 -24.5t106 -76t43.5 -118.5q0 -53 -29 -106.5t-75 -101t-102 -96t-112 -99t-102 -102t-75 -113t-29 -123.5q0 -20 21 -30.5t55 -10.5q19 0 38 18.5 t29 55.5q6 46 40.5 89t85 78t110.5 71.5t119 78.5t107 89.5t78 114.5t30 144q0 85 -43.5 154.5t-116 112t-162.5 65.5t-188 23q-77 0 -157 -24t-153.5 -81t-103.5 -135q-10 -22 -10 -51zM205 49q0 -34 19.5 -56t60.5 -22q66 0 118 51.5t52 106.5q0 34 -27.5 56t-83.5 22 q-57 0 -98 -51.5t-41 -106.5z" />
<glyph unicode="@" horiz-adv-x="1587" d="M55 334q0 -135 41 -245t110 -183.5t163 -123.5t196.5 -72.5t214.5 -22.5q321 0 570 114l-60 123q-281 -114 -536 -114q-248 0 -399.5 144t-151.5 398q0 140 67.5 267t174 212.5t237 136t256.5 50.5q95 0 176 -29.5t145.5 -88.5t101 -158.5t36.5 -229.5q0 -88 -25 -169.5 t-63.5 -136.5t-82 -87.5t-81.5 -32.5q-80 0 -80 115q0 38 8 80q7 38 57.5 273t53.5 253q-106 33 -168 33q-130 0 -253.5 -55t-212 -142t-142.5 -198t-54 -220q0 -130 61 -193t154 -63q104 0 202.5 67t127.5 163q0 -89 67 -144t171 -55q92 0 168 48t123 124.5t72.5 165 t25.5 176.5q0 129 -31 234.5t-84 177t-127.5 120.5t-158.5 71t-179 22q-125 0 -253 -37.5t-241.5 -109.5t-203 -168.5t-141.5 -224t-52 -265.5zM567 281q0 105 59 217t160 189t209 77l-114 -492q-43 -80 -98 -126t-105 -46t-80.5 46t-30.5 135z" />
<glyph unicode="A" horiz-adv-x="1391" d="M80 328q0 -192 82 -288.5t260 -96.5q105 0 235 69t238 181q-4 -29 -4 -58q0 -19 2 -37q4 -46 15.5 -80t40.5 -54.5t73 -20.5q32 0 64.5 9.5t67.5 32.5t64 45.5t70 63t68.5 69.5t77 82.5t79.5 84.5v112q-211 -205 -253 -238q-44 -35 -81 -38h-22t-23 7.5t-12 24.5t-3.5 34 t3.5 46.5t8 50.5t11 56q117 609 202 838q3 4 3 16q0 19 -6 26t-21 7q-188 0 -207 -62q-24 -72 -98.5 -392t-98.5 -441q-17 -95 -109 -168.5t-181 -73.5q-134 0 -210.5 84.5t-76.5 243.5q0 104 43 220t113.5 220t165 200t195 165.5t205 111t193.5 41.5q233 0 291 -270 q45 12 108.5 70t63.5 100q0 52 -47.5 93t-116.5 62t-131.5 31.5t-107.5 10.5q-141 0 -291.5 -49t-285.5 -133t-256 -200.5t-209 -246.5t-139.5 -276.5t-51.5 -284.5z" />
<glyph unicode="B" horiz-adv-x="1667" d="M14 172q0 -56 27.5 -102t71 -72.5t92.5 -40.5t96 -14q104 0 191.5 46t181.5 167q64 -108 165.5 -160.5t254.5 -52.5q99 0 185 24t153 70.5t106 121t39 169.5q0 131 -94.5 264t-286.5 231q80 1 143.5 23t101 55t62.5 75t34 79t9 71q0 80 -30.5 146t-83 111t-125 76 t-155.5 45t-175 14q-163 0 -315 -38.5t-269.5 -106.5t-188.5 -169t-71 -217q0 -59 27 -113t72.5 -93.5t96 -67.5t105.5 -45q23 77 23 166q-162 57 -162 170q0 68 39.5 131t103.5 108t143 79.5t160 51.5t152 17q475 0 475 -285q0 -99 -86.5 -163t-222.5 -71v-116 q103 -57 168 -174.5t65 -235.5q0 -112 -65.5 -190t-196.5 -78q-96 0 -181 54t-114 134q20 53 46.5 160t46.5 203.5t36.5 177.5t16.5 82q16 58 33 148t26 151l8 61q-220 0 -229 -57l-107 -567q-41 -216 -71 -311q-85 -273 -222 -273q-30 0 -51.5 11t-32.5 26.5t-17 41 t-7.5 45t-1.5 48.5q0 19 1 50t1 40q-197 0 -197 -131z" />
<glyph unicode="C" horiz-adv-x="1268" d="M82 561q0 -95 20 -183t62.5 -167.5t104 -139t151 -94t196.5 -34.5q367 0 787 397v111q-165 -159 -339 -242.5t-329 -83.5q-197 0 -317.5 136.5t-120.5 397.5q0 103 28.5 209.5t84 202.5t130.5 172t175.5 123t210.5 51q27 0 51 -15t40.5 -38.5t30.5 -52t22.5 -57t14 -52 t8.5 -38.5l3 -15q0 -35 -55.5 -74t-122 -68t-122 -63.5t-55.5 -62.5q0 -17 9.5 -29t25.5 -12q11 0 23 6q73 34 249.5 131.5t229.5 124.5q37 18 37 76q0 134 -105 237t-254 103q-124 0 -236 -32t-199 -88t-160 -131.5t-124 -162t-86.5 -180t-52 -185.5t-16.5 -178z" />
<glyph unicode="D" horiz-adv-x="1726" d="M-53 184q0 -88 74.5 -163.5t181.5 -75.5q123 0 213 38t168 150q138 -190 366 -190q154 0 290.5 70.5t233 189.5t153 282.5t56.5 343.5q0 96 -25.5 191t-82.5 185.5t-138 159.5t-201.5 111t-264.5 42q-181 0 -333 -30.5t-255.5 -81.5t-176 -118.5t-105.5 -140t-33 -146.5 q0 -107 75 -194.5t224 -134.5q8 15 17 65.5t9 96.5q-164 63 -164 180q0 85 89.5 174t233 147t288.5 58q122 0 220.5 -34t165.5 -93t112.5 -141t66 -175t20.5 -198q0 -152 -42 -284t-110.5 -220t-155 -138.5t-175.5 -50.5q-90 0 -174 58.5t-113 146.5q61 126 102.5 267 t57 236t36.5 250.5t34 229.5h-94q-116 0 -129 -39l-119 -614q-72 -299 -146 -451q-22 -49 -58 -75.5t-75 -26.5q-68 0 -93.5 49t-25.5 131q0 20 3.5 54.5t3.5 50.5q-205 0 -205 -142z" />
<glyph unicode="E" horiz-adv-x="1403" d="M-8 43q0 -30 14.5 -52t35 -31.5t35 -13t23.5 -3.5q66 0 158.5 47t183.5 119q88 -27 160.5 -50.5t116 -40t76.5 -30t49 -21.5t26 -14t14.5 -8t8.5 -2q43 0 85 8.5t75.5 19.5t76.5 36.5t71 44t76 58.5t74.5 63t84.5 75.5t88 79.5v110q-94 -98 -214.5 -193.5t-146.5 -99.5 q-51 -26 -84 -26q-28 0 -108 26.5t-166.5 59.5t-93.5 35q-13 -2 -37 -2q-11 0 -30 1t-28 1q-5 0 -16 -1t-16 -1q139 232 190 419v2q139 11 434 11q38 0 69.5 33t31.5 63q0 33 -37 33q-40 0 -112 3t-107 3q-114 0 -244 -10q37 118 91.5 324.5t62.5 236.5q61 -3 195.5 -24 t197.5 -21q42 0 94 35l100 114q19 19 19 31q0 27 -621 27h-291q-303 0 -479 -109.5t-176 -288.5q0 -84 80.5 -162.5t234.5 -132.5q11 9 20 50.5t9 76.5q-94 35 -145 85t-51 106q0 105 117.5 165t367.5 60q106 0 207 -8q-25 -17 -46.5 -37.5t-39 -39t-35 -48t-29.5 -49.5 t-27 -59t-23 -60.5t-23 -70t-21.5 -71.5t-23 -81t-23.5 -84q-131 -26 -225 -58q-13 -5 -19 -7.5t-15.5 -9.5t-13.5 -19t-4 -29q0 -23 20 -32.5t52.5 -6.5t63 9t63 14.5t41.5 9.5q-87 -314 -113 -352l-256 -117q-6 -3 -31.5 -14t-42 -19.5t-37 -22t-31.5 -29.5t-11 -34z" />
<glyph unicode="F" horiz-adv-x="1313" d="M-18 49q0 -38 17 -77t48.5 -73.5t85 -56.5t119.5 -22q79 0 146.5 20.5t120.5 56t98 93t79 122t64.5 152.5t53.5 175.5t46 199.5q113 10 348 10q38 0 69.5 40t31.5 77q0 33 -37 33q-117 6 -219 6q-77 0 -162 -10q9 48 43 239t55 301q45 -3 120.5 -11.5t138 -13.5t120.5 -5 l141 211q-44 0 -135 1t-141 1q-262 0 -420 -11q-344 -29 -547 -166.5t-203 -324.5q0 -103 78.5 -196t237.5 -158q9 12 19 68.5t10 98.5q-160 71 -160 193q0 55 50.5 112.5t132.5 103t194.5 74.5t228.5 29q7 0 22.5 -1t22.5 -1q-62 -39 -115 -118q-6 -10 -12 -24.5t-13 -35.5 t-13 -40.5t-13.5 -50.5t-13.5 -54t-15 -62t-14.5 -63.5t-16 -70t-16.5 -70.5q-76 -24 -127 -48q-14 -5 -23.5 -11.5t-18.5 -25.5t-9 -49q0 -20 13.5 -31t26.5 -10.5t18 0.5l86 25q-35 -144 -67 -252t-74 -213t-90 -161t-99 -56q-61 4 -85 43t-24 109q0 75 11 135 q-213 0 -213 -156z" />
<glyph unicode="G" horiz-adv-x="1458" d="M-117 356q0 -20 8 -38.5t21 -18.5q5 0 16 4.5t28.5 14t32.5 18.5t41 24t40 23l120 70q126 -336 361 -336q105 0 253 77t251 177l-17 -86q-5 -38 -18.5 -98t-23.5 -101l-11 -41l-457 -133q-40 -10 -61 -48t-21 -85q0 -70 48 -128.5t115.5 -88t133.5 -29.5 q149 0 258.5 116.5t155.5 340.5q60 24 201.5 137.5t224.5 202.5v110q-109 -107 -218.5 -198.5t-176.5 -122.5l119 502h-199q-5 -27 -24 -102.5t-23 -84.5q-176 -141 -332 -141q-102 0 -180 88t-105 205l830 434l63 29q59 25 74 38q33 29 33 101q0 58 -29 117t-77 106 t-118.5 77t-146.5 30q-187 0 -356 -79t-287.5 -210t-188 -306.5t-69.5 -363.5q-2 -8 -53.5 -38t-122.5 -67.5t-92 -50.5q-21 -8 -21 -47zM426 678q0 104 30 212t87 204t131.5 171.5t170.5 120t197 44.5q66 0 127.5 -96.5t61.5 -203.5q0 -30 -18 -49.5t-74 -44.5 q-13 -5 -56 -27t-114 -58.5t-125 -63.5zM621 -242q0 39 35.5 66t79.5 39t112 29.5t106 33.5q-6 -35 -19.5 -82t-36.5 -108.5t-58 -102.5t-74 -41q-67 0 -106 51t-39 115z" />
<glyph unicode="H" horiz-adv-x="1870" d="M4 1149q0 -60 29.5 -114t79 -95t101 -70t108.5 -51q30 39 30 135q-192 82 -192 187q0 53 48.5 92.5t121 58.5t134.5 27t111 8q86 0 234.5 -28t202.5 -33q-63 -33 -108.5 -80t-76.5 -112.5t-49.5 -127t-38.5 -153.5l-4 -19q-148 -22 -252 -47q-14 -5 -23.5 -11.5 t-18.5 -25.5t-9 -49q0 -41 57 -41l213 31q-3 -14 -8 -42q-47 -238 -91 -343q-79 -193 -210 -193q-33 0 -55 18t-31.5 51.5t-12.5 63.5t-3 70v59q-49 0 -85.5 -4t-73.5 -16t-57 -37t-20 -63q0 -34 19 -75t55.5 -81t103.5 -67t150 -27q258 0 395 252q65 119 128 361 q4 14 10 39q11 41 16 60q157 15 274 23q-45 -184 -45 -389q0 -179 56.5 -262.5t150.5 -83.5q134 0 305.5 109.5t319.5 273.5l2 114q-91 -96 -176 -170t-181 -128t-168 -54q-69 0 -110 78t-41 246q0 126 43 274q132 6 270 6q38 0 69.5 33.5t31.5 63.5q0 13 -9.5 22.5 t-27.5 9.5q-114 6 -219 6h-74q31 71 65 135.5t84 137.5t101.5 125t117 86.5t132.5 34.5q105 0 151 -156l8 -21q37 2 105.5 67.5t68.5 102.5q0 53 -54 95.5t-118 61t-114 18.5q-93 0 -185 -41t-168 -109t-144 -159t-119 -187t-89 -197q-153 -6 -278 -18q2 7 17.5 50.5 t19 52.5t17.5 48t19.5 51.5t19 46.5t22 50t22.5 45t25.5 48t26.5 43t30 46q46 29 76.5 84.5t40.5 118.5q-33 -2 -106 -23.5t-118 -21.5q-95 0 -278 36t-279 36q-69 0 -139 -12.5t-138.5 -41.5t-121.5 -70.5t-86 -104t-33 -138.5z" />
<glyph unicode="I" horiz-adv-x="1061" d="M207 172q0 -56 27.5 -102t71 -72.5t92.5 -40.5t96 -14q81 0 149 25.5t115.5 60.5t89 100t65.5 115.5t48.5 136t35 133t27.5 133.5l33 146q67 303 192 518q62 21 101 82.5t51 136.5q-33 -2 -105.5 -23.5t-117.5 -21.5q-109 0 -211.5 -21t-182 -56.5t-149 -81.5t-119 -96.5 t-85 -101t-52.5 -95t-17 -79.5q0 -32 15 -63t50 -62.5t86.5 -56.5t130 -44t175.5 -26l-14 -77q-42 -231 -80 -340q-83 -244 -213 -244q-30 0 -51.5 11t-32.5 26.5t-17.5 41t-8 45.5t-1.5 48q0 19 1 50t1 40q-196 0 -196 -131zM526 950q0 21 20.5 60.5t69.5 90.5t117 95.5 t177 75.5t235 31q-116 -64 -181 -178.5t-110 -282.5q-165 9 -246.5 37.5t-81.5 70.5z" />
<glyph unicode="J" horiz-adv-x="1077" d="M39 -184q0 -69 46.5 -127t113 -87.5t131.5 -29.5q143 0 249 112t152 326q88 32 245 132t234 192v112q-88 -86 -160 -138t-171.5 -106t-124.5 -69l118 567q143 12 273 48q31 34 31 114q-142 -22 -275 -22q67 288 172 471q62 21 101 82.5t51 136.5q-33 -2 -106 -23.5 t-118 -21.5q-83 0 -162 -12.5t-145 -34t-128 -51t-110 -63.5t-91.5 -72t-72.5 -76t-54 -75.5t-35 -70.5t-15 -61t5 -47q11 -39 42.5 -74.5t86.5 -67t146 -53t208 -27.5v-2q-8 -40 -62.5 -276.5t-72.5 -347.5l-418 -113q-42 -11 -63 -53.5t-21 -91.5zM221 -205q0 28 18 48 t52.5 32t69.5 19.5t83 18t80 21.5q-10 -45 -22.5 -86.5t-33.5 -92t-51 -81t-65 -30.5q-62 0 -96.5 46t-34.5 105zM350 950q0 21 20.5 60.5t69.5 90.5t117 95.5t177 75.5t235 31q-103 -64 -163 -181t-99 -282q-180 7 -268.5 36.5t-88.5 73.5z" />
<glyph unicode="K" horiz-adv-x="1888" d="M0 1149q0 -60 29.5 -114t79 -95t100.5 -70t108 -51q31 38 31 135q-192 80 -192 187q0 53 48.5 92.5t121 58.5t134.5 27t111 8q84 0 229 -28t187 -33q-63 -33 -108.5 -79.5t-76 -112.5t-49 -127t-38.5 -154l-21 -95q-7 -30 -20 -95t-24.5 -118t-29.5 -120.5t-40.5 -119 t-52 -97.5t-70 -70.5t-88.5 -24.5q-34 0 -56 18t-31.5 51.5t-12.5 63t-3 70.5v59q-49 0 -85.5 -4t-73 -16t-56.5 -37t-20 -63q0 -34 19 -75t55.5 -81t103 -67t149.5 -27q73 0 135.5 21.5t108 52.5t86.5 89t66.5 106t54 130t43.5 135t39 146l194 94l199 -449 q83 -172 152 -247.5t137 -75.5q93 0 436 377v112q-165 -165 -242.5 -235t-119.5 -84q-18 -6 -35 1.5t-39 39.5t-35.5 56t-46.5 87q-31 59 -49 92l-209 410q53 48 108 114.5t94.5 123t89 115t95.5 99.5t108.5 67t133.5 26q105 0 151 -156l8 -21q37 2 105.5 67.5t68.5 102.5 q0 43 -33 76.5t-77.5 51.5t-96 30t-83 15.5t-43.5 3.5q-80 0 -160.5 -33.5t-147.5 -85t-149 -134.5t-148 -160t-162.5 -185.5t-174.5 -188.5l18 62q46 155 96.5 272.5t126.5 220.5q47 29 77 84.5t40 118.5q-33 -2 -105.5 -23.5t-117.5 -21.5q-93 0 -269 36t-268 36 q-69 0 -139 -12.5t-138.5 -41.5t-121.5 -70.5t-86 -104t-33 -138.5z" />
<glyph unicode="L" horiz-adv-x="1255" d="M-147 72q0 -30 14.5 -52t35 -31.5t35 -13.5t23.5 -4q70 0 168.5 41.5t194.5 104.5q84 -30 152.5 -56.5t110 -43.5t73 -31t46.5 -21.5t25 -13t14.5 -7t8.5 -1.5q67 0 139 24.5t128.5 57.5t128 91.5t115 100t111.5 109.5v112q-83 -87 -155.5 -150.5t-117 -95t-82.5 -49.5 t-53 -21t-28 -3q-30 0 -115 26.5t-176 59.5t-98 35q-16 4 -42.5 13t-39.5 13q134 314 233 801q10 45 61.5 125.5t120.5 149.5t117 75q38 0 69 -28t48.5 -67.5t29.5 -79t18 -67.5l5 -28q-1 -35 -57 -74t-121.5 -67.5t-120.5 -63t-55 -61.5q0 -17 9.5 -29t25.5 -12q10 0 22 6 q74 34 251.5 132t228.5 124q37 18 37 76q0 130 -104.5 235t-233.5 105q-44 0 -140.5 -51t-163.5 -96t-116 -81q-5 -4 -25.5 -18.5t-25.5 -18.5t-20.5 -17t-21 -20.5t-15 -21t-15 -27t-10.5 -30.5l-232 -828l-262 -119q-5 -2 -31.5 -13t-42 -19.5t-37 -22t-32 -29.5 t-10.5 -34z" />
<glyph unicode="M" horiz-adv-x="1712" d="M-412 -123q0 -137 47 -137q79 0 182 69t182 157t122 165l479 997h14l-28 -1087q0 -17 12.5 -34t40.5 -25q49 26 664 1237q4 12 18 12q10 0 10 -17q0 -9 -15.5 -82t-19.5 -106q-6 -32 -35.5 -194t-44 -250t-30 -216.5t-15.5 -211.5q0 -209 113 -209q159 0 549 379v114 q-303 -297 -375 -297q-47 0 -47 97q0 109 36 350.5t66.5 407.5t91.5 480q4 22 6.5 34.5t6 31t6.5 33.5q-1 1 -3 1.5t-3.5 1t-1.5 1.5q-57 -2 -161.5 -53.5t-131.5 -95.5l2 2q-160 -325 -271 -541.5t-150.5 -291.5t-57.5 -114h-15q6 100 17.5 333.5t24.5 405.5t34 330 q-12 6 -12 7q-87 0 -166.5 -47.5t-120.5 -122.5q-69 -147 -273.5 -575t-285.5 -603q-30 -53 -78.5 -94.5t-98.5 -64t-102 -44t-91.5 -37t-65 -40t-25.5 -56.5z" />
<glyph unicode="N" horiz-adv-x="1473" d="M-2 1126q0 -51 27 -51l30 10l322 228l-82 -318q-31 -138 -93.5 -364t-99 -382t-36.5 -249h206q8 32 42 196t57 246q51 181 143 345.5t226.5 303t292.5 218.5q18 9 33 9q21 0 33 -17t12 -44t-11 -55q-67 -211 -102 -454.5t-35 -485.5q0 -319 137 -319q15 0 34 5.5t42 19 t42.5 25t47.5 33.5t44.5 34.5t46 39t39 35t36.5 33.5l28 25q11 10 68.5 68.5t66.5 68.5l2 110l-256 -245q-47 -48 -84 -48q-69 0 -69 199q0 137 41.5 387.5t83 456t41.5 233.5q0 93 -84 93q-23 0 -46 -2t-66 -13t-86 -29t-104 -54t-123 -84.5t-139.5 -124t-156.5 -169.5 l16 82q0 12 39 164.5t39 210.5q0 19 -20 19q-49 0 -170 -78l-430 -271q-25 -17 -25 -41z" />
<glyph unicode="O" horiz-adv-x="1653" d="M100 664q0 -149 33 -270.5t90 -204t135.5 -139t168 -82t188.5 -25.5q167 0 332 68.5t298.5 199.5t194.5 299q178 35 313 141v92q-143 -85 -280 -106q12 61 12 131q0 116 -32 208.5t-85.5 148.5t-117.5 85t-133 29q-177 0 -268 -90t-91 -223q0 -105 43.5 -188.5 t117 -135.5t166.5 -79t197 -27h13q-80 -149 -222 -242.5t-331 -93.5q-81 0 -155 22t-140 68.5t-114.5 114.5t-76.5 166.5t-28 216.5q0 89 31.5 182.5t93.5 179t146.5 153t199 108t241.5 40.5q52 0 99 -8l4 102q-76 13 -137 13q-163 0 -310 -51.5t-253.5 -137.5t-185 -196 t-118 -231t-39.5 -238zM1030 999q0 59 39.5 93t120.5 34q138 0 211.5 -92t73.5 -235q0 -87 -27 -172q-182 3 -300 108t-118 264z" />
<glyph unicode="P" horiz-adv-x="1317" d="M-133 53q0 -111 86.5 -172t206.5 -61q65 0 126 20t128.5 74t122.5 138.5t103 225.5t75 324q73 -12 141 -12q149 0 278 45t213.5 118t132.5 163.5t48 183.5q0 66 -24 126t-76.5 114t-129 93t-189 62t-249.5 23q-149 0 -292.5 -30t-260.5 -85.5t-188.5 -142.5t-71.5 -191 q0 -76 47 -142.5t112 -108t140 -64.5q27 55 27 159q-82 31 -123 69.5t-41 111.5q0 84 101 155t235.5 107.5t253.5 36.5q227 0 351 -94.5t124 -227.5q0 -68 -33.5 -131.5t-95.5 -115t-162 -82.5t-223 -31h-25q26 105 60 282.5t45 255.5l-88 -2q-37 0 -85.5 -14t-54.5 -43 l-110 -576q-40 -210 -51 -256q-103 -440 -273 -440q-117 0 -117 148q0 14 1 51.5t1 58.5q-196 0 -196 -123z" />
<glyph unicode="Q" horiz-adv-x="1632" d="M61 664q0 -149 33 -270.5t90 -204t135.5 -139t168 -82t188.5 -25.5q167 0 332 68.5t298.5 199.5t194.5 299q178 35 313 141v92q-143 -85 -280 -106q12 61 12 131q0 116 -32 208.5t-85.5 148.5t-117.5 85t-133 29q-177 0 -268 -90t-91 -223q0 -105 43.5 -188.5t117 -135.5 t166.5 -79t197 -27h13q-80 -149 -222 -242.5t-331 -93.5q-81 0 -155 22t-140 68.5t-114.5 114.5t-76.5 166.5t-28 216.5q0 89 31.5 182.5t93.5 179t146.5 153t199 108t241.5 40.5q52 0 99 -8l4 102q-76 13 -137 13q-163 0 -310 -51.5t-253.5 -137.5t-185 -196t-118 -231 t-39.5 -238zM111 -289q0 -61 29.5 -107.5t77 -72t99 -37.5t103.5 -12q117 0 198 49t111 121q64 6 179.5 30t156.5 46l-10 120q-27 -20 -93 -37.5t-101 -23t-107 -16.5l223 600q-58 0 -88 -1.5t-63.5 -12t-41.5 -31.5q-5 -12 -40 -109.5t-66.5 -183.5t-66 -169t-48.5 -100 l-385 27q-67 0 -67 -80zM256 -346q0 16 8 19t37 3q1 0 46 -5t75 -5h115q-8 -18 -15.5 -31t-19.5 -28t-29.5 -23t-38.5 -8q-71 0 -124.5 27t-53.5 51zM991 999q0 59 39.5 93t120.5 34q138 0 211.5 -92t73.5 -235q0 -87 -27 -172q-182 3 -300 108t-118 264z" />
<glyph unicode="R" horiz-adv-x="1616" d="M-115 205q0 -63 30 -114t78.5 -82.5t105.5 -48.5t116 -17q75 0 139.5 24t110.5 56t88 91.5t66.5 104.5t51.5 122t38 115.5t31 113.5q5 20 8 30q111 -148 225 -450q11 -15 30.5 -50t35.5 -57.5t42 -48t64 -38.5t88 -13q36 0 73.5 12.5t80 41t74 52t78.5 70.5t69 70t71 77 t60 66l-2 102q-18 -17 -67.5 -66t-93 -90.5t-92.5 -85.5t-88.5 -70t-60.5 -26t-60.5 74.5t-80.5 168.5t-100 187t-113 123q140 36 237 74t174 90.5t114.5 123t37.5 161.5q0 95 -56 175.5t-148 133t-208.5 82t-240.5 29.5q-152 0 -298 -31.5t-262 -87.5t-187.5 -142 t-71.5 -186q0 -62 25 -115t69 -91t94 -65t109 -46q26 68 26 159q-74 30 -118 68t-44 104q0 71 58.5 131t152 97.5t205 58.5t221.5 21q178 0 293 -93.5t115 -216.5q0 -62 -36.5 -130.5t-101 -128t-164.5 -98t-214 -38.5q70 342 96 559q-27 2 -67 2q-39 0 -67.5 -6t-43.5 -12 t-26.5 -22.5t-14.5 -24t-10 -29.5q-7 -21 -30 -152t-55 -283t-74.5 -307t-103.5 -257.5t-128 -102.5q-125 0 -125 189q0 33 4 73q-8 4 -15 4q-92 0 -154.5 -29.5t-62.5 -84.5z" />
<glyph unicode="S" horiz-adv-x="1069" d="M-70 59q0 -59 30 -106.5t78 -75.5t103 -42.5t111 -14.5q93 0 187 20t182 62t155.5 100t108.5 141.5t41 180.5q0 81 -29.5 155.5t-77.5 132.5t-105 111.5t-114.5 102t-105.5 95t-77.5 99.5t-29.5 106q0 89 59 159t142 104t168 34q209 0 209 -198q0 -24 -49 -55.5 t-126.5 -68t-91.5 -44.5v-99q53 19 250 134t197 135q0 79 -33 138.5t-86 91t-109 46.5t-114 15q-83 0 -171 -21t-170.5 -63.5t-147.5 -100t-104.5 -138.5t-39.5 -171q0 -55 29.5 -115.5t77.5 -116t105.5 -113t114.5 -115t105 -113.5t77.5 -116.5t29.5 -115.5 q0 -57 -24.5 -107t-64.5 -86t-90 -62t-102 -39t-100 -13q-41 0 -72 6.5t-51.5 14.5t-34.5 25.5t-20.5 30t-10 38.5t-4 40t-0.5 44q0 44 4 98l-43 -2q-70 -3 -118 -43t-48 -105z" />
<glyph unicode="T" horiz-adv-x="1085" d="M-14 172q0 -38 17 -77t48.5 -73.5t85 -56.5t119.5 -22q79 0 150 25.5t127.5 72.5t106 110.5t88.5 141t72.5 163t59.5 178t48 184t40.5 183.5t34.5 174q22 116 33 168q22 -8 75 -29t82 -31t74 -20t84 -10q133 0 232.5 73t136.5 198q-19 -5 -72.5 -27.5t-108 -37.5 t-108.5 -15q-97 0 -300.5 37t-293.5 37q-125 0 -241.5 -27.5t-207.5 -75.5t-159 -110t-104.5 -134t-36.5 -145q0 -104 78 -196.5t237 -157.5q9 12 19 68.5t10 99.5q-160 69 -160 192q0 84 75 168t203 138.5t267 54.5q62 0 137 -21h-2q-94 0 -156 -67q-15 -40 -48.5 -196 t-74 -327t-92.5 -344t-121 -285t-143 -112q-61 4 -85 42.5t-24 109.5q0 75 11 135q-213 0 -213 -156z" />
<glyph unicode="U" horiz-adv-x="1595" d="M-43 946q80 48 185 112.5t175.5 108.5t88.5 54l114 88q9 6 12 6q5 0 5 -4q-135 -185 -224.5 -438.5t-89.5 -469.5q0 -104 22.5 -186t69 -144.5t125 -96t185.5 -33.5q144 0 279 53.5t242.5 147t193 217t139.5 267t73 292.5q196 40 419 227v114q-56 -55 -120 -100 t-114.5 -69t-93 -40.5t-65.5 -21.5l-24 -6v9q-1 17 0 51q0 8 1 18q1 28 -3 62q-4 46 -10 94t-21 95t-34 84t-51.5 60t-73.5 23q-56 0 -99.5 -26t-67.5 -68t-36 -87.5t-12 -91.5q0 -60 22 -113.5t54.5 -89t72 -62.5t72 -40.5t57.5 -17.5q-8 -141 -63.5 -280.5t-144 -249.5 t-213 -178.5t-259.5 -68.5q-284 0 -284 310q0 133 53 320.5t116 335t116 266.5t53 130q0 21 -27 21q-28 0 -156.5 -75t-338.5 -204.5t-320 -193.5v-111zM1266 1266q0 73 55 73q49 0 80 -86t31 -186q0 -6 -1 -19.5t-1 -19.5q-69 15 -116.5 79.5t-47.5 158.5z" />
<glyph unicode="V" horiz-adv-x="1415" d="M-63 946q81 49 185 113t175 108t88 54l115 88q9 6 12 6q2 0 2 -6q0 -15 -29.5 -68t-54.5 -90q-65 -98 -117.5 -302.5t-52.5 -397.5q0 -107 18.5 -194.5t59 -160t112.5 -113t171 -40.5q103 0 202 47t178 126.5t147.5 179t120.5 210.5t88 214.5t56 197.5q98 16 195 59 t166 88v115q-76 -58 -163 -97.5t-137 -50.5l-49 -10q0 496 -202 496q-56 0 -99.5 -26t-67.5 -68t-36 -87.5t-12 -91.5q0 -75 32.5 -138t80 -100t90.5 -58.5t75 -26.5q-28 -82 -75 -180t-109.5 -197t-129 -180t-139.5 -132t-135 -51q-155 0 -155 277q0 110 24 258.5 t58.5 283.5t69.5 252t59 188.5t24 67.5q0 10 -9 15.5t-17 5.5q-28 0 -156.5 -75t-338.5 -204.5t-320 -193.5v-111zM1133 1266q0 73 55 73q33 0 59 -43.5t38.5 -104.5t12.5 -124q0 -6 -1 -19.5t-1 -19.5q-68 15 -115.5 79.5t-47.5 158.5z" />
<glyph unicode="W" horiz-adv-x="1978" d="M-74 946q82 49 185.5 112.5t175.5 108.5t88 54l114 88q10 6 13 6q2 0 2 -6q0 -14 -30.5 -69.5t-53.5 -88.5q-107 -145 -168.5 -351.5t-61.5 -396.5q0 -76 18 -153t54.5 -147t101 -114t146.5 -44q96 0 225 84.5t203 185.5q2 -11 6.5 -29.5t26 -65.5t51 -82.5t86 -65 t127.5 -29.5q111 0 224.5 66t205.5 172.5t166.5 235t118.5 260.5t51 241q157 28 330 147v115q-71 -58 -153 -97.5t-128 -50.5l-47 -10v15v48t-1.5 59.5t-4.5 70t-10 71t-16 71t-24 62t-33.5 53t-45 33.5t-58.5 13q-56 0 -99.5 -26t-67.5 -68t-36 -87.5t-12 -91.5 q0 -60 22 -113.5t54.5 -89t72.5 -62.5t72.5 -40.5t57.5 -17.5q0 -94 -43.5 -215.5t-112.5 -230.5t-168 -184t-198 -75q-62 0 -115 20t-88 63t-35 101l20 49q19 48 46.5 124t55.5 161t47.5 174.5t19.5 149.5q0 115 -82 115q-65 0 -118.5 -50.5t-86.5 -128t-55.5 -177 t-31.5 -191.5t-9 -176q0 -85 8 -125q-33 -55 -107.5 -99.5t-126.5 -44.5q-221 0 -221 371q0 109 46 270.5t101.5 294t101.5 248t46 143.5q0 21 -27 21q-28 0 -156.5 -75t-337.5 -204.5t-321 -193.5v-111zM1720 1266q0 73 56 73q33 0 59 -43.5t38.5 -104.5t12.5 -124 q0 -6 -1 -19.5t-1 -19.5q-68 15 -116 79.5t-48 158.5z" />
<glyph unicode="X" horiz-adv-x="1544" d="M-25 66q0 -39 12 -65t35 -38.5t46 -17t55 -4.5q52 0 100 14t81.5 32t71.5 50.5t58.5 54t52.5 58.5q129 142 299 344l19 -43q109 -272 198.5 -390t182.5 -118q57 0 131 49.5t128 103t172 179.5q33 35 50 53l-2 112q-44 -43 -102 -102t-87 -88t-64 -60t-59 -43.5t-46 -11.5 q-47 0 -93 71t-127 253l-106 268q134 164 229 291q64 95 144.5 175t135.5 120t93.5 79t38.5 70q0 27 -26.5 41.5t-63.5 14.5q-42 0 -68 -17q-83 -61 -153 -140t-248 -323q-42 -50 -137 -170q-198 503 -221 559q-43 91 -111 91q-38 0 -96 -35q-72 -46 -463 -271v-110 q80 47 134.5 76t75 40t36.5 21q71 45 114 45q13 0 22.5 -4t17.5 -14.5t12.5 -17.5t13 -25.5t12.5 -26.5q144 -300 258 -571q-185 -227 -316.5 -358.5t-199.5 -131.5q-22 0 -73.5 6t-75.5 5q-44 0 -67.5 -16.5t-23.5 -63.5z" />
<glyph unicode="Y" horiz-adv-x="1554" d="M152 -565q0 -66 45.5 -115.5t110 -71.5t134.5 -22q94 0 181 23.5t157.5 63.5t135 97.5t114.5 121t95.5 139.5t79 147t63.5 149l405 361v112l-387 -354l354 1401h-217q-18 -6 -60.5 -155.5t-57.5 -217.5l-91 -375q-24 -100 -97.5 -194.5t-165 -157.5t-185.5 -101t-164 -38 q-30 0 -54 36.5t-24 73.5q0 62 40 207t103 347.5t91 312.5q15 60 34 123.5t28 96t9 44.5q0 13 -18.5 21t-46.5 8q-64 0 -111 -31l-411 -268q-21 -15 -21 -45q0 -18 10 -27.5t23 -9.5q4 0 12 8l10 6l308 213l-107 -311q-5 -14 -38.5 -111t-43 -127.5t-37 -115.5t-38 -129 t-26.5 -110t-22 -116.5t-6 -95.5q0 -142 48.5 -204t123.5 -62q128 0 349 143.5t384 331.5l-159 -498l-809 -432q-51 -28 -51 -92zM469 -547q0 65 71 129.5t183 116.5l278 162l-36 -121q-28 -101 -101 -203t-159 -166.5t-152 -64.5q-35 5 -59.5 42t-24.5 105z" />
<glyph unicode="Z" horiz-adv-x="1450" d="M102 72q0 -30 14.5 -52.5t35.5 -31.5t35.5 -13t23.5 -4q70 0 168.5 41.5t193.5 104.5q73 -24 135.5 -45.5t105.5 -37t78.5 -29t57.5 -22.5t39 -16.5t25.5 -11.5t14.5 -7t9 -4t6 -1q76 0 145.5 31t170.5 100.5t143 93.5v100q-45 -39 -108.5 -78t-79.5 -45q-51 -26 -84 -26 q-17 0 -48.5 5.5t-75 16.5t-84 22t-95.5 27.5t-87.5 26t-82.5 25t-60 18.5q114 121 237.5 294.5t205.5 311.5t176 299.5t131 218.5l-43 97q-26 2 -196.5 19.5t-290.5 17.5q-261 0 -449.5 -23.5t-270 -56t-81.5 -68.5q0 -100 59.5 -182.5t177.5 -126.5q24 5 46 16t22 23 q-62 54 -62 180q0 35 138.5 74t287.5 39q204 0 381 -17l-446 -721q-78 -124 -238 -333l-247 -111q-134 -59 -134 -139z" />
<glyph unicode="[" horiz-adv-x="983" d="M33 -162q0 -14 7.5 -25.5t16.5 -11.5q11 0 29 9q112 1 434 10q62 38 62 67q0 33 -27 39q-19 0 -130.5 -1t-145.5 -1q2 19 95.5 393.5t185.5 738.5l93 365q35 0 145.5 4.5t129.5 4.5q20 4 34.5 21.5t14.5 35.5t-9 33.5t-24 15.5h-426q-64 0 -80 -57l-403 -1612 q-2 -6 -2 -29z" />
<glyph unicode="\" horiz-adv-x="821" d="M-72 1587q0 13 6.5 23t14.5 10q91 0 130 -39.5t79 -165.5q4 -15 159.5 -314t328.5 -641.5t214 -451.5q4 -11 37 -68.5t33 -91.5q0 -30 -23 -30q-34 0 -61.5 9.5t-44.5 23t-32 35t-22.5 38t-17.5 40t-16 34.5l-779 1556q-6 21 -6 33z" />
<glyph unicode="]" horiz-adv-x="989" d="M16 -111q-13 -29 29 -67q323 -9 426 -10q15 -9 25 -9q9 0 22.5 11.5t20.5 25.5q12 24 12 29l403 1612q2 6 2 28q0 14 -7.5 25.5t-16.5 11.5t-29 -8q-109 -1 -434 -10q-61 -40 -61 -68q0 -33 26 -39q19 0 130.5 1t146.5 1q-1 -16 -99.5 -391.5t-191 -739.5t-84.5 -366 q-35 0 -145.5 1t-129.5 1q-27 -5 -45 -39z" />
<glyph unicode="^" d="M604 760l60 -43q23 21 213.5 232.5t242.5 264.5q24 -41 90.5 -162t123 -222.5t69.5 -120.5l72 41q-3 13 -68.5 164t-147 309.5t-110.5 158.5q-39 0 -156 -124.5t-230 -271t-159 -226.5z" />
<glyph unicode="_" horiz-adv-x="930" d="M72 -49q0 -41 57 -41q371 18 510 18q21 0 66.5 -1t70.5 -1q38 0 69.5 33.5t31.5 63.5q0 40 -209 40q-82 0 -292.5 -10t-254.5 -16q-49 -14 -49 -86z" />
<glyph unicode="`" d="M682 1147q0 -24 18 -29l88 -35q110 -43 398 -143l22 55q-86 80 -215.5 165t-204.5 89q-34 0 -70 -36t-36 -66z" />
<glyph unicode="a" horiz-adv-x="928" d="M-4 225q0 -44 6.5 -84.5t22.5 -81t48 -64.5t77 -24q97 0 192.5 67t167.5 161q-8 -54 -8 -97q0 -131 76 -131q46 0 149.5 75t187.5 151.5t136 130.5v112q-240 -254 -306 -254q-30 0 -30 64q0 28 16.5 116.5t35.5 176.5t38 172.5t20 91.5q-104 33 -168 33 q-129 0 -252.5 -55t-212 -142t-142.5 -198t-54 -220zM209 281q0 105 59 217t160 189t209 77l-115 -492q-50 -53 -111.5 -97t-103.5 -44q-52 0 -75 42t-23 108z" />
<glyph unicode="b" horiz-adv-x="986" d="M78 133q0 -41 7.5 -71t28.5 -59t65.5 -44.5t111.5 -15.5q61 0 121 8.5t109 19.5t101 33.5t88.5 39.5t82.5 48t71 49t65 53.5t54.5 49t49.5 48.5t41 40l1 114q-20 -20 -91.5 -95.5t-123.5 -123.5t-92 -71q78 64 111.5 173t33.5 218q0 106 -52 167.5t-159 61.5 q-56 0 -131.5 -60.5t-89.5 -115.5q256 0 256 -164q0 -75 -51 -160t-128.5 -142.5t-147.5 -57.5q-117 0 -117 160q0 49 12 119t24.5 121.5t35 138t30.5 118.5q500 462 500 717q0 131 -154 131q-75 0 -151.5 -46.5t-135.5 -118.5t-102.5 -153t-64.5 -155q-15 -55 -61.5 -216.5 t-61.5 -222t-41.5 -174.5t-35.5 -196.5t-9 -165.5zM430 924q0 38 46.5 169.5t108 252t93.5 120.5q67 0 67 -67q0 -94 -106 -251.5t-209 -223.5z" />
<glyph unicode="c" horiz-adv-x="696" d="M-4 231q0 -116 58 -188t173 -72q72 0 150 29.5t157.5 86t144.5 111.5t144 132v112q-305 -301 -479 -301q-65 0 -97 54.5t-32 142.5q0 89 28.5 182t79.5 158t109 65q30 0 52.5 -20t32.5 -43.5t25 -43.5t33 -20q57 0 94.5 28.5t37.5 72.5q0 31 -14.5 54.5t-35 36.5 t-49.5 20.5t-52 9.5t-48 2q-107 0 -205 -59t-163.5 -149.5t-104.5 -197t-39 -203.5z" />
<glyph unicode="d" horiz-adv-x="913" d="M10 182q0 -36 5.5 -69t19 -67t42.5 -54.5t70 -20.5q68 0 177 70.5t217 196.5q-17 -70 -17 -134q0 -133 82 -133q14 0 31.5 6.5t40.5 21.5t43 29.5t50 41.5t50.5 45t55 52.5l52.5 52.5t55.5 56t51.5 52v112q-59 -62 -92 -95.5t-73 -72.5t-63.5 -56t-35.5 -17q-17 0 -24 13 t-7 50q0 77 109.5 475.5t171.5 583.5q31 105 35 139h-35q-44 0 -72.5 -2t-51 -11.5t-34.5 -18t-23 -32t-16.5 -42.5t-15.5 -60l-133 -475q-71 21 -131 21q-90 0 -187.5 -62.5t-173.5 -157.5t-125 -213.5t-49 -224.5zM221 285q0 102 47 214.5t128 191.5t167 79q27 0 50 -9 t33 -17.5t11 -12.5l-88 -387q-10 -41 -106 -113.5t-160 -72.5q-82 0 -82 127z" />
<glyph unicode="e" horiz-adv-x="724" d="M27 258q0 -130 72 -209.5t193 -79.5q71 0 140.5 24.5t140 74.5t135 111t144.5 149v110q-29 -26 -105 -102.5t-125.5 -123t-114 -88.5t-108.5 -42q-168 0 -168 231q0 86 43 176q35 -54 85 -81t96 -27q115 0 207 84.5t92 198.5q0 176 -236 176q-140 0 -254.5 -85.5 t-175.5 -218t-61 -278.5zM303 565q9 26 26.5 55t44.5 59.5t65.5 50.5t80.5 20q47 0 70.5 -21.5t23.5 -75.5q0 -72 -42.5 -129t-100.5 -57q-92 0 -168 98z" />
<glyph unicode="f" horiz-adv-x="453" d="M-74 -345h168q4 15 12 50.5t17 82t19 99.5t19.5 104.5t17.5 94t13.5 72.5t6.5 35q23 -62 104 -62q88 0 272 197v112q-19 -24 -54.5 -58.5t-72.5 -66.5t-71 -54.5t-49 -22.5q-41 0 -72 41t-31 92q0 21 28.5 64t74.5 98.5t101 123.5t110 148.5t101 162.5t74.5 176t28.5 181 q0 19 -0.5 31.5t-3 31t-9 30.5t-16.5 24t-26.5 18t-38.5 6q-79 0 -164 -43t-145.5 -107t-77.5 -126q-96 -349 -196 -793t-140 -742zM274 586q2 11 7 35q12 59 19.5 95t23 109.5t29 124.5t32.5 119t37 114t38.5 89t42.5 64.5t44 21.5q69 0 69 -103q0 -56 -22 -123.5t-66 -146 t-79.5 -135.5t-95 -144.5t-79.5 -119.5z" />
<glyph unicode="g" horiz-adv-x="928" d="M51 172q0 -77 36.5 -139t98.5 -62q86 0 170.5 39.5t212.5 153.5l-32 -170l-277 -213q-6 -5 -33 -25.5t-34 -26.5t-27 -23t-26.5 -26.5t-17.5 -24.5t-14.5 -29t-3.5 -29q0 -47 30.5 -81t72 -48.5t86.5 -14.5q63 0 131 40t129.5 111.5t111 181t72.5 237.5l314 305v112 q-35 -38 -73 -76.5t-61 -60t-77.5 -73t-81.5 -76.5l153 647q-210 39 -299 39q-95 0 -184 -40.5t-156 -108.5t-117.5 -154t-77 -180.5t-26.5 -184.5zM250 -424q0 27 5.5 49t21 41.5t23 27.5t32.5 28t28 22l164 139q-19 -169 -69.5 -272t-130.5 -103q-39 0 -56.5 15t-17.5 53z M270 324q0 75 26 156.5t69.5 148.5t106.5 111t130 44q24 0 98 -18l-116 -487q-131 -148 -217 -148q-46 0 -71.5 48.5t-25.5 144.5z" />
<glyph unicode="h" horiz-adv-x="881" d="M10 0h156q32 27 53 82t51 170q39 146 136.5 274.5t185.5 128.5q57 0 57 -57q0 -73 -26 -183.5t-54.5 -206t-31.5 -120.5q-5 -30 -5 -41q0 -76 64 -76q97 0 412 361v112q-40 -34 -103 -97.5t-104.5 -103.5t-50.5 -40q-8 0 -13 7.5t-5 15.5l-1 7q0 73 64.5 260.5 t64.5 229.5q0 117 -98 117q-114 0 -234 -96.5t-194 -233.5l262 948q-10 4 -45 4q-42 0 -62 -1.5t-45 -10t-37 -22.5t-28.5 -45.5t-29 -71.5t-30.5 -107q-292 -1073 -309 -1204z" />
<glyph unicode="i" horiz-adv-x="469" d="M29 102q0 -52 22 -91.5t66 -39.5q82 4 173.5 76.5t279.5 258.5l20 20v112q-69 -76 -185.5 -190.5t-138.5 -114.5q-20 0 -27.5 22t-7.5 44q0 28 12.5 88t34.5 139.5t40.5 143.5t42 142.5t28.5 94.5h-12q-32 0 -49 -0.5t-41.5 -3.5t-38.5 -10t-30.5 -18t-28 -29.5 t-21.5 -43.5q-27 -70 -83 -299t-56 -301zM312 1145q0 -45 22.5 -73.5t68.5 -28.5q61 0 108.5 56.5t47.5 117.5q0 31 -25 51t-75 20q-61 0 -104 -46.5t-43 -96.5z" />
<glyph unicode="j" horiz-adv-x="442" d="M-443 -656q3 -35 11.5 -65t30.5 -50t55 -20q119 0 239.5 90t147.5 187q9 33 16.5 59t14.5 54.5t11.5 45t11.5 47t10 43t11 51.5t11.5 53.5t14.5 67.5t16 77q61 29 134.5 87t128 110.5t146.5 146.5v112q-116 -118 -234 -222t-138 -112q0 21 7.5 63t22.5 102t30 116 t36 130.5t33.5 117t31 105t19.5 67.5h-40.5t-34.5 -1t-33.5 -4t-27.5 -7.5t-27 -12t-21 -18.5t-20.5 -26.5t-16.5 -35.5q-19 -48 -65 -246t-69 -319l-38 -135q-15 -12 -40.5 -34t-92 -89t-120.5 -133.5t-104.5 -159t-64.5 -174.5q-4 -21 -4 -44q0 -12 1 -24zM-313 -580 q15 65 33.5 108.5t79 130t177.5 224.5q-3 -17 -12.5 -67t-15.5 -79.5t-17 -81t-20.5 -84.5t-23 -77t-27 -71.5t-30 -53.5t-35.5 -38.5t-40 -12.5q-42 0 -60 32q-13 21 -13 44q0 13 4 26zM317 1145q0 -32 18 -52t54 -20q61 0 108.5 47t47.5 97q0 31 -25 51t-76 20 q-52 0 -89.5 -47t-37.5 -96z" />
<glyph unicode="k" horiz-adv-x="905" d="M-10 0h155q71 60 138 360l6 27q91 0 140.5 -10.5t65 -27.5t15.5 -46q0 -21 -7 -87.5t-7 -102.5q0 -142 94 -142q54 0 117 51.5t265 250.5q36 36 56 55v112q-32 -34 -86 -88t-98 -97.5t-84 -83t-41 -40.5q-10 -10 -17 -10q-18 0 -18 67q0 11 1 36t1 38q0 35 -5.5 60 t-21.5 50t-50.5 38.5t-86.5 13.5q9 3 25 9q41 15 61 22.5t53 21t49 23.5t39.5 26t35 32t23.5 37.5t16.5 47t4.5 55.5q0 60 -37 101t-96 41l-348 -166q0 4 42 148q44 148 102 346t83 290q-10 4 -45 4q-42 0 -62 -1t-45 -10t-36.5 -23t-28 -45.5t-29 -71.5t-30.5 -107 q-293 -1073 -309 -1204zM295 457q6 55 60.5 124t118 114.5t99.5 45.5q78 0 78 -94q0 -48 -30 -86.5t-75.5 -60t-93.5 -32.5t-90 -11h-67z" />
<glyph unicode="l" horiz-adv-x="603" d="M80 168.5q0 -13.5 1 -39t3.5 -40.5t6.5 -36t11 -33.5t16 -25t22.5 -18t29.5 -5.5q102 0 220 92.5t308 306.5v112q-102 -116 -225.5 -240.5t-150.5 -124.5q-35 0 -35 71q0 35 5.5 93.5t10.5 99.5l5 41q11 9 29.5 26t72 73t102.5 115t108.5 148t102 177t72 197.5 t29.5 213.5q0 71 -37.5 115.5t-102.5 44.5q-106 0 -218 -134t-195.5 -332t-137 -432t-53.5 -427v-38.5zM334 618q100 409 176.5 604t157.5 195q43 0 43 -86q0 -46 -26 -131t-71 -186.5t-120 -210t-160 -185.5z" />
<glyph unicode="m" horiz-adv-x="1348" d="M-25 0h191q16 63 45.5 148t76 193.5t110 196t128.5 117.5q12 4 21 4q19 0 33 -15.5t14 -43.5q0 -14 -2 -22q-13 -70 -47 -180.5t-58 -210.5t-24 -187h192q15 54 38 123t63.5 167t82.5 175.5t95 133.5t102 56q28 0 47 -23t19 -50q0 -54 -21.5 -125t-48 -129.5t-48 -133.5 t-21.5 -137q0 -41 15.5 -64.5t43.5 -23.5q49 0 185 115t261 244v112l-53 -53t-50 -49.5t-43 -42t-39 -37t-30.5 -26t-26.5 -18t-18 -5.5q-12 0 -12 22q0 5 4 29q1 5 17.5 53.5t33 103t31 131t14.5 138.5q0 154 -112 154q-64 0 -134 -38t-129.5 -99t-108.5 -128.5t-83 -134.5 q53 174 53 265q0 46 -19 89.5t-58 43.5q-226 0 -453 -398q9 31 52.5 164t57.5 203q-103 0 -145.5 -8.5t-60.5 -40.5q-50 -80 -111.5 -354.5t-69.5 -403.5z" />
<glyph unicode="n" horiz-adv-x="838" d="M-25 0h191q15 65 52.5 167.5t89.5 215.5t118 192.5t123 79.5q16 0 27.5 -15t11.5 -40q0 -39 -37.5 -133.5t-75 -211t-37.5 -208.5q0 -30 17 -53t63 -23q36 0 134 76.5t172 146t134 130.5v112q-20 -17 -118 -110.5t-117 -106.5q-22 -14 -35 -14q-12 0 -12 18 q0 25 70.5 234.5t70.5 265.5q0 117 -98 117q-65 0 -138 -40t-135 -102.5t-112 -128t-82 -125.5l108 363h-67q-60 0 -95.5 -16t-54.5 -64q-47 -119 -107 -369t-61 -358z" />
<glyph unicode="o" horiz-adv-x="867" d="M31 317q0 -51 10 -99t33 -93.5t56.5 -79t85.5 -54t115 -20.5q210 0 364 243q33 -4 70 -4q52 0 98.5 33t117.5 109v110q-21 -21 -53 -55.5t-48.5 -51.5t-38.5 -36t-39.5 -27t-34.5 -8h-31q46 44 73 104t27 118q0 78 -41.5 127t-126.5 49q-97 0 -145 -49.5t-48 -128.5 q0 -70 39 -139t110 -112q-93 -122 -198 -122q-78 0 -132 62t-54 174q0 71 16 134.5t49.5 119.5t82 97t119 64.5t155.5 23.5q15 10 18.5 18t3.5 25q-2 13 -22 13q-286 0 -458.5 -146t-172.5 -399zM578 489q0 43 20 70t61 27q82 0 82 -92q0 -42 -19.5 -96.5t-40.5 -77.5 q-44 29 -73.5 78t-29.5 91z" />
<glyph unicode="p" horiz-adv-x="836" d="M-157 -433h180q3 10 25 97t44.5 169.5t46.5 164.5l27 86q36 117 72 208.5t81.5 179t99 135.5t109.5 48q66 0 66 -82q0 -81 -58 -207.5t-120 -197.5q-4 -5 -15.5 -18t-16.5 -19t-14.5 -17.5t-14 -18.5t-10 -16t-7.5 -16.5t-2 -13.5q0 -33 13 -49t46 -16q35 0 67.5 4.5 t59.5 10.5t58.5 21.5t53 26t54 35.5t51.5 40t56 50t56.5 53.5t63.5 62t68 66.5v115q-85 -87 -154.5 -149.5t-114 -95.5t-83 -51.5t-59 -23t-44.5 -4.5q69 43 137 138.5t110 207t42 197.5q0 46 -12.5 79t-42 53t-74.5 20q-37 0 -77.5 -14.5t-77 -38.5t-73.5 -57t-68.5 -69 t-60.5 -74.5t-51 -74.5t-38 -68q56 181 108 363h-67q-33 0 -51.5 -2t-39.5 -9.5t-34.5 -24t-24.5 -44.5q-48 -125 -89.5 -284t-67.5 -290t-62.5 -298t-70.5 -288z" />
<glyph unicode="q" horiz-adv-x="897" d="M55 258q0 -313 318 -313q59 0 108 8l-150 -402l190 -61q23 38 83 232.5t86 291.5v4l332 310v112q-53 -64 -150 -154.5t-161 -162.5l153 637q-208 80 -299 80q-117 0 -216 -54.5t-161.5 -140.5t-97.5 -187t-35 -200zM262 291q0 105 38.5 218.5t108 194t146.5 80.5 q25 0 98 -18l-157 -694q-33 -11 -72 -11q-84 0 -123 62t-39 168z" />
<glyph unicode="r" horiz-adv-x="639" d="M89 302q66 74 141.5 149t132.5 139q-4 -10 -30.5 -70.5t-48.5 -113t-47.5 -117t-40.5 -114t-15 -73.5q0 -52 22 -91.5t66 -39.5q124 0 481 357v112q-49 -66 -182.5 -184.5t-159.5 -118.5q-7 0 -12 2.5t-7.5 6t-3.5 9.5t-2 9.5t0 10t1 7.5q0 39 44 143t105.5 230.5 t75.5 161.5q2 4 2 12q0 14 -29 14q-18 0 -61.5 -7t-58.5 -7q-112 0 -158 41q25 13 43 49.5t18 67.5q0 53 -45 53q-88 0 -141 -53t-53 -123q0 -10 7.5 -23t24 -30.5t51.5 -34.5t83 -29l-203 -229v-116z" />
<glyph unicode="s" horiz-adv-x="645" d="M-86 143q0 -49 27 -84.5t70.5 -53.5t88 -26t90.5 -8q35 0 75.5 11t74.5 25.5t80 43.5t75.5 49.5t78 59.5t70 57.5t69 60.5t59.5 52v110l-297 -243q70 96 70 170q0 30 -29 66t-66.5 68.5t-80 85.5t-62.5 109q39 0 79.5 8t76.5 23.5t59 41.5t23 58q0 35 -63 35 q-178 0 -267.5 -67.5t-89.5 -171.5q0 -79 27 -146q-17 -21 -64 -70t-81.5 -87t-63.5 -88t-29 -89zM16 184q0 19 14 43.5t37 49t46 45.5t47.5 43.5t34.5 33.5q9 -12 38 -46.5t43.5 -54t34 -50t28.5 -58.5t9 -55q0 -43 -41 -65.5t-106 -22.5q-69 0 -127 38.5t-58 98.5z" />
<glyph unicode="t" horiz-adv-x="545" d="M45 137q0 -166 119 -166q38 0 81.5 16.5t80 38.5t88 64t86 73.5t94.5 87.5t94 87v113q-327 -310 -381 -310q-17 0 -27.5 7t-15 21.5t-5.5 27.5t-1 36q0 36 30 163.5t60 238t31 110.5q274 0 299 46l22 36l-305 -14q18 63 53.5 167.5t61.5 178.5t26 78l-4 4 q-34 0 -63.5 -7.5t-53.5 -18.5t-46 -33t-38.5 -41t-34 -53t-28.5 -58.5t-26 -68t-24 -71t-24 -77.5l-84 -8q-18 -2 -26 -6t-9.5 -8t-1.5 -13q0 -8 1.5 -14.5t5.5 -11t8 -7.5t10.5 -5t11.5 -3t14 -1.5t13.5 -0.5h14.5h14q-24 -103 -44 -181.5t-29 -117.5t-22 -104 q-26 -140 -26 -195z" />
<glyph unicode="u" horiz-adv-x="993" d="M37 139q0 -73 27 -120.5t90 -47.5q85 0 188 63.5t203 160.5q-10 -38 -10 -93q0 -131 86 -131q32 0 73 17.5t76 39.5t87.5 65t83.5 71.5t90 84t83 77.5v112q-219 -211 -279 -260t-81 -49q-16 0 -20.5 5.5t-4.5 21.5q0 14 8 90q10 45 47.5 185.5t69.5 258.5l33 117h-68h-9 q-32 0 -47.5 -2t-36.5 -12.5t-35 -36t-25 -68.5l-109 -416q-14 -29 -98.5 -78t-141.5 -49q-67 0 -67 74q0 40 41 184t82 273t41 131h-35q-158 0 -162 -25q-106 -305 -166 -532q-14 -54 -14 -111z" />
<glyph unicode="v" horiz-adv-x="778" d="M55 543q0 -152 20.5 -279.5t65 -210t105.5 -82.5q43 0 78 6.5t64 22.5t50 32.5t44 48.5t39 58t42 72q43 -92 76 -92q22 0 52 16.5t70.5 53.5t68 65t77.5 80v112q-30 -30 -73 -74t-65 -66.5t-48.5 -47.5t-44 -35t-29.5 -10q0 16 -20 55q28 71 70 224t42 251q0 97 -51 97 q-42 0 -75.5 -50.5t-52.5 -128.5t-28.5 -159t-9.5 -154q0 -29 2 -29q0 -1 -38 -65t-66 -100.5t-45 -36.5q-38 0 -69.5 110t-31.5 252q0 163 31 328h-80q-94 0 -137 -24q-18 -11 -20 -25q-13 -90 -13 -215z" />
<glyph unicode="w" horiz-adv-x="1204" d="M39 174q0 -86 51.5 -144.5t138.5 -58.5q153 0 267 107q22 -49 66.5 -78t105.5 -29q106 0 188 73.5t129 184.5q38 -55 76 -55q19 0 43.5 14.5t44 32.5t55 52.5t58.5 54.5v114q-90 -92 -131.5 -127.5t-65.5 -35.5t-39 36q11 25 26.5 64.5t41.5 128.5t26 139 q0 62 -14.5 127.5t-36.5 65.5q-46 0 -78 -46.5t-48 -120t-24.5 -144.5t-14 -141.5t-9.5 -90.5q-10 -75 -58.5 -136t-88.5 -61q-45 0 -71 38t-26 108q0 14 36 133t36 174q0 72 -51 72q-46 0 -85.5 -56t-62 -133.5t-35 -148.5t-12.5 -113v-14q-66 -60 -127 -60q-45 0 -70.5 38 t-25.5 108q0 84 28 199t66 229t43 133h-59q-132 0 -158 -78q-135 -405 -135 -555z" />
<glyph unicode="x" horiz-adv-x="903" d="M-29 571l23 -55q35 39 103 96.5t83 57.5q16 0 29 -25l149 -289l-186 -223q-19 -23 -56.5 -47.5t-63 -42.5t-25.5 -33q0 -29 17 -47t46 -18q80 0 184 133q88 108 140 170l75 -146q24 -46 38 -69.5t35 -42.5t42 -19q23 0 55.5 19t76 57.5t83.5 77.5t101.5 99.5t107.5 103.5 v116q-86 -93 -182 -181.5t-123 -88.5q-4 0 -6 2q-49 51 -152 252q133 154 187 223q18 24 55.5 47.5t63.5 41t26 34.5q0 29 -17.5 47.5t-45.5 18.5q-85 0 -185 -133l-139 -168q-26 53 -54.5 113t-46.5 98.5t-22 46.5q-24 41 -78 41q-64 0 -161 -84t-177 -183z" />
<glyph unicode="y" horiz-adv-x="860" d="M-4 139q0 -72 27.5 -120t89.5 -48q85 0 189 64t204 160l-33 -160l-301 -191q-75 -42 -115.5 -83.5t-40.5 -92.5q0 -69 60 -113t129 -44q64 0 131 31.5t129 91.5t111.5 161t72.5 228v4l334 301v112q-90 -87 -305 -266l-12 -10l18 65q135 502 162 578h-68h-9 q-32 0 -47.5 -2t-36.5 -12.5t-35 -36t-25 -68.5l-109 -416q-14 -29 -98.5 -78t-141.5 -49q-67 0 -67 74q0 40 41 184t82 273t41 131h-35q-158 0 -162 -25q-89 -253 -134.5 -408t-45.5 -235zM166 -338q0 43 29 72.5t81 60.5l185 117q-22 -150 -77 -241t-144 -91q-74 0 -74 82 z" />
<glyph unicode="z" horiz-adv-x="737" d="M-84 -369q0 -75 64 -120.5t178 -45.5q169 13 283 180.5t134 417.5q103 78 338 316l-41 74q-7 -7 -72.5 -73t-95 -94t-78.5 -70.5t-81 -63.5q0 4 -2 11t-18 23.5t-44 26.5q73 149 97 205l135 282q2 2 2 13q0 30 -27 30q-17 0 -61 -7t-58 -7q-113 0 -155 43q2 1 6.5 4 t15 13t18.5 22.5t14.5 34t6.5 45.5q0 25 -16 37t-35 12q-84 0 -136 -55.5t-52 -114.5q0 -55 18.5 -85t54.5 -48l-194 -205v-110q51 51 147 142.5t115 110.5l61 -14q-23 -53 -80 -174.5t-85.5 -188.5t-28.5 -87q0 -7 22.5 -14t67 -15.5t55.5 -11.5q-236 -76 -354.5 -180 t-118.5 -259zM90 -311q0 57 12.5 96.5t32.5 61.5t55.5 40.5t70.5 29.5t89.5 32.5t100.5 46.5q-3 -87 -49.5 -188t-111 -168.5t-116.5 -67.5q-44 0 -64 35.5t-20 81.5z" />
<glyph unicode="{" horiz-adv-x="813" d="M35 711q11 -4 26 -4t24 -0.5t18 -6t13.5 -22.5t4.5 -49q-2 -50 -16.5 -138t-16.5 -131q0 -7 -1 -20t-1 -21q0 -124 29 -223t94.5 -163t159.5 -64q51 0 100 16l12 95q-22 -11 -53 -11q-50 0 -81.5 45t-43.5 111.5t-12 155.5q0 66 14 190t14 168q0 46 -20.5 79t-73.5 64 q36 8 57.5 17.5t45 30t40 58.5t29.5 97q17 80 46.5 162.5t71.5 159.5t99 125.5t117 48.5q25 0 49 -8l21 114q-41 6 -78 6q-102 0 -185 -42t-143 -119.5t-102 -171t-74 -213.5q-5 -21 -11.5 -52t-10 -46.5t-11 -32.5t-19 -24t-28.5 -7q-47 0 -78 2z" />
<glyph unicode="|" horiz-adv-x="739" d="M90 -170h113q21 0 34 14t17 30t7.5 44t6.5 39l377 1556q0 5 -72 5q-59 0 -75 -18.5t-33 -96.5q-1 -6 -1.5 -9.5t-2 -9t-2.5 -10.5q-2 -9 -81.5 -334.5t-161.5 -665.5t-97 -407z" />
<glyph unicode="}" horiz-adv-x="813" d="M12 -125q40 -6 78 -6q359 0 504 547q5 21 11.5 51.5t10 46t11 33t19 24.5t28.5 7q47 0 78 -3l26 177q-11 4 -26 4h-24t-18 5.5t-13.5 23t-4.5 49.5q2 49 16.5 137t16.5 131v41q0 124 -28.5 223t-93.5 163t-159 64q-51 0 -100 -16l-12 -94q23 10 53 10q50 0 81.5 -44.5 t43.5 -111t12 -155.5q0 -66 -14 -190.5t-14 -170.5q0 -45 20.5 -77.5t73.5 -63.5q-36 -8 -57.5 -17t-45.5 -30t-40.5 -59t-28.5 -97q-17 -80 -47 -161.5t-71.5 -159t-98.5 -126t-117 -48.5q-25 0 -49 8z" />
<glyph unicode="~" horiz-adv-x="1118" d="M137 1167q0 -1 2 -24.5t5.5 -50.5t15 -61.5t28.5 -61.5t49.5 -45.5t75.5 -18.5q64 0 139 19.5t131 43t120 43t108 19.5q62 0 76 -129l125 19q0 1 -2 24.5t-5.5 50.5t-15 61.5t-28.5 61.5t-49.5 45.5t-75.5 18.5q-67 0 -164 -29t-191 -58.5t-153 -29.5q-35 0 -55.5 27.5 t-26.5 95.5z" />
<glyph unicode="&#xa1;" horiz-adv-x="608" d="M123 53q0 -53 33 -53h182q12 0 22 10t18 31.5t13.5 40t11 50.5t7.5 46t6 43l151 862q2 13 2 37q0 15 -4 22t-18 7q-30 0 -53 -10q0 -1 -59.5 -165t-128 -355t-126 -365t-57.5 -201zM471 1389q0 -34 27.5 -56t83.5 -22q57 0 98 51.5t41 105.5q0 34 -20 56t-60 22 q-66 0 -118 -51.5t-52 -105.5z" />
<glyph unicode="&#xa2;" horiz-adv-x="778" d="M8 356q0 -111 61.5 -182t186.5 -78q-65 -275 -96 -432l-8 -53q-11 -55 -11 -76q0 -29 29 -29q22 0 34.5 13.5t16 28t7.5 45.5t8 47l106 462q170 29 397 228l-41 80q-186 -144 -301 -144h-16l137 594q19 -9 34.5 -29.5t24.5 -40t22.5 -34.5t29.5 -15q57 0 94 28.5t37 72.5 q0 31 -14.5 54.5t-35 36.5t-49.5 20.5t-52 9.5t-48 2q-3 0 -9 -1t-9 -1l108 467q0 14 -8 23t-14.5 11t-12.5 2q-21 0 -30 -26t-45 -170l-78 -318q-98 -22 -184.5 -86.5t-145 -148.5t-92 -179.5t-33.5 -181.5zM227 463q0 80 27 163.5t77 149t109 84.5l-116 -477 q-15 -49 -23 -92q-74 49 -74 172z" />
<glyph unicode="&#xa3;" horiz-adv-x="1368" d="M-209 72q0 -30 14.5 -52t35 -31.5t35.5 -13.5t24 -4q69 0 167 41.5t195 104.5q73 -24 135.5 -45.5t105.5 -37t78.5 -29t57.5 -22.5t39 -16.5t25.5 -11.5t14.5 -7t9 -4t6 -1q76 0 145.5 31t170.5 100.5t143 93.5v100q-46 -39 -109 -78t-79 -45q-51 -26 -84 -26 q-34 0 -127.5 26.5t-194.5 59.5t-109 35q-16 4 -42 13t-39 13q56 142 63 164q55 2 113 2q21 0 66.5 -1t70.5 -1q38 0 69 33t31 63q0 41 -209 41q-63 0 -96 -2q14 44 27 92h41q21 0 66.5 -1t70.5 -1q37 0 68.5 33.5t31.5 63.5q0 41 -209 41h-32q39 168 61 274q9 45 61 125.5 t121 149.5t117 75q38 0 69 -28t48.5 -67.5t29.5 -79t17 -67.5l6 -28q-1 -35 -57 -74t-121.5 -67.5t-120.5 -63t-55 -61.5q0 -17 9.5 -29t25.5 -12q10 0 22 6q73 34 249.5 131.5t229.5 124.5q37 18 37 76q0 130 -104.5 235t-233.5 105q-43 0 -140 -51.5t-162.5 -95 t-117.5 -81.5q-6 -5 -25.5 -19t-25 -18.5t-20 -16.5t-20.5 -20.5t-15.5 -21t-15.5 -26.5t-11 -31l-98 -353q-171 -10 -213 -18q-49 -14 -49 -86q0 -41 57 -41l166 8l-25 -90q-160 -10 -190 -16q-49 -15 -49 -86q0 -41 57 -41l144 6l-31 -111l-262 -119q-5 -2 -31.5 -13 t-42.5 -19.5t-37 -22t-32 -29.5t-11 -34z" />
<glyph unicode="&#xa4;" horiz-adv-x="1176" d="M43 344q0 -19 25.5 -34t42.5 -15q16 0 34 10t40.5 33.5t32 34.5t32.5 39l76 90q83 -45 188 -45q108 0 205 47l145 -191q33 -43 82 -43q31 0 54.5 17t23.5 39q0 11 -6 20q-32 43 -79 99t-110 139q127 122 127 317q0 130 -71 225l192 228q4 4 8.5 16.5t4.5 15.5v-2 q-51 48 -95 48q-25 0 -46.5 -14t-31.5 -26.5t-10 -15.5l2 2q-5 -8 -57 -75.5t-68 -85.5q-89 47 -190 47q-108 0 -207 -47q-87 115 -134 165t-73 50q-30 0 -47.5 -25.5t-17.5 -46.5q0 -23 15 -48.5t26.5 -38t17.5 -16.5l96 -127q-57 -61 -87.5 -143t-30.5 -168 q0 -132 63 -221q-74 -92 -106 -141q-13 -18 -32 -37t-26.5 -33.5t-7.5 -42.5zM328 821q0 114 69.5 202.5t186.5 88.5q104 0 154 -61.5t50 -157.5q0 -109 -73.5 -197t-192.5 -88q-99 0 -146.5 62.5t-47.5 150.5z" />
<glyph unicode="&#xa5;" horiz-adv-x="1546" d="M188 1192q19 11 42 25t26 16l31 18q11 -44 36 -193.5t39 -217.5q8 -59 23.5 -132.5t28 -124.5t35 -135t30.5 -118q-171 -10 -196 -15q-50 -14 -50 -86q0 -41 58 -41l219 9l-18 -91q-212 -10 -250 -16q-49 -14 -49 -86q0 -41 57 -41l213 10q-28 -154 -33 -198 q-27 -121 -27 -166t27 -45h178q16 0 31 22t25 51.5t20 68.5t15 63q2 11 3 16l41 197h99q21 0 66.5 -1t70.5 -1q38 0 69 33t31 63q0 41 -209 41q-16 0 -48.5 -1t-49.5 -1l21 92h90q21 0 66.5 -1t70.5 -1q38 0 69 33t31 63q0 41 -209 41h-14q175 166 310.5 331t164.5 285 q130 24 268 127v115q-57 -51 -121 -85.5t-99 -42.5l-36 -9q0 496 -202 496q-56 0 -99.5 -26t-67.5 -68t-36 -87.5t-12 -91.5q0 -75 32.5 -138t80 -100t90.5 -58.5t75 -26.5q-35 -88 -161.5 -232t-235.5 -244l-109 -100q-53 194 -94 461q-46 209 -107 624l-6 37q0 10 -9 15.5 t-17 5.5q-14 0 -27 -5.5t-37.5 -24t-51 -40t-83.5 -66.5t-119 -91v-111zM1092 1307q0 73 55 73q49 0 79.5 -86t30.5 -186q0 -6 -1 -19.5t-1 -19.5q-68 14 -115.5 79.5t-47.5 158.5z" />
<glyph unicode="&#xa6;" horiz-adv-x="739" d="M96 -145q0 -4 3 -8.5t29.5 -10.5t74.5 -6q12 0 22.5 11.5t19 35.5t12.5 37.5t11 42.5l148 614q-2 7 -38.5 18t-66.5 11q-43 0 -49 -29zM338 881q0 -7 6 -11t36.5 -8t86.5 -4q20 0 25 23l153 632q0 5 -72 5q-16 0 -27 -0.5t-21 -3.5t-15.5 -5t-12 -10.5t-9 -13t-7 -19 t-6.5 -23.5l-7 -31.5t-9 -37.5z" />
<glyph unicode="&#xa7;" horiz-adv-x="1069" d="M80 150q0 -67 44.5 -116t105.5 -70t126 -21q77 0 159.5 23t155.5 65t120 110.5t47 149.5q0 29 -7 51q-11 64 -63 119q188 125 188 323q0 48 -26 90.5t-67 74.5t-91 62t-100.5 58t-91.5 56t-67 62.5t-26 72.5q0 67 53.5 120.5t126 79t142.5 25.5q180 0 180 -170 q0 -21 -41 -48t-110.5 -60t-77.5 -38v-84q45 16 215 115t170 117q0 55 -19.5 99.5t-49.5 72t-70 45.5t-78.5 25.5t-77.5 7.5q-69 0 -143 -15t-146.5 -46.5t-130.5 -75t-93.5 -106.5t-35.5 -136q0 -79 100 -162q-93 -57 -147.5 -140t-54.5 -186q0 -42 48.5 -85.5t117.5 -83 t138.5 -82t118 -97.5t48.5 -114q0 -48 -26 -90t-64.5 -68.5t-80.5 -41.5t-77 -15t-62 5.5t-44.5 12.5t-29.5 22.5t-18 26t-8.5 33t-3 34.5t-0.5 38q0 38 4 84l-37 -3q-60 -2 -101.5 -36t-41.5 -90zM385 788q0 104 94 181q21 -14 66.5 -43.5t69 -45.5t58 -43t51.5 -47 t30.5 -45.5t13.5 -50.5q0 -95 -76 -168q-32 22 -81.5 51.5t-84.5 51t-69.5 47.5t-53 54t-18.5 58z" />
<glyph unicode="&#xa8;" d="M372 1062q0 -34 19.5 -56t58.5 -22q66 0 119 52t53 106q0 33 -28 55.5t-83 22.5q-58 0 -98.5 -51.5t-40.5 -106.5zM854 1062q0 -34 19.5 -56t60.5 -22q66 0 118 51.5t52 106.5q0 34 -27.5 56t-83.5 22q-57 0 -98 -51.5t-41 -106.5z" />
<glyph unicode="&#xa9;" horiz-adv-x="1819" d="M111 711q0 -158 44 -288.5t117.5 -218t170.5 -147.5t200 -87t209 -27q169 0 311.5 45.5t241.5 123.5t168.5 182t102 219.5t32.5 238.5q0 117 -30.5 227.5t-93 208.5t-150 171.5t-209.5 116t-264 42.5q-157 0 -295.5 -47.5t-238 -127.5t-172 -184t-108.5 -218.5 t-36 -229.5zM221 729q0 155 64.5 288.5t169 221t235 137t264.5 49.5q116 0 217 -36t174.5 -98.5t127 -147t81.5 -182.5t31 -203q0 -160 -60.5 -297.5t-161 -229t-231 -143t-270.5 -51.5q-93 0 -182.5 25t-173 79.5t-146.5 133.5t-101 196.5t-38 257.5zM467 664 q0 -107 37.5 -196t117.5 -145.5t189 -56.5q234 0 502 256v94q-223 -217 -428 -217q-69 0 -122 26.5t-83.5 73t-46 104t-15.5 124.5q0 78 29 160.5t79 151.5t124 113t156 44q37 0 67.5 -60t30.5 -100q0 -20 -35 -42.5t-76.5 -40t-76.5 -41.5t-35 -46q0 -14 7.5 -24.5 t20.5 -10.5q10 0 149.5 71t172.5 93q26 18 26 58q0 90 -71 154.5t-162 64.5q-161 0 -290 -86t-198 -224.5t-69 -297.5z" />
<glyph unicode="&#xaa;" horiz-adv-x="885" d="M53 997q0 -33 5 -64t17 -61t36 -48.5t57 -18.5q73 0 146.5 51t125.5 121q-6 -57 -6 -72q0 -100 58 -100q50 0 169.5 98t188.5 172v84q-179 -190 -229 -190q-14 0 -19.5 10.5t-5.5 36.5q0 27 19 122.5t42 197t23 102.5q-77 24 -127 24q-98 0 -191.5 -41.5t-160.5 -107 t-107.5 -149.5t-40.5 -167zM213 1040q0 79 44.5 163.5t122 143t159.5 58.5l-90 -373q-35 -38 -82 -72t-78 -34q-39 0 -57.5 32t-18.5 82z" />
<glyph unicode="&#xab;" horiz-adv-x="1122" d="M55 616q0 -80 332 -493q71 -88 119 -88q38 0 59 18.5t21 42.5q0 61 -127 217l-92 125l-140 211l154 180q52 71 118 135t101 96.5t35 51.5q0 53 -55 53q-39 0 -77.5 -23.5t-61.5 -49.5t-56.5 -69t-46.5 -58l-156 -174q-18 -21 -43 -48t-37 -40t-24.5 -30t-17.5 -30t-5 -27 zM449 616q0 -73 311 -452q71 -88 119 -88q38 0 58.5 18.5t20.5 42.5q0 61 -127 217l-210 295l153 180q52 71 118 135t101 96.5t35 51.5q0 53 -55 53q-39 0 -77 -23.5t-61.5 -50t-56.5 -69t-47 -57.5l-156 -174q-18 -21 -42.5 -48t-36.5 -40t-24.5 -30t-17.5 -30t-5 -27z" />
<glyph unicode="&#xad;" horiz-adv-x="1038" d="M213 1004q0 -41 57 -41q256 18 346 18q21 0 67.5 -1t70.5 -1q38 0 69 33t31 63q0 41 -209 41q-116 0 -236.5 -9.5t-146.5 -16.5q-49 -16 -49 -86z" />
<glyph unicode="&#xae;" horiz-adv-x="1819" d="M111 711q0 -158 44 -288.5t117.5 -218t170.5 -147.5t200 -87t209 -27q169 0 311.5 45.5t241.5 123.5t168.5 182t102 219.5t32.5 238.5q0 117 -30.5 227.5t-93 208.5t-150 171.5t-209.5 116t-264 42.5q-157 0 -295.5 -47.5t-238 -127.5t-172 -184t-108.5 -218.5 t-36 -229.5zM221 729q0 155 64.5 288.5t169 221t235 137t264.5 49.5q116 0 217 -36t174.5 -98.5t127 -147t81.5 -182.5t31 -203q0 -160 -60.5 -297.5t-161 -229t-231 -143t-270.5 -51.5q-93 0 -182.5 25t-173 79.5t-146.5 133.5t-101 196.5t-38 257.5zM324 467 q0 -80 64 -125t147 -45q46 0 85 13.5t68 33.5t54.5 54.5t42 64t33.5 75.5t26 76.5t22 77.5q21 -30 54.5 -105.5t61 -134.5t75 -107t102.5 -48q115 0 320 248v84q-6 -5 -37 -36t-60 -58.5t-63 -58.5t-60 -49.5t-38 -18.5q-7 0 -15 16q-20 34 -50 103t-61 122t-71 88 q53 14 91.5 26t87.5 35.5t80 51t53 71t22 95.5q0 68 -41.5 121.5t-105.5 83t-131.5 44.5t-129.5 15q-51 0 -113.5 -8.5t-134 -29.5t-129.5 -51.5t-96.5 -80.5t-38.5 -111q0 -76 57.5 -128t139.5 -76q18 46 18 114q-28 11 -46.5 21t-36 31t-17.5 47q0 49 44.5 87t110.5 56.5 t124.5 27.5t103.5 9q54 0 108.5 -19t95 -62t40.5 -99q0 -68 -49.5 -123.5t-117 -83.5t-132.5 -29q42 217 57 344h-49q-27 0 -46 -3t-32 -11t-20.5 -15t-12 -23.5t-6.5 -27.5t-5 -35.5t-5 -39.5q-48 -267 -87 -390q-61 -190 -126 -190q-70 0 -70 104q0 9 6 60l-20 2 q-21 0 -43 -3.5t-45.5 -12t-38 -25t-14.5 -39.5z" />
<glyph unicode="&#xaf;" horiz-adv-x="1038" d="M213 1004q0 -41 57 -41q256 18 346 18q21 0 67.5 -1t70.5 -1q38 0 69 33t31 63q0 41 -209 41q-116 0 -236.5 -9.5t-146.5 -16.5q-49 -16 -49 -86z" />
<glyph unicode="&#xb0;" horiz-adv-x="682" d="M59 1227q0 -123 76 -188.5t178 -65.5q125 0 217.5 85.5t92.5 225.5q0 106 -66.5 180t-187.5 74q-98 0 -170.5 -47t-106 -116.5t-33.5 -147.5zM182 1229q0 78 49 140.5t131 62.5q73 0 108.5 -43.5t35.5 -110.5q0 -76 -52 -137.5t-135 -61.5q-70 0 -103.5 44t-33.5 106z " />
<glyph unicode="&#xb1;" horiz-adv-x="1120" d="M139 -33q0 -41 58 -41q227 19 305 19q21 0 66.5 -1t70.5 -1q38 0 69 33t31 63q0 41 -209 41q-50 0 -181 -10.5t-161 -16.5q-49 -15 -49 -86zM160 428q0 -29 49 -29l244 13l-47 -201q-5 -7 -5 -25q0 -32 33 -32q44 0 68 15t28 34l54 215h78q21 0 66.5 -1t70.5 -1 q37 0 79 35.5t42 64.5q0 37 -201 37q-68 0 -101 -2l21 80q23 97 23 155q0 54 -21 54q-29 0 -63 -12.5t-37 -26.5q-7 -35 -22 -101t-21 -98l-15 -55q-175 -8 -254 -21q-8 -2 -18 -7.5t-22.5 -16t-20.5 -30t-8 -44.5z" />
<glyph unicode="&#xb2;" horiz-adv-x="817" d="M47 8q0 -28 47 -28q51 0 149.5 9t147.5 9q35 0 101.5 -9t101.5 -9q25 0 45 45t20 77q0 48 -102 48q-46 0 -100 -9.5t-118.5 -24t-98.5 -20.5q188 140 304 265q222 239 222 434q0 23 -5.5 51.5t-25.5 68.5t-51.5 71.5t-91 54t-137.5 22.5q-145 0 -243.5 -96t-98.5 -262 q0 -17 89 -79.5t111 -62.5q17 0 26 11t9 22q0 15 -10 26t-24 17.5t-33.5 22.5t-34.5 38q0 70 23.5 127.5t59.5 90.5t75 51t75 18q65 0 95 -49.5t30 -151.5q0 -68 -27 -141t-63.5 -130t-99 -127.5t-106.5 -112.5t-115.5 -107.5t-98.5 -91.5q-47 -44 -47 -68z" />
<glyph unicode="&#xb3;" horiz-adv-x="842" d="M39 166q0 -58 47.5 -102.5t108 -64t116.5 -19.5q99 0 192.5 44.5t155.5 128t62 183.5q0 71 -46.5 132t-119.5 81q97 40 167.5 120t70.5 181q0 213 -295 213q-123 0 -223.5 -81.5t-100.5 -176.5q0 -13 82 -67t100 -54q13 0 20 11.5t7 25.5q-6 6 -40 36.5t-42 43.5 q0 55 82 127.5t133 72.5q60 0 89.5 -36.5t29.5 -96.5q0 -95 -62.5 -190.5t-146.5 -106.5q-7 -1 -25.5 -1t-27.5 -1.5t-18 -11.5t-9 -29q0 -23 11 -31t32 -8h29q67 0 99 -39.5t32 -103.5q0 -103 -67.5 -198t-159.5 -95q-40 0 -64 22.5t-33 54.5t-16 64.5t-21.5 55t-40.5 22.5 q-45 0 -76.5 -30.5t-31.5 -75.5z" />
<glyph unicode="&#xb4;" d="M872 995l23 -55q286 99 397 143l88 35q19 5 19 29q0 30 -36.5 66t-70.5 36q-74 -4 -203 -88.5t-217 -165.5z" />
<glyph unicode="&#xb5;" horiz-adv-x="993" d="M-100 -225q0 -33 21.5 -51.5t53.5 -18.5q40 0 70.5 26.5t36.5 75.5l22 216q44 -52 113 -52q86 0 182.5 74t145.5 150q-10 -58 -10 -93q0 -131 86 -131q32 0 73 17.5t76 39.5t87.5 65t83.5 71.5t90 84t83 77.5v112q-219 -211 -279 -260t-81 -49q-16 0 -20.5 5.5t-4.5 21.5 q0 14 8 90q10 45 47.5 185.5t69.5 258.5l33 117h-68h-9q-32 0 -47.5 -2t-36.5 -12.5t-35 -36t-25 -68.5l-109 -416q-14 -29 -98.5 -78t-141.5 -49q-67 0 -67 74q0 40 41 184t82 273t41 131h-35q-158 0 -162 -25q-89 -260 -151 -475q-27 -91 -66 -209.5t-65.5 -198 t-30.5 -94.5q-4 -10 -4 -30z" />
<glyph unicode="&#xb6;" horiz-adv-x="1217" d="M90 1061q0 94 48.5 175.5t142.5 145t248.5 100t351.5 36.5q168 0 311 -11l-37 -116q-59 2 -233 2q28 -10 42.5 -21.5t14.5 -32.5l-174 -725q-18 -63 -48.5 -182.5t-68 -273t-45.5 -187.5h-164q25 127 146 631q145 619 198 789q-40 -2 -118 -15q-58 -235 -351 -1405h-168 q25 116 189 789q-127 21 -206 105t-79 196z" />
<glyph unicode="&#xb7;" horiz-adv-x="422" d="M78 647q0 -34 19.5 -56t60.5 -22q66 0 118 51.5t52 106.5q0 34 -27.5 56t-83.5 22q-57 0 -98 -51.5t-41 -106.5z" />
<glyph unicode="&#xb8;" horiz-adv-x="709" d="M215 -430l16 -62q58 12 106 60t74 109t40 115.5t14 90.5q0 117 -105 117q-65 0 -102 -27t-37 -63q0 -26 20 -49.5t58 -34.5q0 -49 -8.5 -93t-21 -72.5t-25 -50t-20.5 -30.5z" />
<glyph unicode="&#xb9;" horiz-adv-x="502" d="M18 786q0 -21 19 -26q27 0 108.5 55.5t141.5 104.5q-1 -3 -3.5 -12.5t-9.5 -37.5t-16.5 -65t-28.5 -110.5t-41 -159.5q-7 -27 -45.5 -169.5t-54.5 -218.5q-18 -81 -18 -116q0 -31 18 -31h141q6 0 11 3.5t9 10.5t7 14.5t6 19t5 21t4 23.5t3 22.5t2.5 22t2.5 19.5l194 860 v20q0 27 -16 27q-9 0 -21 -6q-145 -75 -375 -223q-43 -28 -43 -48z" />
<glyph unicode="&#xba;" horiz-adv-x="838" d="M57 1065q0 -67 19.5 -124t68.5 -97.5t119 -40.5q86 0 166.5 45t136.5 117q28 -11 62 -11q31 0 64 18t54 37t68 66v86q-16 -17 -45 -47.5t-42.5 -43.5t-33 -30t-34 -23.5t-29.5 -6.5q-11 0 -31 8q31 39 50.5 90.5t19.5 99.5q0 60 -32 96.5t-97 36.5q-74 0 -110 -37 t-36 -98q0 -60 30.5 -118t88.5 -95q-58 -67 -125 -67q-66 0 -111 60.5t-45 152.5q0 116 78.5 198t225.5 82q13 9 15.5 15t2.5 20q-3 8 -18 8q-218 0 -349 -106.5t-131 -290.5zM473 1196q0 32 16 53t46 21q61 0 61 -70q0 -36 -15 -81.5t-30 -69.5q-36 26 -57 67.5t-21 79.5z " />
<glyph unicode="&#xbb;" horiz-adv-x="1544" d="M289 190q-5 -53 49 -53q39 0 79.5 23.5t65.5 49.5t62.5 69.5t52.5 58.5l170 174q16 15 39.5 36.5t33.5 31t22 23t16.5 23t5.5 19.5q7 73 -273 453q-64 88 -112 88q-60 0 -60 -21q-5 -60 109 -217l186 -295l-170 -180q-58 -71 -129.5 -134.5t-108.5 -96.5t-38 -52z M692 160q-1 -29 14 -41.5t37 -12.5q39 0 79.5 24t65.5 49.5t62.5 69.5t50.5 58l173 174q17 16 38.5 36.5t33 31t23 23.5t16 22.5t5.5 19.5q7 79 -291 494q-60 88 -110 88q-29 0 -45.5 -6t-16.5 -14q-5 -60 109 -218l82 -124l121 -211l-168 -181q-46 -56 -101 -108.5 t-90.5 -80.5t-61 -53t-26.5 -40z" />
<glyph unicode="&#xbc;" horiz-adv-x="1630" d="M53 1259q0 -21 19 -26q27 0 108.5 55.5t141.5 104.5q-1 -3 -3.5 -12.5t-9.5 -37.5t-16.5 -65t-28.5 -110.5t-41 -159.5q-7 -27 -45.5 -169.5t-54.5 -218.5q-18 -81 -18 -116q0 -31 18 -31h141q6 0 11 3.5t9 10.5t7 14.5t6 19t5 21t4 23.5t3 22.5t2.5 22t2.5 19.5l194 860 v20q0 27 -16 27q-9 0 -21 -6q-145 -75 -375 -223q-43 -28 -43 -48zM172 -117q0 -24 25 -24q18 0 36 11.5t36.5 37t29 41.5t30 51t21.5 39l840 1474q6 21 6 33q0 13 -6 23t-14 10q-24 0 -40.5 -1t-32.5 -5.5t-25.5 -7.5t-22 -15t-18.5 -18.5t-19 -27.5t-19.5 -33.5t-24 -44 t-28.5 -52.5q-271 -505 -702 -1325q-72 -118 -72 -166zM749 279q0 -28 18 -45.5t33 -22t25 -4.5q38 0 96 31q45 -9 114 -20.5t85 -14.5q-24 -59 -72 -189l4 -14h109q9 0 19 17t15 34l5 17l51 122q17 -2 45 -2q55 0 95 13t61.5 29.5t67.5 56.5t87 69l-34 60 q-33 -28 -78.5 -56t-54.5 -30q-55 -31 -146 -31q99 249 107 287h-64q-61 0 -74 -19q-15 -38 -49.5 -124.5t-52.5 -131.5q-77 14 -143 35q221 473 323 703q-7 14 -33 14q-30 0 -52.5 -3.5t-40 -9t-32 -20t-25 -27t-22.5 -40.5t-21 -51t-24 -66l-206 -475l-76 -29 q-20 -6 -31 -11.5t-20 -18.5t-9 -33z" />
<glyph unicode="&#xbd;" horiz-adv-x="1640" d="M55 1259q0 -21 19 -26q27 0 108.5 55.5t141.5 104.5q-1 -3 -3.5 -12.5t-9.5 -37.5t-16.5 -65t-28.5 -110.5t-41 -159.5q-7 -27 -45.5 -169.5t-54.5 -218.5q-18 -81 -18 -116q0 -31 18 -31h141q6 0 11 3.5t9 10.5t7 14.5t6 19t5 21t4 23.5t3 22.5t2.5 22t2.5 19.5l194 860 v20q0 27 -16 27q-9 0 -21 -6q-145 -75 -375 -223q-43 -28 -43 -48zM147 -117q0 -24 25 -24q18 0 36 11.5t37 37t29.5 41.5t30 51t21.5 39l839 1474q6 21 6 33q0 13 -6 23t-14 10q-23 0 -40 -1t-32.5 -5.5t-25 -7.5t-22 -15t-18.5 -18.5t-19 -27.5t-20 -33.5t-24 -44 t-28 -52.5q-17 -30 -313 -588.5t-390 -736.5q-1 -1 -8.5 -14.5t-14.5 -25.5t-16.5 -31t-16 -34.5t-11.5 -32t-5 -28.5zM885 8q0 -28 47 -28q51 0 149.5 9t147.5 9q35 0 101.5 -9t101.5 -9q25 0 45 45t20 77q0 48 -102 48q-46 0 -100 -9.5t-118.5 -24t-98.5 -20.5 q188 140 304 265q222 239 222 434q0 23 -5.5 51.5t-25.5 68.5t-51.5 71.5t-91 54t-137.5 22.5q-145 0 -243.5 -96t-98.5 -262q0 -17 89 -79.5t111 -62.5q17 0 26 11t9 22q0 15 -10 26t-24 17.5t-33.5 22.5t-34.5 38q0 70 23.5 127.5t59.5 90.5t75 51t75 18q65 0 95 -49.5 t30 -151.5q0 -68 -27 -141t-63.5 -130t-99 -127.5t-106.5 -112.5t-115.5 -107.5t-98.5 -91.5q-47 -44 -47 -68z" />
<glyph unicode="&#xbe;" horiz-adv-x="1833" d="M39 639q0 -58 47.5 -102.5t108 -64t116.5 -19.5q99 0 192.5 44.5t155.5 128t62 183.5q0 71 -46.5 132t-119.5 81q97 40 167.5 120t70.5 181q0 213 -295 213q-123 0 -223.5 -81.5t-100.5 -176.5q0 -13 82 -67t100 -54q13 0 20 11.5t7 25.5q-6 6 -40 36.5t-42 43.5 q0 55 82 127.5t133 72.5q60 0 89.5 -36.5t29.5 -96.5q0 -95 -62.5 -190.5t-146.5 -106.5q-7 -1 -25.5 -1t-27.5 -1.5t-18 -11.5t-9 -29q0 -23 11 -31t32 -8h29q67 0 99 -39.5t32 -103.5q0 -103 -67.5 -198t-159.5 -95q-40 0 -64 22.5t-33 55t-16 64.5t-21.5 54.5t-40.5 22.5 q-45 0 -76.5 -30.5t-31.5 -75.5zM434 -117q0 -24 25 -24q13 0 26.5 6.5t26.5 20t23.5 26t23 33t20 33t19 34t14.5 27.5l840 1474q6 21 6 33q0 13 -6 23t-14 10q-23 0 -40 -1t-32.5 -5.5t-25 -7.5t-22 -14.5t-19 -18.5t-19 -28t-19.5 -33.5t-24 -44t-29 -52.5 q-271 -505 -702 -1325q-1 -1 -8.5 -14.5t-14.5 -25.5t-16.5 -31t-16 -34.5t-11.5 -32t-5 -28.5zM946 279q0 -28 18 -45.5t33 -22t25 -4.5q38 0 96 31q45 -9 114 -20.5t85 -14.5q-24 -59 -72 -189l4 -14h109q9 0 19 17t15 34l5 17l51 122q17 -2 45 -2q55 0 95 13t61.5 29.5 t67.5 56.5t87 69l-34 60q-33 -28 -78.5 -56t-54.5 -30q-55 -31 -146 -31q99 249 107 287h-64q-61 0 -74 -19q-15 -38 -49.5 -124.5t-52.5 -131.5q-77 14 -143 35q221 473 323 703q-7 14 -33 14q-30 0 -52.5 -3.5t-40 -9t-32 -20t-25 -27t-22.5 -40.5t-21 -51t-24 -66 l-206 -475l-76 -29q-20 -6 -31 -11.5t-20 -18.5t-9 -33z" />
<glyph unicode="&#xbf;" horiz-adv-x="999" d="M37 326q0 -85 43.5 -154.5t116 -112t162.5 -65.5t188 -23q77 0 157 24t153.5 81t103.5 135q10 23 10 51q0 92 -119 97l-43 2q-4 -12 -12.5 -42.5t-14 -46t-15.5 -43.5t-21 -44t-27 -38t-36 -34.5t-45.5 -25t-59 -18t-72.5 -5.5q-68 0 -130.5 24.5t-106 76t-43.5 118.5 q0 53 29 106.5t75 101t102 96t112 99t102 102t75 113t29 123.5q0 20 -21 30.5t-55 10.5q-19 0 -38 -18.5t-29 -55.5q-6 -46 -40.5 -89t-85 -78t-110.5 -71.5t-119 -78.5t-107 -89.5t-78 -114.5t-30 -144zM553 1360q0 -34 27.5 -56t83.5 -22q57 0 98 51.5t41 106.5 q0 34 -19.5 56t-60.5 22q-66 0 -118 -51.5t-52 -106.5z" />
<glyph unicode="&#xc0;" horiz-adv-x="1391" d="M80 328q0 -192 82 -288.5t260 -96.5q105 0 235 69t238 181q-6 -49 -2 -94.5t15.5 -80t40.5 -55t73 -20.5q32 0 64.5 9.5t67.5 32.5t64 45.5t70 63t68.5 69.5t77 82.5t79.5 84.5v112q-211 -205 -253 -238q-44 -35 -81 -38h-22t-23 7.5t-12 24.5t-3.5 34t3.5 46.5t8 50.5 t11 56q117 609 202 838q3 4 3 16q0 19 -6 26t-21 7q-188 0 -207 -62q-24 -72 -98.5 -392t-98.5 -441q-17 -95 -109 -168.5t-181 -73.5q-134 0 -210.5 84.5t-76.5 243.5q0 104 43 220t113.5 220t165 200t195 165.5t205 111t193.5 41.5q233 0 291 -270q45 12 108.5 70 t63.5 100q0 52 -47.5 93t-116.5 62t-131.5 31.5t-107.5 10.5q-141 0 -291.5 -49t-285.5 -133t-256 -200.5t-209 -246.5t-139.5 -276.5t-51.5 -284.5zM942 1860q0 -24 18 -29l88 -35q110 -43 398 -143l22 55q-86 80 -215.5 165t-204.5 89q-34 0 -70 -36t-36 -66z" />
<glyph unicode="&#xc1;" horiz-adv-x="1391" d="M80 328q0 -192 82 -288.5t260 -96.5q105 0 235 69t238 181q-6 -49 -2 -94.5t15.5 -80t40.5 -55t73 -20.5q32 0 64.5 9.5t67.5 32.5t64 45.5t70 63t68.5 69.5t77 82.5t79.5 84.5v112q-211 -205 -253 -238q-44 -35 -81 -38h-22t-23 7.5t-12 24.5t-3.5 34t3.5 46.5t8 50.5 t11 56q117 609 202 838q3 4 3 16q0 19 -6 26t-21 7q-188 0 -207 -62q-24 -72 -98.5 -392t-98.5 -441q-17 -95 -109 -168.5t-181 -73.5q-134 0 -210.5 84.5t-76.5 243.5q0 104 43 220t113.5 220t165 200t195 165.5t205 111t193.5 41.5q233 0 291 -270q45 12 108.5 70 t63.5 100q0 52 -47.5 93t-116.5 62t-131.5 31.5t-107.5 10.5q-141 0 -291.5 -49t-285.5 -133t-256 -200.5t-209 -246.5t-139.5 -276.5t-51.5 -284.5zM1132 1708l23 -55q286 99 397 143l88 35q19 5 19 29q0 30 -36.5 66t-70.5 36q-74 -4 -203 -88.5t-217 -165.5z" />
<glyph unicode="&#xc2;" horiz-adv-x="1391" d="M80 328q0 -192 82 -288.5t260 -96.5q105 0 235 69t238 181q-6 -49 -2 -94.5t15.5 -80t40.5 -55t73 -20.5q32 0 64.5 9.5t67.5 32.5t64 45.5t70 63t68.5 69.5t77 82.5t79.5 84.5v112q-211 -205 -253 -238q-44 -35 -81 -38h-22t-23 7.5t-12 24.5t-3.5 34t3.5 46.5t8 50.5 t11 56q117 609 202 838q3 4 3 16q0 19 -6 26t-21 7q-188 0 -207 -62q-24 -72 -98.5 -392t-98.5 -441q-17 -95 -109 -168.5t-181 -73.5q-134 0 -210.5 84.5t-76.5 243.5q0 104 43 220t113.5 220t165 200t195 165.5t205 111t193.5 41.5q233 0 291 -270q45 12 108.5 70 t63.5 100q0 52 -47.5 93t-116.5 62t-131.5 31.5t-107.5 10.5q-141 0 -291.5 -49t-285.5 -133t-256 -200.5t-209 -246.5t-139.5 -276.5t-51.5 -284.5zM1059 1700l59 -43q21 19 62 61.5t100.5 105t99.5 103.5q23 -40 58.5 -103.5t59.5 -105.5t38 -61l72 41q-4 18 -37 106.5 t-83 189.5t-79 101q-57 0 -164.5 -129t-185.5 -266z" />
<glyph unicode="&#xc3;" horiz-adv-x="1391" d="M80 328q0 -192 82 -288.5t260 -96.5q105 0 235 69t238 181q-6 -49 -2 -94.5t15.5 -80t40.5 -55t73 -20.5q32 0 64.5 9.5t67.5 32.5t64 45.5t70 63t68.5 69.5t77 82.5t79.5 84.5v112q-211 -205 -253 -238q-44 -35 -81 -38h-22t-23 7.5t-12 24.5t-3.5 34t3.5 46.5t8 50.5 t11 56q117 609 202 838q3 4 3 16q0 19 -6 26t-21 7q-188 0 -207 -62q-24 -72 -98.5 -392t-98.5 -441q-17 -95 -109 -168.5t-181 -73.5q-134 0 -210.5 84.5t-76.5 243.5q0 104 43 220t113.5 220t165 200t195 165.5t205 111t193.5 41.5q233 0 291 -270q45 12 108.5 70 t63.5 100q0 52 -47.5 93t-116.5 62t-131.5 31.5t-107.5 10.5q-141 0 -291.5 -49t-285.5 -133t-256 -200.5t-209 -246.5t-139.5 -276.5t-51.5 -284.5zM1022 1880q0 -1 2 -20.5t5.5 -42.5t15 -52t28.5 -51.5t49.5 -38.5t75.5 -16q58 0 159 42t134 42q59 0 75 -88l125 19 q0 1 -2 20.5t-5.5 42.5t-15 52t-28.5 51.5t-49.5 38.5t-75.5 16q-51 0 -157.5 -38t-145.5 -38q-35 0 -55.5 18.5t-26.5 63.5z" />
<glyph unicode="&#xc4;" horiz-adv-x="1391" d="M80 328q0 -192 82 -288.5t260 -96.5q105 0 235 69t238 181q-6 -49 -2 -94.5t15.5 -80t40.5 -55t73 -20.5q32 0 64.5 9.5t67.5 32.5t64 45.5t70 63t68.5 69.5t77 82.5t79.5 84.5v112q-211 -205 -253 -238q-44 -35 -81 -38h-22t-23 7.5t-12 24.5t-3.5 34t3.5 46.5t8 50.5 t11 56q117 609 202 838q3 4 3 16q0 19 -6 26t-21 7q-188 0 -207 -62q-24 -72 -98.5 -392t-98.5 -441q-17 -95 -109 -168.5t-181 -73.5q-134 0 -210.5 84.5t-76.5 243.5q0 104 43 220t113.5 220t165 200t195 165.5t205 111t193.5 41.5q233 0 291 -270q45 12 108.5 70 t63.5 100q0 52 -47.5 93t-116.5 62t-131.5 31.5t-107.5 10.5q-141 0 -291.5 -49t-285.5 -133t-256 -200.5t-209 -246.5t-139.5 -276.5t-51.5 -284.5zM997 1740q0 -34 19.5 -56t58.5 -22q66 0 119 52t53 106q0 33 -28 55.5t-83 22.5q-58 0 -98.5 -51.5t-40.5 -106.5z M1479 1740q0 -34 19.5 -56t60.5 -22q66 0 118 51.5t52 106.5q0 34 -27.5 56t-83.5 22q-57 0 -98 -51.5t-41 -106.5z" />
<glyph unicode="&#xc5;" horiz-adv-x="1391" d="M80 328q0 -192 82 -288.5t260 -96.5q105 0 235 69t238 181q-6 -49 -2 -94.5t15.5 -80t40.5 -55t73 -20.5q32 0 64.5 9.5t67.5 32.5t64 45.5t70 63t68.5 69.5t77 82.5t79.5 84.5v112q-211 -205 -253 -238q-44 -35 -81 -38h-22t-23 7.5t-12 24.5t-3.5 34t3.5 46.5t8 50.5 t11 56q117 609 202 838q3 4 3 16q0 19 -6 26t-21 7q-188 0 -207 -62q-24 -72 -98.5 -392t-98.5 -441q-17 -95 -109 -168.5t-181 -73.5q-134 0 -210.5 84.5t-76.5 243.5q0 104 43 220t113.5 220t165 200t195 165.5t205 111t193.5 41.5q233 0 291 -270q45 12 108.5 70 t63.5 100q0 52 -47.5 93t-116.5 62t-131.5 31.5t-107.5 10.5q-141 0 -291.5 -49t-285.5 -133t-256 -200.5t-209 -246.5t-139.5 -276.5t-51.5 -284.5zM1190 1803q0 -78 47.5 -119t112.5 -41q78 0 136.5 54t58.5 142q0 66 -42.5 113t-117.5 47q-91 0 -143 -59t-52 -137z M1268 1805q0 50 30.5 88.5t82.5 38.5q46 0 68 -27t22 -70q0 -48 -32.5 -86.5t-84.5 -38.5q-44 0 -65 27.5t-21 67.5z" />
<glyph unicode="&#xc6;" horiz-adv-x="1878" d="M80 328q0 -192 82 -288.5t260 -96.5q102 0 232 70t243 182l21 -86q88 -27 160 -50.5t116 -40t77 -30t48.5 -21.5t26 -14t14.5 -8t8 -2q43 0 85 8.5t76 19.5t76.5 36.5t71 44t76 58t74.5 63.5t84 75.5t88 79.5v110q-83 -87 -157 -151t-120.5 -95t-86 -49t-54.5 -21t-27 -3 q-28 0 -108 26.5t-166.5 59.5t-93.5 35q-12 -2 -37 -2q-11 0 -29.5 1t-27.5 1q-6 0 -17 -1t-16 -1q137 226 190 419v2q140 11 434 11q38 0 69.5 33t31.5 63q0 33 -37 33q-117 6 -219 6q-114 0 -244 -10q38 118 92 326t62 235q61 -3 195.5 -24t197.5 -21q42 0 94 35l100 114 q19 19 19 31q0 27 -621 27q-178 0 -352.5 -49t-321 -133.5t-272 -200t-212.5 -246.5t-136 -276t-49 -285zM338 463q0 105 43.5 219.5t116.5 218.5t174.5 199.5t212.5 165.5t235 112t238 43l-41 -61q-68 -46 -105 -98q-71 -97 -186 -502q-165 -33 -193 -42q-74 -23 -82 -67 q-1 -6 -1 -14q0 -43 49 -43q2 0 4.5 1t3.5 1q115 26 182 35q-87 -314 -112 -352v-3q-52 -61 -122.5 -101t-129.5 -40q-134 0 -210.5 84.5t-76.5 243.5z" />
<glyph unicode="&#xc7;" horiz-adv-x="1268" d="M82 561q0 -95 20 -183t62.5 -167.5t104 -139t151 -94t196.5 -34.5q367 0 787 397v111q-165 -159 -339 -242.5t-329 -83.5q-197 0 -317.5 136.5t-120.5 397.5q0 103 28.5 209.5t84 202.5t130.5 172t175.5 123t210.5 51q27 0 51 -15t40.5 -38.5t30.5 -52t22.5 -57t14 -52 t8.5 -38.5l3 -15q0 -35 -55.5 -74t-122 -68t-122 -63.5t-55.5 -62.5q0 -17 9.5 -29t25.5 -12q11 0 23 6q73 34 249.5 131.5t229.5 124.5q37 18 37 76q0 134 -105 237t-254 103q-124 0 -236 -32t-199 -88t-160 -131.5t-124 -162t-86.5 -180t-52 -185.5t-16.5 -178zM471 -430 l16 -62q58 12 106 60t74 109t40 115.5t14 90.5q0 117 -105 117q-65 0 -102 -27t-37 -63q0 -26 20 -49.5t58 -34.5q0 -49 -8.5 -93t-21 -72.5t-25 -50t-20.5 -30.5z" />
<glyph unicode="&#xc8;" horiz-adv-x="1403" d="M-8 43q0 -30 14.5 -52t35 -31.5t35 -13t23.5 -3.5q66 0 158.5 47t183.5 119q88 -27 160.5 -50.5t116 -40t76.5 -30t49 -21.5t26 -14t14.5 -8t8.5 -2q43 0 85 8.5t75.5 19.5t76.5 36.5t71 44t76 58.5t74.5 63t84.5 75.5t88 79.5v110q-94 -98 -214.5 -193.5t-146.5 -99.5 q-51 -26 -84 -26q-28 0 -108 26.5t-166.5 59.5t-93.5 35q-13 -2 -37 -2q-11 0 -30 1t-28 1q-5 0 -16 -1t-16 -1q139 232 190 419v2q139 11 434 11q38 0 69.5 33t31.5 63q0 33 -37 33q-40 0 -112 3t-107 3q-114 0 -244 -10q37 118 91.5 324.5t62.5 236.5q61 -3 195.5 -24 t197.5 -21q42 0 94 35l100 114q19 19 19 31q0 27 -621 27h-291q-303 0 -479 -109.5t-176 -288.5q0 -84 80.5 -162.5t234.5 -132.5q11 9 20 50.5t9 76.5q-94 35 -145 85t-51 106q0 105 117.5 165t367.5 60q106 0 207 -8q-25 -17 -46.5 -37.5t-39 -39t-35 -48t-29.5 -49.5 t-27 -59t-23 -60.5t-23 -70t-21.5 -71.5t-23 -81t-23.5 -84q-131 -26 -225 -58q-13 -5 -19 -7.5t-15.5 -9.5t-13.5 -19t-4 -29q0 -23 20 -32.5t52.5 -6.5t63 9t63 14.5t41.5 9.5q-87 -314 -113 -352l-256 -117q-6 -3 -31.5 -14t-42 -19.5t-37 -22t-31.5 -29.5t-11 -34z M578 1860q0 -24 18 -29l88 -35q110 -43 398 -143l22 55q-86 80 -215.5 165t-204.5 89q-34 0 -70 -36t-36 -66z" />
<glyph unicode="&#xc9;" horiz-adv-x="1403" d="M-8 43q0 -30 14.5 -52t35 -31.5t35 -13t23.5 -3.5q66 0 158.5 47t183.5 119q88 -27 160.5 -50.5t116 -40t76.5 -30t49 -21.5t26 -14t14.5 -8t8.5 -2q43 0 85 8.5t75.5 19.5t76.5 36.5t71 44t76 58.5t74.5 63t84.5 75.5t88 79.5v110q-94 -98 -214.5 -193.5t-146.5 -99.5 q-51 -26 -84 -26q-28 0 -108 26.5t-166.5 59.5t-93.5 35q-13 -2 -37 -2q-11 0 -30 1t-28 1q-5 0 -16 -1t-16 -1q139 232 190 419v2q139 11 434 11q38 0 69.5 33t31.5 63q0 33 -37 33q-40 0 -112 3t-107 3q-114 0 -244 -10q37 118 91.5 324.5t62.5 236.5q61 -3 195.5 -24 t197.5 -21q42 0 94 35l100 114q19 19 19 31q0 27 -621 27h-291q-303 0 -479 -109.5t-176 -288.5q0 -84 80.5 -162.5t234.5 -132.5q11 9 20 50.5t9 76.5q-94 35 -145 85t-51 106q0 105 117.5 165t367.5 60q106 0 207 -8q-25 -17 -46.5 -37.5t-39 -39t-35 -48t-29.5 -49.5 t-27 -59t-23 -60.5t-23 -70t-21.5 -71.5t-23 -81t-23.5 -84q-131 -26 -225 -58q-13 -5 -19 -7.5t-15.5 -9.5t-13.5 -19t-4 -29q0 -23 20 -32.5t52.5 -6.5t63 9t63 14.5t41.5 9.5q-87 -314 -113 -352l-256 -117q-6 -3 -31.5 -14t-42 -19.5t-37 -22t-31.5 -29.5t-11 -34z M768 1708l23 -55q286 99 397 143l88 35q19 5 19 29q0 30 -36.5 66t-70.5 36q-74 -4 -203 -88.5t-217 -165.5z" />
<glyph unicode="&#xca;" horiz-adv-x="1403" d="M-8 43q0 -30 14.5 -52t35 -31.5t35 -13t23.5 -3.5q66 0 158.5 47t183.5 119q88 -27 160.5 -50.5t116 -40t76.5 -30t49 -21.5t26 -14t14.5 -8t8.5 -2q43 0 85 8.5t75.5 19.5t76.5 36.5t71 44t76 58.5t74.5 63t84.5 75.5t88 79.5v110q-94 -98 -214.5 -193.5t-146.5 -99.5 q-51 -26 -84 -26q-28 0 -108 26.5t-166.5 59.5t-93.5 35q-13 -2 -37 -2q-11 0 -30 1t-28 1q-5 0 -16 -1t-16 -1q139 232 190 419v2q139 11 434 11q38 0 69.5 33t31.5 63q0 33 -37 33q-40 0 -112 3t-107 3q-114 0 -244 -10q37 118 91.5 324.5t62.5 236.5q61 -3 195.5 -24 t197.5 -21q42 0 94 35l100 114q19 19 19 31q0 27 -621 27h-291q-303 0 -479 -109.5t-176 -288.5q0 -84 80.5 -162.5t234.5 -132.5q11 9 20 50.5t9 76.5q-94 35 -145 85t-51 106q0 105 117.5 165t367.5 60q106 0 207 -8q-25 -17 -46.5 -37.5t-39 -39t-35 -48t-29.5 -49.5 t-27 -59t-23 -60.5t-23 -70t-21.5 -71.5t-23 -81t-23.5 -84q-131 -26 -225 -58q-13 -5 -19 -7.5t-15.5 -9.5t-13.5 -19t-4 -29q0 -23 20 -32.5t52.5 -6.5t63 9t63 14.5t41.5 9.5q-87 -314 -113 -352l-256 -117q-6 -3 -31.5 -14t-42 -19.5t-37 -22t-31.5 -29.5t-11 -34z M695 1700l59 -43q21 19 62 61.5t100.5 105t99.5 103.5q23 -40 58.5 -103.5t59.5 -105.5t38 -61l72 41q-4 18 -37 106.5t-83 189.5t-79 101q-57 0 -164.5 -129t-185.5 -266z" />
<glyph unicode="&#xcb;" horiz-adv-x="1403" d="M-8 43q0 -30 14.5 -52t35 -31.5t35 -13t23.5 -3.5q66 0 158.5 47t183.5 119q88 -27 160.5 -50.5t116 -40t76.5 -30t49 -21.5t26 -14t14.5 -8t8.5 -2q43 0 85 8.5t75.5 19.5t76.5 36.5t71 44t76 58.5t74.5 63t84.5 75.5t88 79.5v110q-94 -98 -214.5 -193.5t-146.5 -99.5 q-51 -26 -84 -26q-28 0 -108 26.5t-166.5 59.5t-93.5 35q-13 -2 -37 -2q-11 0 -30 1t-28 1q-5 0 -16 -1t-16 -1q139 232 190 419v2q139 11 434 11q38 0 69.5 33t31.5 63q0 33 -37 33q-40 0 -112 3t-107 3q-114 0 -244 -10q37 118 91.5 324.5t62.5 236.5q61 -3 195.5 -24 t197.5 -21q42 0 94 35l100 114q19 19 19 31q0 27 -621 27h-291q-303 0 -479 -109.5t-176 -288.5q0 -84 80.5 -162.5t234.5 -132.5q11 9 20 50.5t9 76.5q-94 35 -145 85t-51 106q0 105 117.5 165t367.5 60q106 0 207 -8q-25 -17 -46.5 -37.5t-39 -39t-35 -48t-29.5 -49.5 t-27 -59t-23 -60.5t-23 -70t-21.5 -71.5t-23 -81t-23.5 -84q-131 -26 -225 -58q-13 -5 -19 -7.5t-15.5 -9.5t-13.5 -19t-4 -29q0 -23 20 -32.5t52.5 -6.5t63 9t63 14.5t41.5 9.5q-87 -314 -113 -352l-256 -117q-6 -3 -31.5 -14t-42 -19.5t-37 -22t-31.5 -29.5t-11 -34z M632 1740q0 -34 19.5 -56t58.5 -22q66 0 119 52t53 106q0 33 -28 55.5t-83 22.5q-58 0 -98.5 -51.5t-40.5 -106.5zM1114 1740q0 -34 19.5 -56t60.5 -22q66 0 118 51.5t52 106.5q0 34 -27.5 56t-83.5 22q-57 0 -98 -51.5t-41 -106.5z" />
<glyph unicode="&#xcc;" horiz-adv-x="1061" d="M207 172q0 -56 27.5 -102t71 -72.5t92.5 -40.5t96 -14q81 0 149 25.5t115.5 60.5t89 100t65.5 115.5t48.5 136t35 133t27.5 133.5l33 146q67 303 192 518q62 21 101 82.5t51 136.5q-33 -2 -105.5 -23.5t-117.5 -21.5q-109 0 -211.5 -21t-182 -56.5t-149 -81.5t-119 -96.5 t-85 -101t-52.5 -95t-17 -79.5q0 -32 15 -63t50 -62.5t86.5 -56.5t130 -44t175.5 -26l-14 -77q-42 -231 -80 -340q-83 -244 -213 -244q-30 0 -51.5 11t-32.5 26.5t-17.5 41t-8 45.5t-1.5 48q0 19 1 50t1 40q-196 0 -196 -131zM526 950q0 21 20.5 60.5t69.5 90.5t117 95.5 t177 75.5t235 31q-116 -64 -181 -178.5t-110 -282.5q-165 9 -246.5 37.5t-81.5 70.5zM846 1860q0 -24 18 -29l88 -35q110 -43 398 -143l22 55q-86 80 -215.5 165t-204.5 89q-34 0 -70 -36t-36 -66z" />
<glyph unicode="&#xcd;" horiz-adv-x="1061" d="M207 172q0 -56 27.5 -102t71 -72.5t92.5 -40.5t96 -14q81 0 149 25.5t115.5 60.5t89 100t65.5 115.5t48.5 136t35 133t27.5 133.5l33 146q67 303 192 518q62 21 101 82.5t51 136.5q-33 -2 -105.5 -23.5t-117.5 -21.5q-109 0 -211.5 -21t-182 -56.5t-149 -81.5t-119 -96.5 t-85 -101t-52.5 -95t-17 -79.5q0 -32 15 -63t50 -62.5t86.5 -56.5t130 -44t175.5 -26l-14 -77q-42 -231 -80 -340q-83 -244 -213 -244q-30 0 -51.5 11t-32.5 26.5t-17.5 41t-8 45.5t-1.5 48q0 19 1 50t1 40q-196 0 -196 -131zM526 950q0 21 20.5 60.5t69.5 90.5t117 95.5 t177 75.5t235 31q-116 -64 -181 -178.5t-110 -282.5q-165 9 -246.5 37.5t-81.5 70.5zM1036 1708l23 -55q286 99 397 143l88 35q19 5 19 29q0 30 -36.5 66t-70.5 36q-74 -4 -203 -88.5t-217 -165.5z" />
<glyph unicode="&#xce;" horiz-adv-x="1061" d="M207 172q0 -56 27.5 -102t71 -72.5t92.5 -40.5t96 -14q81 0 149 25.5t115.5 60.5t89 100t65.5 115.5t48.5 136t35 133t27.5 133.5l33 146q67 303 192 518q62 21 101 82.5t51 136.5q-33 -2 -105.5 -23.5t-117.5 -21.5q-109 0 -211.5 -21t-182 -56.5t-149 -81.5t-119 -96.5 t-85 -101t-52.5 -95t-17 -79.5q0 -32 15 -63t50 -62.5t86.5 -56.5t130 -44t175.5 -26l-14 -77q-42 -231 -80 -340q-83 -244 -213 -244q-30 0 -51.5 11t-32.5 26.5t-17.5 41t-8 45.5t-1.5 48q0 19 1 50t1 40q-196 0 -196 -131zM526 950q0 21 20.5 60.5t69.5 90.5t117 95.5 t177 75.5t235 31q-116 -64 -181 -178.5t-110 -282.5q-165 9 -246.5 37.5t-81.5 70.5zM963 1700l59 -43q21 19 62 61.5t100.5 105t99.5 103.5q23 -40 58.5 -103.5t59.5 -105.5t38 -61l72 41q-4 18 -37 106.5t-83 189.5t-79 101q-57 0 -164.5 -129t-185.5 -266z" />
<glyph unicode="&#xcf;" horiz-adv-x="1061" d="M207 172q0 -56 27.5 -102t71 -72.5t92.5 -40.5t96 -14q81 0 149 25.5t115.5 60.5t89 100t65.5 115.5t48.5 136t35 133t27.5 133.5l33 146q67 303 192 518q62 21 101 82.5t51 136.5q-33 -2 -105.5 -23.5t-117.5 -21.5q-109 0 -211.5 -21t-182 -56.5t-149 -81.5t-119 -96.5 t-85 -101t-52.5 -95t-17 -79.5q0 -32 15 -63t50 -62.5t86.5 -56.5t130 -44t175.5 -26l-14 -77q-42 -231 -80 -340q-83 -244 -213 -244q-30 0 -51.5 11t-32.5 26.5t-17.5 41t-8 45.5t-1.5 48q0 19 1 50t1 40q-196 0 -196 -131zM526 950q0 21 20.5 60.5t69.5 90.5t117 95.5 t177 75.5t235 31q-116 -64 -181 -178.5t-110 -282.5q-165 9 -246.5 37.5t-81.5 70.5zM900 1740q0 -34 19.5 -56t58.5 -22q66 0 119 52t53 106q0 33 -28 55.5t-83 22.5q-58 0 -98.5 -51.5t-40.5 -106.5zM1382 1740q0 -34 19.5 -56t60.5 -22q66 0 118 51.5t52 106.5 q0 34 -27.5 56t-83.5 22q-57 0 -98 -51.5t-41 -106.5z" />
<glyph unicode="&#xd0;" horiz-adv-x="1780" d="M-53 184q0 -88 74.5 -163.5t181.5 -75.5q123 0 213 38t168 150q138 -190 366 -190q154 0 290.5 70.5t233 189.5t153 282.5t56.5 343.5q0 96 -25.5 191t-82.5 185.5t-138 159.5t-201.5 111t-264.5 42q-181 0 -333 -30.5t-255.5 -81.5t-176 -118.5t-105.5 -140t-33 -146.5 q0 -107 75 -194.5t224 -134.5q8 15 17 65.5t9 96.5q-164 63 -164 180q0 85 89.5 174t233 147t288.5 58q122 0 220.5 -34t165.5 -93t112.5 -141t66 -175t20.5 -198q0 -152 -42 -284t-110.5 -220t-155 -138.5t-175.5 -50.5q-90 0 -174 58.5t-113 146.5q62 127 101 258h28 q21 0 67 -1t71 -1q37 0 68.5 33t31.5 63q0 41 -209 41h-22q27 119 56.5 331t37.5 259h-94q-116 0 -129 -39l-109 -563q-100 -6 -123 -14q-49 -13 -49 -86q0 -41 57 -41l84 6q-62 -238 -125 -367q-22 -49 -58 -75.5t-75 -26.5q-68 0 -93.5 49t-25.5 131q0 20 3.5 54.5 t3.5 50.5q-205 0 -205 -142z" />
<glyph unicode="&#xd1;" horiz-adv-x="1473" d="M-2 1126q0 -51 27 -51l30 10l322 228l-82 -318q-31 -138 -93.5 -364t-99 -382t-36.5 -249h206q8 32 42 196t57 246q51 181 143 345.5t226.5 303t292.5 218.5q18 9 33 9q21 0 33 -17t12 -44t-11 -55q-137 -432 -137 -940q0 -319 137 -319q15 0 34 5.5t42 19t42.5 25 t47.5 33.5t44.5 34.5t46 39t39 35t36.5 33.5l28 25q11 10 68.5 68.5t66.5 68.5l2 110l-256 -245q-47 -48 -84 -48q-69 0 -69 199q0 137 41.5 387.5t83 456t41.5 233.5q0 93 -84 93q-23 0 -46 -2t-66 -13t-86 -29t-104 -54t-123 -84.5t-139.5 -124t-156.5 -169.5l16 82 q0 12 39 164.5t39 210.5q0 19 -20 19q-49 0 -170 -78l-430 -271q-25 -17 -25 -41zM697 1880q0 -1 2 -20.5t5.5 -42.5t15 -52t28.5 -51.5t49.5 -38.5t75.5 -16q58 0 159 42t134 42q59 0 75 -88l125 19q0 1 -2 20.5t-5.5 42.5t-15 52t-28.5 51.5t-49.5 38.5t-75.5 16 q-51 0 -157.5 -38t-145.5 -38q-35 0 -55.5 18.5t-26.5 63.5z" />
<glyph unicode="&#xd2;" horiz-adv-x="1653" d="M100 664q0 -149 33 -270.5t90 -204t135.5 -139t168 -82t188.5 -25.5q167 0 332 68.5t298.5 199.5t194.5 299q178 35 313 141v92q-143 -85 -280 -106q12 61 12 131q0 116 -32 208.5t-85.5 148.5t-117.5 85t-133 29q-177 0 -268 -90t-91 -223q0 -105 43.5 -188.5 t117 -135.5t166.5 -79t197 -27h13q-80 -149 -222 -242.5t-331 -93.5q-81 0 -155 22t-140 68.5t-114.5 114.5t-76.5 166.5t-28 216.5q0 89 31.5 182.5t93.5 179t146.5 153t199 108t241.5 40.5q52 0 99 -8l4 102q-76 13 -137 13q-163 0 -310 -51.5t-253.5 -137.5t-185 -196 t-118 -231t-39.5 -238zM766 1860q0 -24 18 -29l88 -35q110 -43 398 -143l22 55q-86 80 -215.5 165t-204.5 89q-34 0 -70 -36t-36 -66zM1030 999q0 59 39.5 93t120.5 34q138 0 211.5 -92t73.5 -235q0 -87 -27 -172q-182 3 -300 108t-118 264z" />
<glyph unicode="&#xd3;" horiz-adv-x="1653" d="M100 664q0 -149 33 -270.5t90 -204t135.5 -139t168 -82t188.5 -25.5q167 0 332 68.5t298.5 199.5t194.5 299q178 35 313 141v92q-143 -85 -280 -106q12 61 12 131q0 116 -32 208.5t-85.5 148.5t-117.5 85t-133 29q-177 0 -268 -90t-91 -223q0 -105 43.5 -188.5 t117 -135.5t166.5 -79t197 -27h13q-80 -149 -222 -242.5t-331 -93.5q-81 0 -155 22t-140 68.5t-114.5 114.5t-76.5 166.5t-28 216.5q0 89 31.5 182.5t93.5 179t146.5 153t199 108t241.5 40.5q52 0 99 -8l4 102q-76 13 -137 13q-163 0 -310 -51.5t-253.5 -137.5t-185 -196 t-118 -231t-39.5 -238zM956 1708l23 -55q286 99 397 143l88 35q19 5 19 29q0 30 -36.5 66t-70.5 36q-74 -4 -203 -88.5t-217 -165.5zM1030 999q0 59 39.5 93t120.5 34q138 0 211.5 -92t73.5 -235q0 -87 -27 -172q-182 3 -300 108t-118 264z" />
<glyph unicode="&#xd4;" horiz-adv-x="1653" d="M100 664q0 -149 33 -270.5t90 -204t135.5 -139t168 -82t188.5 -25.5q167 0 332 68.5t298.5 199.5t194.5 299q178 35 313 141v92q-143 -85 -280 -106q12 61 12 131q0 116 -32 208.5t-85.5 148.5t-117.5 85t-133 29q-177 0 -268 -90t-91 -223q0 -105 43.5 -188.5 t117 -135.5t166.5 -79t197 -27h13q-80 -149 -222 -242.5t-331 -93.5q-81 0 -155 22t-140 68.5t-114.5 114.5t-76.5 166.5t-28 216.5q0 89 31.5 182.5t93.5 179t146.5 153t199 108t241.5 40.5q52 0 99 -8l4 102q-76 13 -137 13q-163 0 -310 -51.5t-253.5 -137.5t-185 -196 t-118 -231t-39.5 -238zM883 1700l59 -43q21 19 62 61.5t100.5 105t99.5 103.5q23 -40 58.5 -103.5t59.5 -105.5t38 -61l72 41q-4 18 -37 106.5t-83 189.5t-79 101q-57 0 -164.5 -129t-185.5 -266zM1030 999q0 59 39.5 93t120.5 34q138 0 211.5 -92t73.5 -235q0 -87 -27 -172 q-182 3 -300 108t-118 264z" />
<glyph unicode="&#xd5;" horiz-adv-x="1653" d="M100 664q0 -149 33 -270.5t90 -204t135.5 -139t168 -82t188.5 -25.5q167 0 332 68.5t298.5 199.5t194.5 299q178 35 313 141v92q-143 -85 -280 -106q12 61 12 131q0 116 -32 208.5t-85.5 148.5t-117.5 85t-133 29q-177 0 -268 -90t-91 -223q0 -105 43.5 -188.5 t117 -135.5t166.5 -79t197 -27h13q-80 -149 -222 -242.5t-331 -93.5q-81 0 -155 22t-140 68.5t-114.5 114.5t-76.5 166.5t-28 216.5q0 89 31.5 182.5t93.5 179t146.5 153t199 108t241.5 40.5q52 0 99 -8l4 102q-76 13 -137 13q-163 0 -310 -51.5t-253.5 -137.5t-185 -196 t-118 -231t-39.5 -238zM846 1880q0 -1 2 -20.5t5.5 -42.5t15 -52t28.5 -51.5t49.5 -38.5t75.5 -16q58 0 159 42t134 42q59 0 75 -88l125 19q0 1 -2 20.5t-5.5 42.5t-15 52t-28.5 51.5t-49.5 38.5t-75.5 16q-51 0 -157.5 -38t-145.5 -38q-35 0 -55.5 18.5t-26.5 63.5z M1030 999q0 59 39.5 93t120.5 34q138 0 211.5 -92t73.5 -235q0 -87 -27 -172q-182 3 -300 108t-118 264z" />
<glyph unicode="&#xd6;" horiz-adv-x="1653" d="M100 664q0 -149 33 -270.5t90 -204t135.5 -139t168 -82t188.5 -25.5q167 0 332 68.5t298.5 199.5t194.5 299q178 35 313 141v92q-143 -85 -280 -106q12 61 12 131q0 116 -32 208.5t-85.5 148.5t-117.5 85t-133 29q-177 0 -268 -90t-91 -223q0 -105 43.5 -188.5 t117 -135.5t166.5 -79t197 -27h13q-80 -149 -222 -242.5t-331 -93.5q-81 0 -155 22t-140 68.5t-114.5 114.5t-76.5 166.5t-28 216.5q0 89 31.5 182.5t93.5 179t146.5 153t199 108t241.5 40.5q52 0 99 -8l4 102q-76 13 -137 13q-163 0 -310 -51.5t-253.5 -137.5t-185 -196 t-118 -231t-39.5 -238zM821 1740q0 -34 19.5 -56t58.5 -22q66 0 119 52t53 106q0 33 -28 55.5t-83 22.5q-58 0 -98.5 -51.5t-40.5 -106.5zM1030 999q0 59 39.5 93t120.5 34q138 0 211.5 -92t73.5 -235q0 -87 -27 -172q-182 3 -300 108t-118 264zM1303 1740q0 -34 19.5 -56 t60.5 -22q66 0 118 51.5t52 106.5q0 34 -27.5 56t-83.5 22q-57 0 -98 -51.5t-41 -106.5z" />
<glyph unicode="&#xd7;" horiz-adv-x="1120" d="M270.5 866.5q-1.5 -11.5 4 -21t10.5 -15t10 -9.5q157 -139 176 -157q-136 -160 -162 -201q-16 -30 41 -82q9 -9 18 -11.5t18 1t14.5 6.5t12.5 9l7 7l151 180l58 -53q16 -16 51.5 -48.5t52.5 -49.5q13 -13 29 -16t31.5 2.5t28.5 14t24 19.5q15 16 -11 53t-92 101 q-32 33 -84 78l56 59l96 98q25 29 22.5 73.5t-24.5 66.5q-30 26 -174 -125l-74 -82q-115 102 -184 154q-49 21 -94 -29q-11 -11 -12.5 -22.5z" />
<glyph unicode="&#xd8;" horiz-adv-x="1653" d="M100 664q0 -421 247 -606q-49 -63 -64 -85q-8 -13 -27.5 -37t-33 -43.5t-13.5 -31.5q0 -11 14 -17t29 -6q21 0 44.5 11t41 27t32.5 32.5t23 27.5l8 11l42 54q123 -58 272 -58q167 0 332 68.5t298.5 199.5t194.5 299q178 35 313 141v92q-143 -85 -280 -106q12 61 12 131 q0 161 -58.5 269.5t-152.5 160.5l217 279q11 15 11 32q0 8 -3 13.5t-7 8t-11.5 4t-11 2t-11 0t-8.5 -0.5q-19 0 -31.5 -4t-27 -17t-23.5 -25t-32 -42.5t-43 -54.5l-125 -158q-23 4 -51 4q-177 0 -268 -90t-91 -223q0 -93 34 -170l-377 -482q-187 159 -187 474 q0 89 31.5 182.5t93.5 179t146.5 153t199 108t241.5 40.5q52 0 99 -8l4 102q-76 13 -137 13q-163 0 -310 -51.5t-253.5 -137.5t-185 -196t-118 -231t-39.5 -238zM608 213l347 447q72 -80 184.5 -122t242.5 -42h13q-80 -149 -222 -242.5t-331 -93.5q-128 0 -234 53zM1030 999 q0 59 39.5 93t120.5 34q138 0 211.5 -92t73.5 -235q0 -87 -27 -172q-182 3 -300 108t-118 264z" />
<glyph unicode="&#xd9;" horiz-adv-x="1595" d="M-43 946q80 48 185 112.5t175.5 108.5t88.5 54l114 88q9 6 12 6q5 0 5 -4q-135 -185 -224.5 -438.5t-89.5 -469.5q0 -104 22.5 -186t69 -144.5t125 -96t185.5 -33.5q144 0 279 53.5t242.5 147t193 217t139.5 267t73 292.5q196 40 419 227v114q-56 -55 -120 -100 t-114.5 -69t-93 -40.5t-65.5 -21.5l-24 -6v9q-1 18 0.5 51.5t-3 79t-10 94t-20.5 95.5t-34 84t-51.5 60t-73.5 23q-56 0 -99.5 -26t-67.5 -68t-36 -87.5t-12 -91.5q0 -60 22 -113.5t54.5 -89t72 -62.5t72 -40.5t57.5 -17.5q-8 -141 -63.5 -280.5t-144 -249.5t-213 -178.5 t-259.5 -68.5q-284 0 -284 310q0 133 53 320.5t116 335t116 266.5t53 130q0 21 -27 21q-28 0 -156.5 -75t-338.5 -204.5t-320 -193.5v-111zM676 1860q0 -24 18 -29l88 -35q110 -43 398 -143l22 55q-86 80 -215.5 165t-204.5 89q-34 0 -70 -36t-36 -66zM1266 1266q0 73 55 73 q49 0 80 -86t31 -186q0 -6 -1 -19.5t-1 -19.5q-69 15 -116.5 79.5t-47.5 158.5z" />
<glyph unicode="&#xda;" horiz-adv-x="1595" d="M-43 946q80 48 185 112.5t175.5 108.5t88.5 54l114 88q9 6 12 6q5 0 5 -4q-135 -185 -224.5 -438.5t-89.5 -469.5q0 -104 22.5 -186t69 -144.5t125 -96t185.5 -33.5q144 0 279 53.5t242.5 147t193 217t139.5 267t73 292.5q196 40 419 227v114q-56 -55 -120 -100 t-114.5 -69t-93 -40.5t-65.5 -21.5l-24 -6v9q-1 18 0.5 51.5t-3 79t-10 94t-20.5 95.5t-34 84t-51.5 60t-73.5 23q-56 0 -99.5 -26t-67.5 -68t-36 -87.5t-12 -91.5q0 -60 22 -113.5t54.5 -89t72 -62.5t72 -40.5t57.5 -17.5q-8 -141 -63.5 -280.5t-144 -249.5t-213 -178.5 t-259.5 -68.5q-284 0 -284 310q0 133 53 320.5t116 335t116 266.5t53 130q0 21 -27 21q-28 0 -156.5 -75t-338.5 -204.5t-320 -193.5v-111zM866 1708l23 -55q286 99 397 143l88 35q19 5 19 29q0 30 -36.5 66t-70.5 36q-74 -4 -203 -88.5t-217 -165.5zM1266 1266q0 73 55 73 q49 0 80 -86t31 -186q0 -6 -1 -19.5t-1 -19.5q-69 15 -116.5 79.5t-47.5 158.5z" />
<glyph unicode="&#xdb;" horiz-adv-x="1595" d="M-43 946q80 48 185 112.5t175.5 108.5t88.5 54l114 88q9 6 12 6q5 0 5 -4q-135 -185 -224.5 -438.5t-89.5 -469.5q0 -104 22.5 -186t69 -144.5t125 -96t185.5 -33.5q144 0 279 53.5t242.5 147t193 217t139.5 267t73 292.5q196 40 419 227v114q-56 -55 -120 -100 t-114.5 -69t-93 -40.5t-65.5 -21.5l-24 -6v9q-1 18 0.5 51.5t-3 79t-10 94t-20.5 95.5t-34 84t-51.5 60t-73.5 23q-56 0 -99.5 -26t-67.5 -68t-36 -87.5t-12 -91.5q0 -60 22 -113.5t54.5 -89t72 -62.5t72 -40.5t57.5 -17.5q-8 -141 -63.5 -280.5t-144 -249.5t-213 -178.5 t-259.5 -68.5q-284 0 -284 310q0 133 53 320.5t116 335t116 266.5t53 130q0 21 -27 21q-28 0 -156.5 -75t-338.5 -204.5t-320 -193.5v-111zM793 1700l59 -43q21 19 62 61.5t100.5 105t99.5 103.5q23 -40 58.5 -103.5t59.5 -105.5t38 -61l72 41q-4 18 -37 106.5t-83 189.5 t-79 101q-57 0 -164.5 -129t-185.5 -266zM1266 1266q0 73 55 73q49 0 80 -86t31 -186q0 -6 -1 -19.5t-1 -19.5q-69 15 -116.5 79.5t-47.5 158.5z" />
<glyph unicode="&#xdc;" horiz-adv-x="1595" d="M-43 946q80 48 185 112.5t175.5 108.5t88.5 54l114 88q9 6 12 6q5 0 5 -4q-135 -185 -224.5 -438.5t-89.5 -469.5q0 -104 22.5 -186t69 -144.5t125 -96t185.5 -33.5q144 0 279 53.5t242.5 147t193 217t139.5 267t73 292.5q196 40 419 227v114q-56 -55 -120 -100 t-114.5 -69t-93 -40.5t-65.5 -21.5l-24 -6v9q-1 18 0.5 51.5t-3 79t-10 94t-20.5 95.5t-34 84t-51.5 60t-73.5 23q-56 0 -99.5 -26t-67.5 -68t-36 -87.5t-12 -91.5q0 -60 22 -113.5t54.5 -89t72 -62.5t72 -40.5t57.5 -17.5q-8 -141 -63.5 -280.5t-144 -249.5t-213 -178.5 t-259.5 -68.5q-284 0 -284 310q0 133 53 320.5t116 335t116 266.5t53 130q0 21 -27 21q-28 0 -156.5 -75t-338.5 -204.5t-320 -193.5v-111zM730 1740q0 -34 19.5 -56t58.5 -22q66 0 119 52t53 106q0 33 -28 55.5t-83 22.5q-58 0 -98.5 -51.5t-40.5 -106.5zM1212 1740 q0 -34 19.5 -56t60.5 -22q66 0 118 51.5t52 106.5q0 34 -27.5 56t-83.5 22q-57 0 -98 -51.5t-41 -106.5zM1266 1266q0 73 55 73q49 0 80 -86t31 -186q0 -6 -1 -19.5t-1 -19.5q-69 15 -116.5 79.5t-47.5 158.5z" />
<glyph unicode="&#xdd;" horiz-adv-x="1554" d="M152 -565q0 -66 45.5 -115.5t110 -71.5t134.5 -22q94 0 181 23.5t157.5 63.5t135 97.5t114.5 121t95.5 139.5t79 147t63.5 149l405 361v112l-387 -354l354 1401h-217q-18 -6 -60.5 -155.5t-57.5 -217.5l-91 -375q-24 -100 -97.5 -194.5t-165 -157.5t-185.5 -101t-164 -38 q-30 0 -54 36.5t-24 73.5q0 62 40 207t103 347.5t91 312.5q15 60 34 123.5t28 96t9 44.5q0 13 -18.5 21t-46.5 8q-64 0 -111 -31l-411 -268q-21 -15 -21 -45q0 -18 10 -27.5t23 -9.5q4 0 12 8l10 6l308 213l-107 -311q-5 -14 -38.5 -111t-43 -127.5t-37 -115.5t-38 -129 t-26.5 -110t-22 -116.5t-6 -95.5q0 -142 48.5 -204t123.5 -62q128 0 349 143.5t384 331.5l-159 -498l-809 -432q-51 -28 -51 -92zM469 -547q0 65 71 129.5t183 116.5l278 162l-36 -121q-28 -101 -101 -203t-159 -166.5t-152 -64.5q-35 5 -59.5 42t-24.5 105zM976 1708 l23 -55q286 99 397 143l88 35q19 5 19 29q0 30 -36.5 66t-70.5 36q-74 -4 -203 -88.5t-217 -165.5z" />
<glyph unicode="&#xde;" horiz-adv-x="1554" d="M-133 53q0 -111 86.5 -172t206.5 -61q59 0 113.5 15.5t113.5 55.5t109.5 103.5t97.5 166.5t80 236q123 -24 231 -24q149 0 273.5 41.5t203.5 109.5t122.5 152t43.5 172q0 83 -38 157t-112 133.5t-197 94.5t-279 35q-52 0 -78 -2l33 196h-76q-38 0 -92.5 -15t-59.5 -44 l-147 -789q-40 -210 -51 -256q-103 -440 -273 -440q-117 0 -117 148q0 14 1 51.5t1 58.5q-196 0 -196 -123zM694 506q33 140 127 637q19 2 56 2q119 0 217.5 -28.5t160.5 -76t95.5 -107t33.5 -122.5q0 -130 -134.5 -222.5t-385.5 -92.5q-92 0 -170 10z" />
<glyph unicode="&#xdf;" horiz-adv-x="983" d="M-47 -154q0 -22 2 -30h207q29 112 87 379.5t101 473.5t45 220q19 107 47.5 193.5t61.5 144t70.5 96t73.5 55.5t71 17q59 0 91 -48t32 -122q0 -59 -23.5 -119.5t-67.5 -113.5t-117.5 -86.5t-162.5 -33.5v-116q77 -34 135 -104.5t86.5 -153.5t28.5 -166q0 -106 -50 -175 t-145 -69q-108 0 -194 68l-49 -113q119 -102 299 -102q168 0 264 113t96 274q0 99 -36 193t-115 175t-189 123q103 12 184.5 52t131 96.5t75 121t25.5 130.5q0 124 -74 211.5t-201 87.5q-70 0 -133 -25t-129.5 -88t-126 -162.5t-118.5 -256t-109 -361.5q-1 -3 -35 -126.5 t-61 -228t-52.5 -232.5t-25.5 -192z" />
<glyph unicode="&#xe0;" horiz-adv-x="928" d="M-4 225q0 -44 6.5 -84.5t22.5 -81t48 -64.5t77 -24q97 0 192.5 67t167.5 161q-8 -54 -8 -97q0 -131 76 -131q46 0 149.5 75t187.5 151.5t136 130.5v112q-240 -254 -306 -254q-30 0 -30 64q0 28 16.5 116.5t35.5 176.5t38 172.5t20 91.5q-104 33 -168 33 q-129 0 -252.5 -55t-212 -142t-142.5 -198t-54 -220zM209 281q0 105 59 217t160 189t209 77l-115 -492q-50 -53 -111.5 -97t-103.5 -44q-52 0 -75 42t-23 108zM276 1165q0 -24 18 -29l88 -35q110 -43 398 -143l22 55q-86 80 -215.5 165t-204.5 89q-34 0 -70 -36t-36 -66z " />
<glyph unicode="&#xe1;" horiz-adv-x="928" d="M-4 225q0 -44 6.5 -84.5t22.5 -81t48 -64.5t77 -24q97 0 192.5 67t167.5 161q-8 -54 -8 -97q0 -131 76 -131q46 0 149.5 75t187.5 151.5t136 130.5v112q-240 -254 -306 -254q-30 0 -30 64q0 28 16.5 116.5t35.5 176.5t38 172.5t20 91.5q-104 33 -168 33 q-129 0 -252.5 -55t-212 -142t-142.5 -198t-54 -220zM209 281q0 105 59 217t160 189t209 77l-115 -492q-50 -53 -111.5 -97t-103.5 -44q-52 0 -75 42t-23 108zM466 1013l23 -55q286 99 397 143l88 35q19 5 19 29q0 30 -36.5 66t-70.5 36q-74 -4 -203 -88.5t-217 -165.5z" />
<glyph unicode="&#xe2;" horiz-adv-x="928" d="M-4 225q0 -44 6.5 -84.5t22.5 -81t48 -64.5t77 -24q97 0 192.5 67t167.5 161q-8 -54 -8 -97q0 -131 76 -131q46 0 149.5 75t187.5 151.5t136 130.5v112q-240 -254 -306 -254q-30 0 -30 64q0 28 16.5 116.5t35.5 176.5t38 172.5t20 91.5q-104 33 -168 33 q-129 0 -252.5 -55t-212 -142t-142.5 -198t-54 -220zM209 281q0 105 59 217t160 189t209 77l-115 -492q-50 -53 -111.5 -97t-103.5 -44q-52 0 -75 42t-23 108zM393 1005l59 -43q21 19 62 61.5t100.5 105t99.5 103.5q23 -40 58.5 -103.5t59.5 -105.5t38 -61l72 41 q-4 18 -37 106.5t-83 189.5t-79 101q-57 0 -164.5 -129t-185.5 -266z" />
<glyph unicode="&#xe3;" horiz-adv-x="928" d="M-4 225q0 -44 6.5 -84.5t22.5 -81t48 -64.5t77 -24q97 0 192.5 67t167.5 161q-8 -54 -8 -97q0 -131 76 -131q46 0 149.5 75t187.5 151.5t136 130.5v112q-240 -254 -306 -254q-30 0 -30 64q0 28 16.5 116.5t35.5 176.5t38 172.5t20 91.5q-104 33 -168 33 q-129 0 -252.5 -55t-212 -142t-142.5 -198t-54 -220zM209 281q0 105 59 217t160 189t209 77l-115 -492q-50 -53 -111.5 -97t-103.5 -44q-52 0 -75 42t-23 108zM357 1185q0 -1 2 -20.5t5.5 -42.5t15 -52t28.5 -51.5t49.5 -38.5t75.5 -16q58 0 159 42t134 42q59 0 75 -88 l125 19q0 1 -2 20.5t-5.5 42.5t-15 52t-28.5 51.5t-49.5 38.5t-75.5 16q-51 0 -157.5 -38t-145.5 -38q-35 0 -55.5 18.5t-26.5 63.5z" />
<glyph unicode="&#xe4;" horiz-adv-x="928" d="M-4 225q0 -44 6.5 -84.5t22.5 -81t48 -64.5t77 -24q97 0 192.5 67t167.5 161q-8 -54 -8 -97q0 -131 76 -131q46 0 149.5 75t187.5 151.5t136 130.5v112q-240 -254 -306 -254q-30 0 -30 64q0 28 16.5 116.5t35.5 176.5t38 172.5t20 91.5q-104 33 -168 33 q-129 0 -252.5 -55t-212 -142t-142.5 -198t-54 -220zM209 281q0 105 59 217t160 189t209 77l-115 -492q-50 -53 -111.5 -97t-103.5 -44q-52 0 -75 42t-23 108zM331 1046q0 -34 19.5 -56t58.5 -22q66 0 119 52t53 106q0 33 -28 55.5t-83 22.5q-58 0 -98.5 -51.5t-40.5 -106.5 zM813 1046q0 -34 19.5 -56t60.5 -22q66 0 118 51.5t52 106.5q0 34 -27.5 56t-83.5 22q-57 0 -98 -51.5t-41 -106.5z" />
<glyph unicode="&#xe5;" horiz-adv-x="928" d="M-4 225q0 -44 6.5 -84.5t22.5 -81t48 -64.5t77 -24q97 0 192.5 67t167.5 161q-8 -54 -8 -97q0 -131 76 -131q46 0 149.5 75t187.5 151.5t136 130.5v112q-240 -254 -306 -254q-30 0 -30 64q0 28 16.5 116.5t35.5 176.5t38 172.5t20 91.5q-104 33 -168 33 q-129 0 -252.5 -55t-212 -142t-142.5 -198t-54 -220zM209 281q0 105 59 217t160 189t209 77l-115 -492q-50 -53 -111.5 -97t-103.5 -44q-52 0 -75 42t-23 108zM524 1108q0 -78 47.5 -119t112.5 -41q78 0 136.5 54t58.5 142q0 66 -42.5 113t-117.5 47q-91 0 -143 -59 t-52 -137zM602 1110q0 50 30.5 88.5t82.5 38.5q46 0 68 -27t22 -70q0 -48 -32.5 -86.5t-84.5 -38.5q-44 0 -65 27.5t-21 67.5z" />
<glyph unicode="&#xe6;" horiz-adv-x="1219" d="M-4 225q0 -110 55 -182t158 -72q83 0 183 41.5t155 116.5v2q25 -78 90 -119t151 -41q87 0 178 44.5t177.5 120t195.5 196.5v110q-30 -27 -105 -102.5t-125 -122.5t-114 -89t-108 -42q-168 0 -168 231q0 88 43 177q34 -54 84 -81.5t96 -27.5q116 0 207.5 84.5t91.5 198.5 q0 84 -56.5 128t-142.5 44q-66 0 -133 -24.5t-116 -67.5l20 92q-180 0 -336.5 -54.5t-260 -142.5t-162 -197.5t-58.5 -220.5zM209 281q0 106 52 204.5t154.5 173.5t237.5 105l-118 -518q-48 -48 -113 -81.5t-115 -33.5q-98 0 -98 150zM791 569q8 25 26 54.5t45 60t65.5 50.5 t80.5 20q46 0 70 -21.5t24 -75.5q0 -72 -43 -129t-101 -57q-91 0 -167 98z" />
<glyph unicode="&#xe7;" horiz-adv-x="696" d="M-4 231q0 -116 58 -188t173 -72q72 0 150 29.5t157.5 86t144.5 111.5t144 132v112q-305 -301 -479 -301q-65 0 -97 54.5t-32 142.5q0 89 28.5 182t79.5 158t109 65q30 0 52.5 -20t32.5 -43.5t25 -43.5t33 -20q57 0 94.5 28.5t37.5 72.5q0 31 -14.5 54.5t-35 36.5 t-49.5 20.5t-52 9.5t-48 2q-107 0 -205 -59t-163.5 -149.5t-104.5 -197t-39 -203.5zM84 -430l16 -62q58 12 106 60t74 109t40 115.5t14 90.5q0 117 -105 117q-65 0 -102 -27t-37 -63q0 -26 20 -49.5t58 -34.5q0 -49 -8.5 -93t-21 -72.5t-25 -50t-21.5 -30.5z" />
<glyph unicode="&#xe8;" horiz-adv-x="724" d="M27 258q0 -130 72 -209.5t193 -79.5q71 0 140.5 24.5t140 74.5t135 111t144.5 149v110q-29 -26 -105 -102.5t-125.5 -123t-114 -88.5t-108.5 -42q-168 0 -168 231q0 86 43 176q35 -54 85 -81t96 -27q115 0 207 84.5t92 198.5q0 176 -236 176q-140 0 -254.5 -85.5 t-175.5 -218t-61 -278.5zM147 1163q0 -24 18 -29l88 -35q110 -43 398 -143l22 55q-86 80 -215.5 165t-204.5 89q-34 0 -70 -36t-36 -66zM303 565q9 26 26.5 55t44.5 59.5t65.5 50.5t80.5 20q47 0 70.5 -21.5t23.5 -75.5q0 -72 -42.5 -129t-100.5 -57q-92 0 -168 98z" />
<glyph unicode="&#xe9;" horiz-adv-x="724" d="M27 258q0 -130 72 -209.5t193 -79.5q71 0 140.5 24.5t140 74.5t135 111t144.5 149v110q-29 -26 -105 -102.5t-125.5 -123t-114 -88.5t-108.5 -42q-168 0 -168 231q0 86 43 176q35 -54 85 -81t96 -27q115 0 207 84.5t92 198.5q0 176 -236 176q-140 0 -254.5 -85.5 t-175.5 -218t-61 -278.5zM303 565q9 26 26.5 55t44.5 59.5t65.5 50.5t80.5 20q47 0 70.5 -21.5t23.5 -75.5q0 -72 -42.5 -129t-100.5 -57q-92 0 -168 98zM337 997l23 -55q286 99 397 143l88 35q19 5 19 29q0 30 -36.5 66t-70.5 36q-74 -4 -203 -88.5t-217 -165.5z" />
<glyph unicode="&#xea;" horiz-adv-x="724" d="M27 258q0 -130 72 -209.5t193 -79.5q71 0 140.5 24.5t140 74.5t135 111t144.5 149v110q-29 -26 -105 -102.5t-125.5 -123t-114 -88.5t-108.5 -42q-168 0 -168 231q0 86 43 176q35 -54 85 -81t96 -27q115 0 207 84.5t92 198.5q0 176 -236 176q-140 0 -254.5 -85.5 t-175.5 -218t-61 -278.5zM264 1003l59 -43q21 19 62 61.5t100.5 105t99.5 103.5q23 -40 58.5 -103.5t59.5 -105.5t38 -61l72 41q-4 18 -37 106.5t-83 189.5t-79 101q-57 0 -164.5 -129t-185.5 -266zM303 565q9 26 26.5 55t44.5 59.5t65.5 50.5t80.5 20q47 0 70.5 -21.5 t23.5 -75.5q0 -72 -42.5 -129t-100.5 -57q-92 0 -168 98z" />
<glyph unicode="&#xeb;" horiz-adv-x="724" d="M27 258q0 -130 72 -209.5t193 -79.5q71 0 140.5 24.5t140 74.5t135 111t144.5 149v110q-29 -26 -105 -102.5t-125.5 -123t-114 -88.5t-108.5 -42q-168 0 -168 231q0 86 43 176q35 -54 85 -81t96 -27q115 0 207 84.5t92 198.5q0 176 -236 176q-140 0 -254.5 -85.5 t-175.5 -218t-61 -278.5zM202 1044q0 -34 19.5 -56t58.5 -22q66 0 119 52t53 106q0 33 -28 55.5t-83 22.5q-58 0 -98.5 -51.5t-40.5 -106.5zM303 565q9 26 26.5 55t44.5 59.5t65.5 50.5t80.5 20q47 0 70.5 -21.5t23.5 -75.5q0 -72 -42.5 -129t-100.5 -57q-92 0 -168 98z M684 1044q0 -34 19.5 -56t60.5 -22q66 0 118 51.5t52 106.5q0 34 -27.5 56t-83.5 22q-57 0 -98 -51.5t-41 -106.5z" />
<glyph unicode="&#xec;" horiz-adv-x="469" d="M-25 1178q0 -24 18 -29l88 -35q110 -43 398 -143l22 55q-86 80 -215.5 165t-204.5 89q-34 0 -70 -36t-36 -66zM29 102q0 -52 22 -91.5t66 -39.5q82 4 173.5 76.5t279.5 258.5l20 20v112q-69 -76 -185.5 -190.5t-138.5 -114.5q-20 0 -27.5 22t-7.5 44q0 28 12.5 88 t34.5 139.5t40.5 143.5t42 142.5t28.5 94.5q-38 0 -53 -0.5t-43 -3t-41.5 -9t-31.5 -17.5t-30 -30t-22 -45q-27 -70 -83 -299t-56 -301z" />
<glyph unicode="&#xed;" horiz-adv-x="469" d="M29 102q0 -52 22 -91.5t66 -39.5q82 4 173.5 76.5t279.5 258.5l20 20v112q-69 -76 -185.5 -190.5t-138.5 -114.5q-20 0 -27.5 22t-7.5 44q0 28 12.5 88t34.5 139.5t40.5 143.5t42 142.5t28.5 94.5q-38 0 -53 -0.5t-43 -3t-41.5 -9t-31.5 -17.5t-30 -30t-22 -45 q-27 -70 -83 -299t-56 -301zM165 1026l23 -55q286 99 397 143l88 35q19 5 19 29q0 30 -36.5 66t-70.5 36q-74 -4 -203 -88.5t-217 -165.5z" />
<glyph unicode="&#xee;" horiz-adv-x="469" d="M29 102q0 -52 22 -91.5t66 -39.5q82 4 173.5 76.5t279.5 258.5l20 20v112q-69 -76 -185.5 -190.5t-138.5 -114.5q-20 0 -27.5 22t-7.5 44q0 28 12.5 88t34.5 139.5t40.5 143.5t42 142.5t28.5 94.5q-38 0 -53 -0.5t-43 -3t-41.5 -9t-31.5 -17.5t-30 -30t-22 -45 q-27 -70 -83 -299t-56 -301zM92 1018l59 -43q21 19 62 61.5t100.5 105t99.5 103.5q23 -40 58.5 -103.5t59.5 -105.5t38 -61l72 41q-4 18 -37 106.5t-83 189.5t-79 101q-57 0 -164.5 -129t-185.5 -266z" />
<glyph unicode="&#xef;" horiz-adv-x="469" d="M29 102q0 -52 22 -91.5t66 -39.5q82 4 173.5 76.5t279.5 258.5l20 20v112q-69 -76 -185.5 -190.5t-138.5 -114.5q-20 0 -27.5 22t-7.5 44q0 28 12.5 88t34.5 139.5t40.5 143.5t42 142.5t28.5 94.5q-38 0 -53 -0.5t-43 -3t-41.5 -9t-31.5 -17.5t-30 -30t-22 -45 q-27 -70 -83 -299t-56 -301zM30 1058q0 -34 19.5 -56t58.5 -22q66 0 119 52t53 106q0 33 -28 55.5t-83 22.5q-58 0 -98.5 -51.5t-40.5 -106.5zM512 1058q0 -34 19.5 -56t60.5 -22q66 0 118 51.5t52 106.5q0 34 -27.5 56t-83.5 22q-57 0 -98 -51.5t-41 -106.5z" />
<glyph unicode="&#xf0;" horiz-adv-x="1036" d="M83 467q0 -89 39.5 -176.5t105.5 -154.5t159 -108.5t194 -41.5q189 0 292 114.5t103 309.5q0 156 -68.5 365.5t-175.5 392.5l13 6q105 45 135 57q28 11 44.5 40.5t16.5 58.5q0 42 -35 42q-50 0 -190 -62l-59 -24q-81 114 -164 179.5t-158 65.5h-140q155 -197 253 -342 q-112 -57 -134 -72q-24 -20 -24 -48q0 -22 13 -48.5t36 -26.5q7 0 37 10l145 70q254 -409 254 -676q0 -48 -2.5 -83.5t-9.5 -70.5t-20.5 -59t-33.5 -43t-49.5 -28t-68.5 -9q-62 0 -125 51.5t-105 140.5t-42 186q0 105 50 166t125 61q70 0 139 -31q9 19 9 35q0 36 -42 62 t-92 36.5t-94 10.5q-142 0 -236.5 -95.5t-94.5 -260.5z" />
<glyph unicode="&#xf1;" horiz-adv-x="838" d="M-25 0h191q15 65 52.5 167.5t89.5 215.5t118 192.5t123 79.5q16 0 27.5 -15t11.5 -40q0 -39 -37.5 -133.5t-75 -211t-37.5 -208.5q0 -30 17 -53t63 -23q36 0 134 76.5t172 146t134 130.5v112q-20 -17 -118 -110.5t-117 -106.5q-22 -14 -35 -14q-12 0 -12 18 q0 25 70.5 234.5t70.5 265.5q0 117 -98 117q-65 0 -138 -40t-135 -102.5t-112 -128t-82 -125.5l108 363h-67q-60 0 -95.5 -16t-54.5 -64q-47 -119 -107 -369t-61 -358zM222 1185q0 -1 2 -20.5t5.5 -42.5t15 -52t28.5 -51.5t49.5 -38.5t75.5 -16q58 0 159 42t134 42 q59 0 75 -88l125 19q0 1 -2 20.5t-5.5 42.5t-15 52t-28.5 51.5t-49.5 38.5t-75.5 16q-51 0 -157.5 -38t-145.5 -38q-35 0 -55.5 18.5t-26.5 63.5z" />
<glyph unicode="&#xf2;" horiz-adv-x="867" d="M31 317q0 -51 10 -99t33 -93.5t56.5 -79t85.5 -54t115 -20.5q210 0 364 243q33 -4 70 -4q52 0 98.5 33t117.5 109v110q-21 -21 -53 -55.5t-48.5 -51.5t-38.5 -36t-39.5 -27t-34.5 -8h-31q46 44 73 104t27 118q0 78 -41.5 127t-126.5 49q-97 0 -145 -49.5t-48 -128.5 q0 -70 39 -139t110 -112q-93 -122 -198 -122q-78 0 -132 62t-54 174q0 71 16 134.5t49.5 119.5t82 97t119 64.5t155.5 23.5q15 10 18.5 18t3.5 25q-2 13 -22 13q-286 0 -458.5 -146t-172.5 -399zM240 1165q0 -24 18 -29l88 -35q110 -43 398 -143l22 55q-86 80 -215.5 165 t-204.5 89q-34 0 -70 -36t-36 -66zM578 489q0 43 20 70t61 27q82 0 82 -92q0 -42 -19.5 -96.5t-40.5 -77.5q-44 29 -73.5 78t-29.5 91z" />
<glyph unicode="&#xf3;" horiz-adv-x="867" d="M31 317q0 -51 10 -99t33 -93.5t56.5 -79t85.5 -54t115 -20.5q210 0 364 243q33 -4 70 -4q52 0 98.5 33t117.5 109v110q-21 -21 -53 -55.5t-48.5 -51.5t-38.5 -36t-39.5 -27t-34.5 -8h-31q46 44 73 104t27 118q0 78 -41.5 127t-126.5 49q-97 0 -145 -49.5t-48 -128.5 q0 -70 39 -139t110 -112q-93 -122 -198 -122q-78 0 -132 62t-54 174q0 71 16 134.5t49.5 119.5t82 97t119 64.5t155.5 23.5q15 10 18.5 18t3.5 25q-2 13 -22 13q-286 0 -458.5 -146t-172.5 -399zM430 1013l23 -55q286 99 397 143l88 35q19 5 19 29q0 30 -36.5 66t-70.5 36 q-74 -4 -203 -88.5t-217 -165.5zM578 489q0 43 20 70t61 27q82 0 82 -92q0 -42 -19.5 -96.5t-40.5 -77.5q-44 29 -73.5 78t-29.5 91z" />
<glyph unicode="&#xf4;" horiz-adv-x="867" d="M31 317q0 -51 10 -99t33 -93.5t56.5 -79t85.5 -54t115 -20.5q210 0 364 243q33 -4 70 -4q52 0 98.5 33t117.5 109v110q-21 -21 -53 -55.5t-48.5 -51.5t-38.5 -36t-39.5 -27t-34.5 -8h-31q46 44 73 104t27 118q0 78 -41.5 127t-126.5 49q-97 0 -145 -49.5t-48 -128.5 q0 -70 39 -139t110 -112q-93 -122 -198 -122q-78 0 -132 62t-54 174q0 71 16 134.5t49.5 119.5t82 97t119 64.5t155.5 23.5q15 10 18.5 18t3.5 25q-2 13 -22 13q-286 0 -458.5 -146t-172.5 -399zM357 1005l59 -43q21 19 62 61.5t100.5 105t99.5 103.5q23 -40 58.5 -103.5 t59.5 -105.5t38 -61l72 41q-4 18 -37 106.5t-83 189.5t-79 101q-57 0 -164.5 -129t-185.5 -266zM578 489q0 43 20 70t61 27q82 0 82 -92q0 -42 -19.5 -96.5t-40.5 -77.5q-44 29 -73.5 78t-29.5 91z" />
<glyph unicode="&#xf5;" horiz-adv-x="867" d="M31 317q0 -51 10 -99t33 -93.5t56.5 -79t85.5 -54t115 -20.5q210 0 364 243q33 -4 70 -4q52 0 98.5 33t117.5 109v110q-21 -21 -53 -55.5t-48.5 -51.5t-38.5 -36t-39.5 -27t-34.5 -8h-31q46 44 73 104t27 118q0 78 -41.5 127t-126.5 49q-97 0 -145 -49.5t-48 -128.5 q0 -70 39 -139t110 -112q-93 -122 -198 -122q-78 0 -132 62t-54 174q0 71 16 134.5t49.5 119.5t82 97t119 64.5t155.5 23.5q15 10 18.5 18t3.5 25q-2 13 -22 13q-286 0 -458.5 -146t-172.5 -399zM320 1185q0 -1 2 -20.5t5.5 -42.5t15 -52t28.5 -51.5t49.5 -38.5t75.5 -16 q58 0 159 42t134 42q59 0 75 -88l125 19q0 1 -2 20.5t-5.5 42.5t-15 52t-28.5 51.5t-49.5 38.5t-75.5 16q-51 0 -157.5 -38t-145.5 -38q-35 0 -55.5 18.5t-26.5 63.5zM578 489q0 43 20 70t61 27q82 0 82 -92q0 -42 -19.5 -96.5t-40.5 -77.5q-44 29 -73.5 78t-29.5 91z" />
<glyph unicode="&#xf6;" horiz-adv-x="867" d="M31 317q0 -51 10 -99t33 -93.5t56.5 -79t85.5 -54t115 -20.5q210 0 364 243q33 -4 70 -4q52 0 98.5 33t117.5 109v110q-21 -21 -53 -55.5t-48.5 -51.5t-38.5 -36t-39.5 -27t-34.5 -8h-31q46 44 73 104t27 118q0 78 -41.5 127t-126.5 49q-97 0 -145 -49.5t-48 -128.5 q0 -70 39 -139t110 -112q-93 -122 -198 -122q-78 0 -132 62t-54 174q0 71 16 134.5t49.5 119.5t82 97t119 64.5t155.5 23.5q15 10 18.5 18t3.5 25q-2 13 -22 13q-286 0 -458.5 -146t-172.5 -399zM294 1046q0 -34 19.5 -56t58.5 -22q66 0 119 52t53 106q0 33 -28 55.5 t-83 22.5q-58 0 -98.5 -51.5t-40.5 -106.5zM578 489q0 43 20 70t61 27q82 0 82 -92q0 -42 -19.5 -96.5t-40.5 -77.5q-44 29 -73.5 78t-29.5 91zM776 1046q0 -34 19.5 -56t60.5 -22q66 0 118 51.5t52 106.5q0 34 -27.5 56t-83.5 22q-57 0 -98 -51.5t-41 -106.5z" />
<glyph unicode="&#xf7;" horiz-adv-x="862" d="M115 639q0 -41 57 -41q256 18 346 18q30 0 95 -1t104 -1q37 0 68.5 33.5t31.5 63.5q0 41 -270 41q-56 0 -203 -10.5t-180 -16.5q-49 -14 -49 -86zM301 332q0 -34 20 -56t60 -22q66 0 118 51.5t52 106.5q0 34 -27.5 55.5t-83.5 21.5q-57 0 -98 -51.5t-41 -105.5zM383 942 q0 -34 25 -56t75 -22t89.5 51.5t39.5 106.5q0 34 -27 56t-83 22q-48 0 -83.5 -51.5t-35.5 -106.5z" />
<glyph unicode="&#xf8;" horiz-adv-x="907" d="M31 317q0 -102 37.5 -190t113.5 -127q-55 -91 -65 -115q-5 -9 -16.5 -26t-18 -29.5t-6.5 -22.5q0 -15 20 -18q51 3 96 74l7 12l61 100q24 -4 41 -4q113 0 219.5 60t184.5 155q18 -16 77 -16q60 0 111.5 37t134.5 125v110q-25 -24 -61 -62t-55 -57t-44 -40.5t-44.5 -30 t-39.5 -8.5q-17 0 -36 8q19 25 38 79t19 103t-26 80t-83 31t-90 -46.5t-33 -113.5q0 -94 60 -160q-80 -92 -168 -92q-53 0 -90 27l354 567q60 -32 119 -100q20 7 29.5 18t10.5 17.5t1 21.5q-58 73 -119 109l133 213q6 6 6 14q0 29 -37 29q-14 0 -25.5 -9t-19.5 -20t-25 -38 t-30 -46l-72 -113q-56 17 -110 17q-99 0 -201.5 -48t-180.5 -122.5t-127.5 -169t-49.5 -183.5zM260 412q0 56 28.5 117.5t74 112t110.5 83.5t131 33q24 0 51 -6q-241 -379 -338 -535q-57 78 -57 195zM651 379q0 34 12.5 58t34.5 24q37 0 37 -43q0 -49 -43 -135 q-19 12 -30 39t-11 57z" />
<glyph unicode="&#xf9;" horiz-adv-x="993" d="M37 139q0 -73 27 -120.5t90 -47.5q85 0 188 63.5t203 160.5q-10 -38 -10 -93q0 -131 86 -131q32 0 73 17.5t76 39.5t87.5 65t83.5 71.5t90 84t83 77.5v112q-219 -211 -279 -260t-81 -49q-16 0 -20.5 5.5t-4.5 21.5q0 14 8 90q10 45 47.5 185.5t69.5 258.5l33 117h-68h-9 q-32 0 -47.5 -2t-36.5 -12.5t-35 -36t-25 -68.5l-109 -416q-14 -29 -98.5 -78t-141.5 -49q-67 0 -67 74q0 40 41 184t82 273t41 131h-35q-158 0 -162 -25q-106 -305 -166 -532q-14 -54 -14 -111zM186 1163q0 -24 18 -29l88 -35q110 -43 398 -143l22 55q-86 80 -215.5 165 t-204.5 89q-34 0 -70 -36t-36 -66z" />
<glyph unicode="&#xfa;" horiz-adv-x="993" d="M37 139q0 -73 27 -120.5t90 -47.5q85 0 188 63.5t203 160.5q-10 -38 -10 -93q0 -131 86 -131q32 0 73 17.5t76 39.5t87.5 65t83.5 71.5t90 84t83 77.5v112q-219 -211 -279 -260t-81 -49q-16 0 -20.5 5.5t-4.5 21.5q0 14 8 90q10 45 47.5 185.5t69.5 258.5l33 117h-68h-9 q-32 0 -47.5 -2t-36.5 -12.5t-35 -36t-25 -68.5l-109 -416q-14 -29 -98.5 -78t-141.5 -49q-67 0 -67 74q0 40 41 184t82 273t41 131h-35q-158 0 -162 -25q-106 -305 -166 -532q-14 -54 -14 -111zM376 1011l23 -55q286 99 397 143l88 35q19 5 19 29q0 30 -36.5 66t-70.5 36 q-74 -4 -203 -88.5t-217 -165.5z" />
<glyph unicode="&#xfb;" horiz-adv-x="993" d="M37 139q0 -73 27 -120.5t90 -47.5q85 0 188 63.5t203 160.5q-10 -38 -10 -93q0 -131 86 -131q32 0 73 17.5t76 39.5t87.5 65t83.5 71.5t90 84t83 77.5v112q-219 -211 -279 -260t-81 -49q-16 0 -20.5 5.5t-4.5 21.5q0 14 8 90q10 45 47.5 185.5t69.5 258.5l33 117h-68h-9 q-32 0 -47.5 -2t-36.5 -12.5t-35 -36t-25 -68.5l-109 -416q-14 -29 -98.5 -78t-141.5 -49q-67 0 -67 74q0 40 41 184t82 273t41 131h-35q-158 0 -162 -25q-106 -305 -166 -532q-14 -54 -14 -111zM303 1003l59 -43q21 19 62 61.5t100.5 105t99.5 103.5q23 -40 58.5 -103.5 t59.5 -105.5t38 -61l72 41q-4 18 -37 106.5t-83 189.5t-79 101q-57 0 -164.5 -129t-185.5 -266z" />
<glyph unicode="&#xfc;" horiz-adv-x="993" d="M37 139q0 -73 27 -120.5t90 -47.5q85 0 188 63.5t203 160.5q-10 -38 -10 -93q0 -131 86 -131q32 0 73 17.5t76 39.5t87.5 65t83.5 71.5t90 84t83 77.5v112q-219 -211 -279 -260t-81 -49q-16 0 -20.5 5.5t-4.5 21.5q0 14 8 90q10 45 47.5 185.5t69.5 258.5l33 117h-68h-9 q-32 0 -47.5 -2t-36.5 -12.5t-35 -36t-25 -68.5l-109 -416q-14 -29 -98.5 -78t-141.5 -49q-67 0 -67 74q0 40 41 184t82 273t41 131h-35q-158 0 -162 -25q-106 -305 -166 -532q-14 -54 -14 -111zM241 1044q0 -34 19.5 -56t58.5 -22q66 0 119 52t53 106q0 33 -28 55.5 t-83 22.5q-58 0 -98.5 -51.5t-40.5 -106.5zM723 1044q0 -34 19.5 -56t60.5 -22q66 0 118 51.5t52 106.5q0 34 -27.5 56t-83.5 22q-57 0 -98 -51.5t-41 -106.5z" />
<glyph unicode="&#xfd;" horiz-adv-x="860" d="M-4 139q0 -72 27.5 -120t89.5 -48q85 0 189 64t204 160l-33 -160l-301 -191q-75 -42 -115.5 -83.5t-40.5 -92.5q0 -69 60 -113t129 -44q64 0 131 31.5t129 91.5t111.5 161t72.5 228v4l334 301v112q-90 -87 -305 -266l-12 -10l18 65q135 502 162 578h-68h-9 q-32 0 -47.5 -2t-36.5 -12.5t-35 -36t-25 -68.5l-109 -416q-14 -29 -98.5 -78t-141.5 -49q-67 0 -67 74q0 40 41 184t82 273t41 131h-35q-158 0 -162 -25q-89 -253 -134.5 -408t-45.5 -235zM166 -338q0 43 29 72.5t81 60.5l185 117q-22 -150 -77 -241t-144 -91q-74 0 -74 82 zM323 1011l23 -55q286 99 397 143l88 35q19 5 19 29q0 30 -36.5 66t-70.5 36q-74 -4 -203 -88.5t-217 -165.5z" />
<glyph unicode="&#xfe;" horiz-adv-x="967" d="M-137 -389h180q80 327 96 387l27 86q36 117 72 208.5t81.5 179t99 135.5t109.5 48q66 0 66 -82q0 -81 -58 -207.5t-120 -197.5q-4 -5 -15.5 -18t-16.5 -19t-14.5 -17.5t-14 -18.5t-10 -16t-7.5 -16.5t-2 -13.5q0 -33 13 -49t46 -16q35 0 67.5 4.5t59.5 10.5t58.5 21.5 t53 26t54 35.5t51.5 40t56 50t56.5 53.5t63.5 62t68 66.5v115q-105 -108 -184.5 -177.5t-131 -99t-80.5 -38.5t-59 -9q106 66 197.5 238.5t91.5 304.5q0 70 -31.5 111t-97.5 41q-63 0 -133 -39.5t-129 -99.5t-103 -117t-73 -107q37 133 55 197q73 246 119 413t68 253.5 t32 121.5h-67q-33 0 -53 -2t-43 -9.5t-38.5 -24.5t-25.5 -44q-83 -253 -155.5 -554t-148.5 -653.5t-130 -563.5z" />
<glyph unicode="&#xff;" horiz-adv-x="860" d="M-4 139q0 -72 27.5 -120t89.5 -48q85 0 189 64t204 160l-33 -160l-301 -191q-75 -42 -115.5 -83.5t-40.5 -92.5q0 -69 60 -113t129 -44q64 0 131 31.5t129 91.5t111.5 161t72.5 228v4l334 301v112q-90 -87 -305 -266l-12 -10l18 65q135 502 162 578h-68h-9 q-32 0 -47.5 -2t-36.5 -12.5t-35 -36t-25 -68.5l-109 -416q-14 -29 -98.5 -78t-141.5 -49q-67 0 -67 74q0 40 41 184t82 273t41 131h-35q-158 0 -162 -25q-89 -253 -134.5 -408t-45.5 -235zM166 -338q0 43 29 72.5t81 60.5l185 117q-22 -150 -77 -241t-144 -91q-74 0 -74 82 zM188 1044q0 -34 19.5 -56t58.5 -22q66 0 119 52t53 106q0 33 -28 55.5t-83 22.5q-58 0 -98.5 -51.5t-40.5 -106.5zM670 1044q0 -34 19.5 -56t60.5 -22q66 0 118 51.5t52 106.5q0 34 -27.5 56t-83.5 22q-57 0 -98 -51.5t-41 -106.5z" />
<glyph unicode="&#x131;" horiz-adv-x="469" d="M29 102q0 -52 22 -91.5t66 -39.5q82 4 173.5 76.5t279.5 258.5l20 20v112q-69 -76 -185.5 -190.5t-138.5 -114.5q-20 0 -27.5 22t-7.5 44q0 28 12.5 88t34.5 139.5t40.5 143.5t42 142.5t28.5 94.5q-38 0 -53 -0.5t-43 -3t-41.5 -9t-31.5 -17.5t-30 -30t-22 -45 q-27 -70 -83 -299t-56 -301z" />
<glyph unicode="&#x152;" horiz-adv-x="2105" d="M100 514q0 -118 32.5 -220t95.5 -181t164.5 -124.5t230.5 -45.5t259.5 46.5t227.5 129.5l35 -10q88 -27 160 -50.5t116 -40t77 -30t48.5 -21.5t26 -14t14.5 -8t8 -2q43 0 85 8.5t76 19.5t76.5 36.5t71 44t76 58t74.5 63.5t84 75.5t88 79.5v110q-83 -87 -157.5 -151.5 t-120.5 -95t-86 -48.5t-54.5 -21t-25.5 -3q-28 0 -108.5 26.5t-167 59.5t-93.5 35q-14 -2 -37 -2q-9 0 -28.5 1t-28.5 1q-5 0 -16.5 -1t-16.5 -1q139 229 191 419v2q139 11 434 11q38 0 69 33t31 63q0 33 -37 33q-40 0 -112 3t-107 3q-114 0 -244 -10q38 118 92 326t62 235 q61 -3 195.5 -24t197.5 -21q44 0 94 35l101 114q18 20 18 31q0 27 -620 27h-594q-137 0 -259.5 -32t-217.5 -88t-174.5 -133t-135.5 -166.5t-94.5 -188.5t-57 -198.5t-18.5 -197.5zM326 618q0 107 28.5 214.5t88 208.5t143.5 178.5t204.5 124.5t260.5 47q20 0 248 -14 t245 -17q-91 -62 -152 -195t-139 -405q-165 -33 -193 -42q-74 -23 -82 -67q-1 -6 -1 -14q0 -24 15.5 -33.5t33.5 -9.5q2 0 4.5 1t3.5 1q121 26 183 35q-89 -317 -113 -352l-2 -7q-145 -112 -352 -112q-104 0 -186 36.5t-133.5 100t-78 145.5t-26.5 176z" />
<glyph unicode="&#x153;" horiz-adv-x="1333" d="M31 317q0 -51 9 -99t29.5 -93.5t51 -79t77 -54t103.5 -20.5q95 0 184.5 41.5t161.5 112.5q31 -84 102.5 -119t182.5 -35q113 0 238 91t284 266v110q-29 -26 -105 -102.5t-125.5 -123t-114 -88.5t-108.5 -42q-167 0 -167 231q0 89 43 176q34 -54 83.5 -81t96.5 -27 q115 0 207 84.5t92 198.5q0 176 -236 176q-105 0 -196 -49t-160 -136q-30 93 -97.5 139t-158.5 46q-79 0 -163.5 -42t-154 -110.5t-114.5 -167.5t-45 -203zM260 412q0 139 83 239.5t177 100.5q88 0 141.5 -67t53.5 -204q0 -42 -6.5 -86t-24.5 -92t-45 -85t-72 -61t-102 -24 q-86 0 -145.5 80t-59.5 199zM905 565q9 26 27 55t44.5 59.5t65 50.5t80.5 20q47 0 71 -21.5t24 -75.5q0 -72 -43 -129t-101 -57q-92 0 -168 98z" />
<glyph unicode="&#x178;" horiz-adv-x="1554" d="M152 -565q0 -66 45.5 -115.5t110 -71.5t134.5 -22q94 0 181 23.5t157.5 63.5t135 97.5t114.5 121t95.5 139.5t79 147t63.5 149l405 361v112l-387 -354l354 1401h-217q-18 -6 -60.5 -155.5t-57.5 -217.5l-91 -375q-24 -100 -97.5 -194.5t-165 -157.5t-185.5 -101t-164 -38 q-30 0 -54 36.5t-24 73.5q0 62 40 207t103 347.5t91 312.5q15 60 34 123.5t28 96t9 44.5q0 13 -18.5 21t-46.5 8q-64 0 -111 -31l-411 -268q-21 -15 -21 -45q0 -18 10 -27.5t23 -9.5q4 0 12 8l10 6l308 213l-107 -311q-5 -14 -38.5 -111t-43 -127.5t-37 -115.5t-38 -129 t-26.5 -110t-22 -116.5t-6 -95.5q0 -142 48.5 -204t123.5 -62q128 0 349 143.5t384 331.5l-159 -498l-809 -432q-51 -28 -51 -92zM469 -547q0 65 71 129.5t183 116.5l278 162l-36 -121q-28 -101 -101 -203t-159 -166.5t-152 -64.5q-35 5 -59.5 42t-24.5 105zM841 1740 q0 -34 19.5 -56t58.5 -22q66 0 119 52t53 106q0 33 -28 55.5t-83 22.5q-58 0 -98.5 -51.5t-40.5 -106.5zM1323 1740q0 -34 19.5 -56t60.5 -22q66 0 118 51.5t52 106.5q0 34 -27.5 56t-83.5 22q-57 0 -98 -51.5t-41 -106.5z" />
<glyph unicode="&#x2c6;" d="M799 987l59 -43q21 19 62 61.5t100.5 105t99.5 103.5q23 -40 58.5 -103.5t59.5 -105.5t38 -61l72 41q-4 18 -37 106.5t-83 189.5t-79 101q-57 0 -164.5 -129t-185.5 -266z" />
<glyph unicode="&#x2c7;" d="M866 1339q3 -10 22.5 -66t50 -133t66 -136.5t60.5 -59.5q57 0 161.5 128t184.5 267l-96 23q-133 -164 -221 -270l-115 270z" />
<glyph unicode="&#x2d8;" d="M868 1257q1 -1 3.5 -27.5t7.5 -59t21.5 -73t41.5 -73t71 -54.5t107 -22q74 0 136 30.5t101 79t62.5 99t32.5 100.5l-102 25q-3 -7 -9.5 -19.5t-29 -44t-46.5 -55.5t-62 -43.5t-77 -19.5q-28 0 -50.5 10t-36.5 25t-24.5 36t-15 38t-7 36t-3 26t-0.5 11z" />
<glyph unicode="&#x2d9;" horiz-adv-x="743" d="M332 1122q0 -34 19.5 -56t58.5 -22q66 0 119 52t53 106q0 33 -28 55.5t-83 22.5q-58 0 -98.5 -51.5t-40.5 -106.5z" />
<glyph unicode="&#x2da;" horiz-adv-x="666" d="M182 1090q0 -78 47.5 -119t112.5 -41q78 0 136.5 54t58.5 142q0 66 -42.5 113t-117.5 47q-91 0 -143 -59t-52 -137zM260 1092q0 50 30.5 88.5t82.5 38.5q46 0 68 -27t22 -70q0 -48 -32.5 -86.5t-84.5 -38.5q-44 0 -65 27.5t-21 67.5z" />
<glyph unicode="&#x2db;" d="M487 -295q0 -57 22 -103t55.5 -74t77 -47t83.5 -26.5t78 -7.5q42 0 76 6v105q-8 0 -29.5 3t-60 15t-71 31t-57 55.5t-24.5 83.5q0 48 25.5 91.5t61 72t73 50t61.5 31t27 9.5h-148q-2 -2 -31 -15.5t-63.5 -35.5t-71 -54t-60.5 -82t-24 -108z" />
<glyph unicode="&#x2dc;" horiz-adv-x="1118" d="M240 1167q0 -1 2 -20.5t5.5 -42.5t15 -52t28.5 -51.5t49.5 -38.5t75.5 -16q58 0 159 42t134 42q59 0 75 -88l125 19q0 1 -2 20.5t-5.5 42.5t-15 52t-28.5 51.5t-49.5 38.5t-75.5 16q-51 0 -157.5 -38t-145.5 -38q-35 0 -55.5 18.5t-26.5 63.5z" />
<glyph unicode="&#x2dd;" d="M797 973l45 -39q6 7 91 119t142 180q66 80 66 110q0 46 -107 46q-41 0 -92.5 -79t-88.5 -171t-56 -166zM1049 987l43 -43q69 55 315 281l70 63q10 5 10 21q0 25 -39 49t-76 24q-44 0 -113.5 -77t-124 -164.5t-85.5 -153.5z" />
<glyph unicode="&#x2000;" horiz-adv-x="1047" />
<glyph unicode="&#x2001;" horiz-adv-x="2095" />
<glyph unicode="&#x2002;" horiz-adv-x="1047" />
<glyph unicode="&#x2003;" horiz-adv-x="2095" />
<glyph unicode="&#x2004;" horiz-adv-x="698" />
<glyph unicode="&#x2005;" horiz-adv-x="523" />
<glyph unicode="&#x2006;" horiz-adv-x="349" />
<glyph unicode="&#x2007;" horiz-adv-x="349" />
<glyph unicode="&#x2008;" horiz-adv-x="261" />
<glyph unicode="&#x2009;" horiz-adv-x="419" />
<glyph unicode="&#x200a;" horiz-adv-x="116" />
<glyph unicode="&#x2010;" horiz-adv-x="862" d="M156 639q0 -41 57 -41q227 18 305 18q21 0 66.5 -1t70.5 -1q38 0 69.5 33.5t31.5 63.5q0 41 -209 41q-50 0 -181 -10.5t-161 -16.5q-49 -14 -49 -86z" />
<glyph unicode="&#x2011;" horiz-adv-x="862" d="M156 639q0 -41 57 -41q227 18 305 18q21 0 66.5 -1t70.5 -1q38 0 69.5 33.5t31.5 63.5q0 41 -209 41q-50 0 -181 -10.5t-161 -16.5q-49 -14 -49 -86z" />
<glyph unicode="&#x2012;" horiz-adv-x="862" d="M156 639q0 -41 57 -41q227 18 305 18q21 0 66.5 -1t70.5 -1q38 0 69.5 33.5t31.5 63.5q0 41 -209 41q-50 0 -181 -10.5t-161 -16.5q-49 -14 -49 -86z" />
<glyph unicode="&#x2013;" horiz-adv-x="930" d="M72 639q0 -41 57 -41q371 18 510 18q21 0 66.5 -1t70.5 -1q38 0 69.5 33.5t31.5 63.5q0 41 -209 41q-81 0 -291.5 -10.5t-255.5 -16.5q-49 -14 -49 -86z" />
<glyph unicode="&#x2014;" horiz-adv-x="1196" d="M72 639q0 -41 57 -41q500 18 694 18q32 0 104.5 -1t114.5 -1q38 0 69.5 33.5t31.5 63.5q0 41 -291 41q-108 0 -390 -10.5t-341 -16.5q-49 -14 -49 -86z" />
<glyph unicode="&#x2018;" horiz-adv-x="375" d="M47 1184q0 -117 105 -117q56 0 97.5 51.5t41.5 106.5q0 33 -19.5 55.5t-58.5 22.5q11 48 27 102t26 83l10 30l-57 20q-1 -1 -29 -47.5t-46.5 -79.5t-44 -81t-39 -85.5t-13.5 -60.5z" />
<glyph unicode="&#x2019;" horiz-adv-x="443" d="M194 1380q0 -34 19 -55.5t59 -21.5q-11 -48 -27 -102t-27 -84l-10 -30l58 -20q1 2 38 64t61 105.5t48.5 100t24.5 84.5q0 117 -105 117q-57 0 -98 -51.5t-41 -106.5z" />
<glyph unicode="&#x201a;" horiz-adv-x="373" d="M84 49q0 -34 19.5 -56t58.5 -22q-11 -48 -27 -101.5t-27 -83.5l-10 -30l58 -20q1 2 38 64t61 105.5t48.5 100t24.5 84.5q0 117 -105 117q-57 0 -98 -51.5t-41 -106.5z" />
<glyph unicode="&#x201c;" horiz-adv-x="752" d="M90 1184q0 -117 105 -117q56 0 97.5 51.5t41.5 106.5q0 33 -19.5 55.5t-58.5 22.5q11 48 27 102t26 83l10 30l-57 20q-1 -1 -29 -47.5t-46.5 -79.5t-44 -81t-39 -85.5t-13.5 -60.5zM395 1184q0 -117 105 -117q57 0 98 51.5t41 106.5q0 33 -19.5 55.5t-58.5 22.5 q11 48 27 101.5t26 83.5l11 30l-58 20q-1 -2 -38 -64t-61 -105.5t-48.5 -100t-24.5 -84.5z" />
<glyph unicode="&#x201d;" horiz-adv-x="490" d="M113 1380q0 -33 19 -55t58 -22q-11 -48 -26.5 -102t-25.5 -84l-11 -30l57 -20q1 1 29 47.5t46.5 79.5t44 81t39 85.5t13.5 60.5q0 57 -24 87t-80 30q-57 0 -98 -51.5t-41 -106.5zM418 1380q0 -34 19 -55.5t59 -21.5q-11 -48 -27 -102t-27 -84l-10 -30l57 -20q2 3 29 47.5 t46.5 79t44.5 82t39 85t14 60.5q0 117 -105 117q-57 0 -98 -51.5t-41 -106.5z" />
<glyph unicode="&#x201e;" horiz-adv-x="750" d="M113 78q0 -34 19 -56t58 -22q-11 -48 -26.5 -102t-25.5 -84l-11 -29l57 -21q3 5 29 48t46 79t44.5 82.5t38.5 84.5t14 61q0 117 -104 117q-57 0 -98 -52t-41 -106zM418 78q0 -34 19.5 -56t58.5 -22q-11 -48 -27 -102t-27 -84l-10 -29l57 -21q4 6 29 48t46 78.5t45.5 83 t38.5 84.5t14 61q0 117 -105 117q-57 0 -98 -52t-41 -106z" />
<glyph unicode="&#x2022;" horiz-adv-x="422" d="M-2 561q0 -67 40 -112.5t120 -45.5q135 0 240.5 104.5t105.5 215.5q0 68 -55 113t-168 45q-76 0 -143 -51.5t-103.5 -124.5t-36.5 -144z" />
<glyph unicode="&#x202f;" horiz-adv-x="419" />
<glyph unicode="&#x2039;" horiz-adv-x="696" d="M20 616q0 -77 332 -493q71 -88 119 -88q38 0 59 18.5t21 42.5q0 61 -127 217l-92 125l-139 211l153 180q52 71 118 135t101 96.5t35 51.5q0 53 -55 53q-39 0 -77 -23.5t-61.5 -50t-56.5 -69t-47 -57.5l-156 -174q-18 -21 -42.5 -47.5t-37 -40t-25 -30.5t-17.5 -30t-5 -27 z" />
<glyph unicode="&#x203a;" horiz-adv-x="727" d="M80 96q-3 -24 14 -42.5t56 -18.5q49 0 133 88q398 411 413 493q3 14 0.5 27t-12.5 30t-19.5 30t-30.5 40.5t-36 47.5l-127 174q-12 15 -38 57.5t-45 69t-53 50t-73 23.5q-56 0 -63 -53q-4 -19 25.5 -51.5t85.5 -96.5t96 -135l122 -180l-174 -211l-112 -125 q-152 -159 -162 -217z" />
<glyph unicode="&#x2044;" horiz-adv-x="821" d="M113 -193q0 -30 22 -30q40 0 70.5 12t50.5 35t31 42t24 50t19 41l778 1556q6 21 6 33q0 13 -6 23t-14 10q-91 0 -130.5 -39.5t-78.5 -165.5q-4 -15 -160 -314t-329 -641.5t-214 -451.5q-5 -13 -37 -69.5t-32 -90.5z" />
<glyph unicode="&#x205f;" horiz-adv-x="523" />
<glyph unicode="&#x20ac;" horiz-adv-x="1372" d="M25 739q0 -37 55 -37l117 7q-10 -96 -11 -107q-83 -6 -110 -6q-47 -13 -47 -76q0 -37 55 -37l106 4q10 -106 47.5 -201t100.5 -173t162 -124t221 -46q296 0 643 295v110q-135 -108 -269.5 -165.5t-254.5 -57.5q-160 0 -273 97t-151 276q49 2 98 2q20 0 63.5 -1t67.5 -1 q36 0 66 29t30 55q0 36 -200 36q-44 0 -140 -4q0 84 2 103q54 2 107 2q20 0 63.5 -1t67.5 -1q36 0 66 28.5t30 55.5q0 37 -200 37q-78 0 -117 -2q28 152 95.5 279.5t176 211.5t236.5 90q34 0 64 -15t50.5 -38.5t37.5 -52t27.5 -57t17.5 -52t11 -38.5l3 -15q0 -21 -33 -45 t-72.5 -42t-72.5 -39.5t-33 -39.5q0 -17 9 -29t26 -12q94 34 358 160q37 16 37 76q0 134 -116.5 237t-283.5 103q-120 0 -227 -39t-187.5 -105t-146 -155.5t-108.5 -187.5t-68 -204q-128 -6 -144 -9q-40 -8 -48 -39q-4 -15 -4 -40z" />
<glyph unicode="&#x25fc;" horiz-adv-x="840" d="M0 0v840h840v-840h-840z" />
<glyph unicode="&#xfb01;" horiz-adv-x="971" d="M-74 -336h168q9 31 33.5 154t48 248t23.5 127q26 -54 77 -54q119 0 324 281q-59 -246 -59 -318q0 -52 22 -91.5t66 -39.5q74 4 203 88.5t217 165.5l-23 56q-48 -41 -138 -102.5t-110 -61.5q-14 0 -22.5 13.5t-10.5 26.5t-2 25q0 21 6.5 59t19.5 90.5t25.5 101.5t31 114 t29.5 103t27.5 93.5t18.5 63.5q-38 0 -53 -0.5t-43 -3t-41.5 -9t-31.5 -17.5t-30 -30t-22 -45q-19 -43 -64 -111t-99.5 -135.5t-113.5 -116t-98 -48.5q-65 0 -65 141q11 10 29 27.5t70 74.5t99.5 115.5t105.5 144.5t100 168t70.5 179t28.5 184q0 23 -1 38t-6 36.5t-14 34.5 t-28 22.5t-45 9.5q-119 0 -239.5 -89.5t-147.5 -186.5q-96 -347 -196 -788.5t-140 -737.5zM274 586q2 11 7 35q12 59 19.5 95t23 109.5t29 124.5t32.5 119t37 114t38.5 89t42.5 64.5t44 21.5q69 0 69 -103q0 -56 -22 -123.5t-66 -146t-79.5 -135.5t-95 -144.5t-79.5 -119.5z M809 1145q0 -32 17.5 -52t54.5 -20q61 0 108 47t47 97q0 31 -24.5 51t-75.5 20q-52 0 -89.5 -46.5t-37.5 -96.5z" />
<glyph unicode="&#xfb02;" horiz-adv-x="1006" d="M-74 -345h168q9 32 33.5 157t48 252t23.5 129q23 -62 104 -62q88 0 272 197v112q-43 -53 -130.5 -127.5t-116.5 -74.5q-41 0 -72 41t-31 92q0 28 53.5 98t129.5 163.5t152 202t129.5 240t53.5 250.5q0 23 -1 38t-6 36.5t-14 34.5t-28 22.5t-45 9.5q-119 0 -239.5 -89.5 t-147.5 -186.5q-96 -349 -196 -793t-140 -742zM274 586q2 11 7 35q12 59 19.5 95t23 109.5t29 124.5t32.5 119t37 114t38.5 89t42.5 64.5t44 21.5q69 0 69 -103q0 -56 -22 -123.5t-66 -146t-79.5 -135.5t-95 -144.5t-79.5 -119.5zM533 168.5q0 -13.5 1 -39t3.5 -40.5 t6.5 -36t11 -33.5t16 -25t22.5 -18t29.5 -5.5q102 0 220 92.5t308 306.5v112q-102 -116 -225.5 -240.5t-150.5 -124.5q-35 0 -35 71q0 35 5 93.5t11 99.5l5 41q11 9 29.5 26t72 73t102.5 115t108.5 148t102 177t72 197.5t29.5 213.5q0 71 -37.5 115.5t-102.5 44.5 q-106 0 -218 -134t-195.5 -332t-137 -432t-53.5 -427v-38.5zM787 618q100 409 176.5 604t157.5 195q43 0 43 -86q0 -46 -26 -131t-71 -186.5t-120 -210t-160 -185.5z" />
<glyph unicode="&#xfb03;" horiz-adv-x="1361" d="M-74 -336h168q9 31 33.5 154t48 248t23.5 127q23 -62 104 -62q54 0 155 85q-71 -339 -99 -552h168q9 31 33.5 154t48 248t23.5 127q26 -54 77 -54q119 0 324 281q-59 -246 -59 -318q0 -52 22 -91.5t66 -39.5q74 4 203 88.5t217 165.5l-23 56q-48 -41 -138 -102.5 t-110 -61.5q-14 0 -22.5 13.5t-10.5 26.5t-2 25q0 21 6.5 59t19.5 90.5t25.5 101.5t31 114t29.5 103t27.5 93.5t18.5 63.5q-38 0 -53 -0.5t-43 -3t-41.5 -9t-31.5 -17.5t-30 -30t-22 -45q-19 -43 -64 -111t-99.5 -135.5t-113.5 -116t-98 -48.5q-65 0 -65 141q11 10 29 27.5 t70 74.5t99.5 115.5t105.5 144.5t100 168t70.5 179t28.5 184q0 23 -1 38t-6 36.5t-14 34.5t-28 22.5t-45 9.5q-92 0 -188 -55.5t-154 -133.5q3 24 3 48q0 23 -1 38t-6 36.5t-14 34.5t-28 22.5t-45 9.5q-119 0 -239.5 -89.5t-147.5 -186.5q-96 -347 -196 -788.5t-140 -737.5z M225 371q0 25 43 85t102 129t134.5 172.5t126.5 195.5q-82 -319 -144 -603q-122 -112 -159 -112q-41 0 -72 41t-31 92zM274 586q2 11 7 35q12 59 19.5 95t23 109.5t29 124.5t32.5 119t37 114t38.5 89t42.5 64.5t44 21.5q69 0 69 -103q0 -56 -22 -123.5t-66 -146 t-79.5 -135.5t-95 -144.5t-79.5 -119.5zM707 586q2 11 7 35q12 59 19.5 95t23 109.5t29 124.5t32.5 119t37 114t38.5 89t42.5 64.5t44 21.5q69 0 69 -103q0 -56 -22 -123.5t-66 -146t-79.5 -135.5t-95 -144.5t-79.5 -119.5zM1242 1145q0 -32 17.5 -52t54.5 -20q61 0 108 47 t47 97q0 31 -24.5 51t-75.5 20q-52 0 -89.5 -46.5t-37.5 -96.5z" />
</font>
</defs>
</svg>
